M48
; DRILL file KiCad 10.0.1 date 2026-05-06T08:51:15
; FORMAT={-:-/ absolute / inch / decimal}
; #@! TF.CreationDate,2026-05-06T08:51:15+02:00
; #@! TF.GenerationSoftware,Kicad,Pcbnew,10.0.1
; #@! TF.FileFunction,Plated,1,2,PTH
FMAT,2
INCH
; #@! TA.AperFunction,Plated,PTH,ViaDrill
T1C0.0197
; #@! TA.AperFunction,Plated,PTH,ComponentDrill
T2C0.0394
%
G90
G05
T1
X0.1Y3.9
X0.1Y3.4
X0.1Y2.9
X0.1Y2.2
X0.2Y5.4
X0.2Y5.0
X0.2Y4.6
X0.2Y4.2
X0.2Y1.7
X0.3Y3.6
X0.3Y3.2
X0.3Y2.6
X0.3551Y2.8
X0.4Y1.4
X0.4Y1.0
X0.4Y0.6
X0.4Y0.2
X0.6772Y2.6929
X0.678Y2.8
X0.7Y5.4
X0.7Y5.0
X0.7Y4.6
X0.7Y4.2
X0.7Y3.4
X0.7283Y1.8425
X0.8Y3.5
X0.8354Y3.872
X0.9Y3.0
X0.9Y2.4
X0.9Y1.4
X0.9Y1.0
X0.9Y0.6
X0.9777Y0.1679
X1.0Y2.1
X1.1Y5.4
X1.1Y5.0
X1.1Y4.6
X1.1Y4.2
X1.2Y2.8
X1.2254Y3.8269
X1.3Y3.3
X1.4Y2.4
X1.4Y1.4
X1.4Y1.0
X1.4Y0.6
X1.4Y0.2
X1.6Y5.4
X1.6Y5.0
X1.6Y4.6
X1.6Y4.2
X1.6Y3.6
X1.6Y2.9
X1.6Y2.1
X1.9Y3.9
X1.9Y3.6
X1.9Y3.2
X1.9Y2.8
X1.9Y2.4
X1.9Y1.4
X1.9Y1.0
X1.9Y0.6
X1.9Y0.2
X1.997Y4.5985
X2.0Y5.4
X2.0Y5.0
X2.1Y4.3
X2.1Y1.9
X2.2283Y4.1339
X2.3Y2.7
X2.3Y2.3
X2.3346Y2.8157
X2.3898Y4.3976
X2.4Y5.4
X2.4Y1.4
X2.4Y1.0
X2.4Y0.6
X2.4Y0.2
X2.4157Y4.9802
X2.4173Y3.8661
X2.4173Y3.4488
X2.4173Y3.1496
X2.4961Y2.9
X2.5Y4.6
X2.5138Y2.617
X2.5394Y4.0354
X2.6Y2.4
X2.6Y2.0
X2.7Y4.9
X2.7532Y3.6277
X2.7557Y3.4732
X2.7593Y3.3
X2.7638Y4.1299
X2.8Y5.4
X2.9Y4.7
X2.9Y1.4
X2.9Y1.0
X2.9Y0.6
X2.9Y0.2
X2.9173Y4.3991
X2.9291Y4.0512
X3.0411Y5.1332
X3.0787Y2.7992
X3.1Y4.9
X3.1Y3.6
X3.1Y3.3
X3.2Y3.0
X3.2Y2.2
X3.3Y2.6
X3.378Y3.9409
X3.3858Y5.2008
X3.4Y4.6
X3.4Y1.9
X3.4Y1.4
X3.4Y1.0
X3.4Y0.6
X3.4Y0.2
X3.5Y3.2
X3.5756Y4.8595
X3.6Y2.6
X3.6142Y4.0354
X3.685Y5.1929
X3.8Y2.9
X3.8109Y4.6279
X3.8228Y3.8858
X3.9Y2.4
X3.9Y1.9
X3.9Y1.4
X3.9Y1.0
X3.9Y0.6
X3.9Y0.2
X3.9295Y4.8614
X4.0Y3.2
X4.0007Y5.4013
X4.0992Y4.7118
X4.2597Y5.2627
X4.4Y2.9
X4.4Y2.4
X4.4Y1.9
X4.4Y1.4
X4.4Y1.0
X4.4Y0.6
X4.4Y0.2
X4.9Y2.4
X4.9Y1.9
X4.9Y1.4
X4.9Y1.0
X4.9Y0.6
X4.9Y0.2
X5.0Y4.9
X5.0Y4.4
X5.0Y3.9
X5.0Y3.4
X5.0Y3.0
X5.3Y2.4
X5.3Y1.9
X5.3Y1.4
X5.3Y1.0
X5.3Y0.6
X5.3Y0.2
X5.4Y4.9
X5.4Y4.4
X5.4Y3.9
X5.4Y3.4
X5.4Y3.0
X5.8Y2.9
X5.8Y2.4
X5.8Y1.9
X5.8Y1.4
X5.8Y1.0
X5.8Y0.6
X5.8Y0.2
X6.2Y4.9
X6.2Y4.5
X6.2Y4.1
X6.2Y3.6
X6.2Y3.2
X6.2Y2.9
X6.2Y2.4
X6.2Y1.9
X6.2Y1.4
X6.2Y1.0
X6.2Y0.6
X6.2Y0.2
T2
X0.45Y3.7
X0.45Y3.6
X0.45Y3.5
X0.45Y3.4
X0.45Y3.3
X0.45Y3.2
X0.45Y3.1
X0.45Y3.0
X0.45Y2.9
X0.45Y2.8
X0.45Y2.7
X0.45Y2.6
X0.45Y2.5
X0.45Y2.4
X0.45Y2.3
X0.45Y2.2
X0.45Y2.1
X0.45Y2.0
X0.45Y1.9
X0.55Y3.7
X0.55Y3.6
X0.55Y3.5
X0.55Y3.4
X0.55Y3.3
X0.55Y3.2
X0.55Y3.1
X0.55Y3.0
X0.55Y2.9
X0.55Y2.8
X0.55Y2.7
X0.55Y2.6
X0.55Y2.5
X0.55Y2.4
X0.55Y2.3
X0.55Y2.2
X0.55Y2.1
X0.55Y2.0
X0.55Y1.9
X2.85Y3.7
X2.85Y3.6
X2.85Y3.5
X2.85Y3.4
X2.85Y3.3
X2.85Y3.2
X2.85Y3.1
X2.85Y3.0
X2.85Y2.9
X2.85Y2.8
X2.85Y2.7
X2.85Y2.6
X2.85Y2.5
X2.85Y2.4
X2.85Y2.3
X2.85Y2.2
X2.85Y2.1
X2.85Y2.0
X2.85Y1.9
X2.95Y3.7
X2.95Y3.6
X2.95Y3.5
X2.95Y3.4
X2.95Y3.3
X2.95Y3.2
X2.95Y3.1
X2.95Y3.0
X2.95Y2.9
X2.95Y2.8
X2.95Y2.7
X2.95Y2.6
X2.95Y2.5
X2.95Y2.4
X2.95Y2.3
X2.95Y2.2
X2.95Y2.1
X2.95Y2.0
X2.95Y1.9
X3.2854Y5.2992
X3.3854Y5.2992
X3.4854Y5.2992
X3.5854Y5.2992
X3.6854Y5.2992
X3.7854Y5.2992
X4.2Y5.0991
X4.2Y4.9991
X4.2Y4.8991
X4.2Y4.7991
X4.2Y4.6991
X4.2Y4.5991
X4.2Y4.4991
X4.2Y4.3991
X4.2Y4.2991
X4.2Y4.1991
X4.2Y4.0991
X4.2Y3.9991
X4.2Y3.8991
X4.2Y3.7991
X4.2Y3.6991
X4.2Y3.5991
X4.2Y3.4991
X4.2Y3.3991
X4.2Y3.2991
X4.2Y3.1991
X4.2Y3.0991
X4.2Y2.9991
X4.3Y5.0991
X4.3Y4.9991
X4.3Y4.8991
X4.3Y4.7991
X4.3Y4.6991
X4.3Y4.5991
X4.3Y4.4991
X4.3Y4.3991
X4.3Y4.2991
X4.3Y4.1991
X4.3Y4.0991
X4.3Y3.9991
X4.3Y3.8991
X4.3Y3.7991
X4.3Y3.6991
X4.3Y3.5991
X4.3Y3.4991
X4.3Y3.3991
X4.3Y3.2991
X4.3Y3.1991
X4.3Y3.0991
X4.3Y2.9991
X4.75Y5.1
X4.75Y5.0
X4.75Y4.9
X4.75Y4.8
X4.75Y4.7
X4.75Y4.6
X4.75Y4.5
X4.75Y4.4
X4.75Y4.3
X4.75Y4.2
X4.75Y4.1
X4.75Y4.0
X4.75Y3.9
X4.75Y3.8
X4.75Y3.7
X4.75Y3.6
X4.75Y3.5
X4.75Y3.4
X4.75Y3.3
X4.75Y3.2
X4.75Y3.1
X4.75Y3.0
X5.65Y5.1
X5.65Y5.0
X5.65Y4.9
X5.65Y4.8
X5.65Y4.7
X5.65Y4.6
X5.65Y4.5
X5.65Y4.4
X5.65Y4.3
X5.65Y4.2
X5.65Y4.1
X5.65Y4.0
X5.65Y3.9
X5.65Y3.8
X5.65Y3.7
X5.65Y3.6
X5.65Y3.5
X5.65Y3.4
X5.65Y3.3
X5.65Y3.2
X5.65Y3.1
X5.65Y3.0
X6.1Y5.0991
X6.1Y4.9991
X6.1Y4.8991
X6.1Y4.7991
X6.1Y4.6991
X6.1Y4.5991
X6.1Y4.4991
X6.1Y4.3991
X6.1Y4.2991
X6.1Y4.1991
X6.1Y4.0991
X6.1Y3.9991
X6.1Y3.8991
X6.1Y3.7991
X6.1Y3.6991
X6.1Y3.5991
X6.1Y3.4991
X6.1Y3.3991
X6.1Y3.2991
X6.1Y3.1991
X6.1Y3.0991
X6.1Y2.9991
M30
