%TF.GenerationSoftware,KiCad,Pcbnew,10.0.1*%
%TF.CreationDate,2026-05-06T08:51:15+02:00*%
%TF.ProjectId,Weather-Station,57656174-6865-4722-9d53-746174696f6e,V1.0*%
%TF.SameCoordinates,Original*%
%TF.FileFunction,Copper,L1,Top*%
%TF.FilePolarity,Positive*%
%FSLAX46Y46*%
G04 Gerber Fmt 4.6, Leading zero omitted, Abs format (unit mm)*
G04 Created by KiCad (PCBNEW 10.0.1) date 2026-05-06 08:51:15*
%MOMM*%
%LPD*%
G01*
G04 APERTURE LIST*
%TA.AperFunction,ComponentPad*%
%ADD10R,1.700000X1.700000*%
%TD*%
%TA.AperFunction,ComponentPad*%
%ADD11C,1.700000*%
%TD*%
%TA.AperFunction,ViaPad*%
%ADD12C,1.000000*%
%TD*%
%TA.AperFunction,Conductor*%
%ADD13C,1.000000*%
%TD*%
%TA.AperFunction,Conductor*%
%ADD14C,0.500000*%
%TD*%
G04 APERTURE END LIST*
D10*
%TO.P,J7,1,Pin_1_1*%
%TO.N,+3.3V*%
X83450000Y134600000D03*
D11*
%TO.P,J7,2,Pin_2_2*%
%TO.N,GND*%
X85990000Y134600000D03*
%TO.P,J7,3,Pin_3_3*%
%TO.N,/BME_SDA*%
X88530000Y134600000D03*
%TO.P,J7,4,Pin_4_4*%
%TO.N,/BME_SCL*%
X91070000Y134600000D03*
%TO.P,J7,5,Pin_5_5*%
%TO.N,GND*%
X93610000Y134600000D03*
%TO.P,J7,6,Pin_6_6*%
%TO.N,+3.3V*%
X96150000Y134600000D03*
%TD*%
D10*
%TO.P,J2,1,Pin_1_1*%
%TO.N,GND*%
X143510000Y129540000D03*
D11*
%TO.P,J2,2,Pin_2_2*%
%TO.N,Net-(J2-Pin_2)*%
X143510000Y127000000D03*
%TO.P,J2,3,Pin_3_3*%
%TO.N,Net-(J2-Pin_3)*%
X143510000Y124460000D03*
%TO.P,J2,4,Pin_4_4*%
%TO.N,Net-(J2-Pin_4)*%
X143510000Y121920000D03*
%TO.P,J2,5,Pin_5_5*%
%TO.N,Net-(J2-Pin_5)*%
X143510000Y119380000D03*
%TO.P,J2,6,Pin_6_6*%
%TO.N,Net-(J2-Pin_6)*%
X143510000Y116840000D03*
%TO.P,J2,7,Pin_7_7*%
%TO.N,Net-(J2-Pin_7)*%
X143510000Y114300000D03*
%TO.P,J2,8,Pin_8_8*%
%TO.N,Net-(J2-Pin_8)*%
X143510000Y111760000D03*
%TO.P,J2,9,Pin_9_9*%
%TO.N,Net-(J2-Pin_9)*%
X143510000Y109220000D03*
%TO.P,J2,10,Pin_10_10*%
%TO.N,Net-(J2-Pin_10)*%
X143510000Y106680000D03*
%TO.P,J2,11,Pin_11_11*%
%TO.N,Net-(J2-Pin_11)*%
X143510000Y104140000D03*
%TO.P,J2,12,Pin_12_12*%
%TO.N,Net-(J2-Pin_12)*%
X143510000Y101600000D03*
%TO.P,J2,13,Pin_13_13*%
%TO.N,Net-(J2-Pin_13)*%
X143510000Y99060000D03*
%TO.P,J2,14,Pin_14_14*%
%TO.N,Net-(J2-Pin_14)*%
X143510000Y96520000D03*
%TO.P,J2,15,Pin_15_15*%
%TO.N,Net-(J2-Pin_15)*%
X143510000Y93980000D03*
%TO.P,J2,16,Pin_16_16*%
%TO.N,Net-(J2-Pin_16)*%
X143510000Y91440000D03*
%TO.P,J2,17,Pin_17_17*%
%TO.N,Net-(J2-Pin_17)*%
X143510000Y88900000D03*
%TO.P,J2,18,Pin_18_18*%
%TO.N,Net-(J2-Pin_18)*%
X143510000Y86360000D03*
%TO.P,J2,19,Pin_19_19*%
%TO.N,Net-(J2-Pin_19)*%
X143510000Y83820000D03*
%TO.P,J2,20,Pin_20_20*%
%TO.N,Net-(J2-Pin_20)*%
X143510000Y81280000D03*
%TO.P,J2,21,Pin_21_21*%
%TO.N,GND*%
X143510000Y78740000D03*
%TO.P,J2,22,Pin_22_22*%
X143510000Y76200000D03*
%TD*%
D10*
%TO.P,J3,1,Pin_1_1*%
%TO.N,unconnected-(J3-Pin_1-Pad1)*%
X11430000Y93980000D03*
D11*
%TO.P,J3,2,Pin_2_2*%
%TO.N,unconnected-(J3-Pin_2-Pad2)*%
X13970000Y93980000D03*
%TO.P,J3,3,Pin_3_3*%
%TO.N,unconnected-(J3-Pin_3-Pad3)*%
X11430000Y91440000D03*
%TO.P,J3,4,Pin_4_4*%
%TO.N,unconnected-(J3-Pin_4-Pad4)*%
X13970000Y91440000D03*
%TO.P,J3,5,Pin_5_5*%
%TO.N,unconnected-(J3-Pin_5-Pad5)*%
X11430000Y88900000D03*
%TO.P,J3,6,Pin_6_6*%
%TO.N,unconnected-(J3-Pin_6-Pad6)*%
X13970000Y88900000D03*
%TO.P,J3,7,Pin_7_7*%
%TO.N,unconnected-(J3-Pin_7-Pad7)*%
X11430000Y86360000D03*
%TO.P,J3,8,Pin_8_8*%
%TO.N,GND*%
X13970000Y86360000D03*
%TO.P,J3,9,Pin_9_9*%
%TO.N,unconnected-(J3-Pin_9-Pad9)*%
X11430000Y83820000D03*
%TO.P,J3,10,Pin_10_10*%
%TO.N,unconnected-(J3-Pin_10-Pad10)*%
X13970000Y83820000D03*
%TO.P,J3,11,Pin_11_11*%
%TO.N,unconnected-(J3-Pin_11-Pad11)*%
X11430000Y81280000D03*
%TO.P,J3,12,Pin_12_12*%
%TO.N,unconnected-(J3-Pin_12-Pad12)*%
X13970000Y81280000D03*
%TO.P,J3,13,Pin_13_13*%
%TO.N,unconnected-(J3-Pin_13-Pad13)*%
X11430000Y78740000D03*
%TO.P,J3,14,Pin_14_14*%
%TO.N,unconnected-(J3-Pin_14-Pad14)*%
X13970000Y78740000D03*
%TO.P,J3,15,Pin_15_15*%
%TO.N,unconnected-(J3-Pin_15-Pad15)*%
X11430000Y76200000D03*
%TO.P,J3,16,Pin_16_16*%
%TO.N,+3.3V*%
X13970000Y76200000D03*
%TO.P,J3,17,Pin_17_17*%
%TO.N,unconnected-(J3-Pin_17-Pad17)*%
X11430000Y73660000D03*
%TO.P,J3,18,Pin_18_18*%
%TO.N,unconnected-(J3-Pin_18-Pad18)*%
X13970000Y73660000D03*
%TO.P,J3,19,Pin_19_19*%
%TO.N,GND*%
X11430000Y71120000D03*
%TO.P,J3,20,Pin_20_20*%
X13970000Y71120000D03*
%TO.P,J3,21,Pin_21_21*%
%TO.N,unconnected-(J3-Pin_21-Pad21)*%
X11430000Y68580000D03*
%TO.P,J3,22,Pin_22_22*%
%TO.N,GND*%
X13970000Y68580000D03*
%TO.P,J3,23,Pin_23_23*%
%TO.N,unconnected-(J3-Pin_23-Pad23)*%
X11430000Y66040000D03*
%TO.P,J3,24,Pin_24_24*%
%TO.N,unconnected-(J3-Pin_24-Pad24)*%
X13970000Y66040000D03*
%TO.P,J3,25,Pin_25_25*%
%TO.N,unconnected-(J3-Pin_25-Pad25)*%
X11430000Y63500000D03*
%TO.P,J3,26,Pin_26_26*%
%TO.N,unconnected-(J3-Pin_26-Pad26)*%
X13970000Y63500000D03*
%TO.P,J3,27,Pin_27_27*%
%TO.N,unconnected-(J3-Pin_27-Pad27)*%
X11430000Y60960000D03*
%TO.P,J3,28,Pin_28_28*%
%TO.N,unconnected-(J3-Pin_28-Pad28)*%
X13970000Y60960000D03*
%TO.P,J3,29,Pin_29_29*%
%TO.N,unconnected-(J3-Pin_29-Pad29)*%
X11430000Y58420000D03*
%TO.P,J3,30,Pin_30_30*%
%TO.N,/DISP_RESET*%
X13970000Y58420000D03*
%TO.P,J3,31,Pin_31_31*%
%TO.N,unconnected-(J3-Pin_31-Pad31)*%
X11430000Y55880000D03*
%TO.P,J3,32,Pin_32_32*%
%TO.N,unconnected-(J3-Pin_32-Pad32)*%
X13970000Y55880000D03*
%TO.P,J3,33,Pin_33_33*%
%TO.N,unconnected-(J3-Pin_33-Pad33)*%
X11430000Y53340000D03*
%TO.P,J3,34,Pin_34_34*%
%TO.N,/RIGHT*%
X13970000Y53340000D03*
%TO.P,J3,35,Pin_35_35*%
%TO.N,unconnected-(J3-Pin_35-Pad35)*%
X11430000Y50800000D03*
%TO.P,J3,36,Pin_36_36*%
%TO.N,unconnected-(J3-Pin_36-Pad36)*%
X13970000Y50800000D03*
%TO.P,J3,37,Pin_37_37*%
%TO.N,unconnected-(J3-Pin_37-Pad37)*%
X11430000Y48260000D03*
%TO.P,J3,38,Pin_38_38*%
%TO.N,/UP*%
X13970000Y48260000D03*
%TD*%
D10*
%TO.P,J4,1,Pin_1_1*%
%TO.N,unconnected-(J4-Pin_1-Pad1)*%
X72390000Y93980000D03*
D11*
%TO.P,J4,2,Pin_2_2*%
%TO.N,unconnected-(J4-Pin_2-Pad2)*%
X74930000Y93980000D03*
%TO.P,J4,3,Pin_3_3*%
%TO.N,unconnected-(J4-Pin_3-Pad3)*%
X72390000Y91440000D03*
%TO.P,J4,4,Pin_4_4*%
%TO.N,unconnected-(J4-Pin_4-Pad4)*%
X74930000Y91440000D03*
%TO.P,J4,5,Pin_5_5*%
%TO.N,unconnected-(J4-Pin_5-Pad5)*%
X72390000Y88900000D03*
%TO.P,J4,6,Pin_6_6*%
%TO.N,unconnected-(J4-Pin_6-Pad6)*%
X74930000Y88900000D03*
%TO.P,J4,7,Pin_7_7*%
%TO.N,unconnected-(J4-Pin_7-Pad7)*%
X72390000Y86360000D03*
%TO.P,J4,8,Pin_8_8*%
%TO.N,unconnected-(J4-Pin_8-Pad8)*%
X74930000Y86360000D03*
%TO.P,J4,9,Pin_9_9*%
%TO.N,GND*%
X72390000Y83820000D03*
%TO.P,J4,10,Pin_10_10*%
%TO.N,unconnected-(J4-Pin_10-Pad10)*%
X74930000Y83820000D03*
%TO.P,J4,11,Pin_11_11*%
%TO.N,/DISP_SCLK*%
X72390000Y81280000D03*
%TO.P,J4,12,Pin_12_12*%
%TO.N,unconnected-(J4-Pin_12-Pad12)*%
X74930000Y81280000D03*
%TO.P,J4,13,Pin_13_13*%
%TO.N,unconnected-(J4-Pin_13-Pad13)*%
X72390000Y78740000D03*
%TO.P,J4,14,Pin_14_14*%
%TO.N,unconnected-(J4-Pin_14-Pad14)*%
X74930000Y78740000D03*
%TO.P,J4,15,Pin_15_15*%
%TO.N,/DISP_MOSI*%
X72390000Y76200000D03*
%TO.P,J4,16,Pin_16_16*%
%TO.N,unconnected-(J4-Pin_16-Pad16)*%
X74930000Y76200000D03*
%TO.P,J4,17,Pin_17_17*%
%TO.N,/LEFT*%
X72390000Y73660000D03*
%TO.P,J4,18,Pin_18_18*%
%TO.N,unconnected-(J4-Pin_18-Pad18)*%
X74930000Y73660000D03*
%TO.P,J4,19,Pin_19_19*%
%TO.N,/CENTER*%
X72390000Y71120000D03*
%TO.P,J4,20,Pin_20_20*%
%TO.N,GND*%
X74930000Y71120000D03*
%TO.P,J4,21,Pin_21_21*%
%TO.N,/DISP_CS*%
X72390000Y68580000D03*
%TO.P,J4,22,Pin_22_22*%
%TO.N,unconnected-(J4-Pin_22-Pad22)*%
X74930000Y68580000D03*
%TO.P,J4,23,Pin_23_23*%
%TO.N,unconnected-(J4-Pin_23-Pad23)*%
X72390000Y66040000D03*
%TO.P,J4,24,Pin_24_24*%
%TO.N,unconnected-(J4-Pin_24-Pad24)*%
X74930000Y66040000D03*
%TO.P,J4,25,Pin_25_25*%
%TO.N,/DISP_DC*%
X72390000Y63500000D03*
%TO.P,J4,26,Pin_26_26*%
%TO.N,unconnected-(J4-Pin_26-Pad26)*%
X74930000Y63500000D03*
%TO.P,J4,27,Pin_27_27*%
%TO.N,/DOWN*%
X72390000Y60960000D03*
%TO.P,J4,28,Pin_28_28*%
%TO.N,unconnected-(J4-Pin_28-Pad28)*%
X74930000Y60960000D03*
%TO.P,J4,29,Pin_29_29*%
%TO.N,unconnected-(J4-Pin_29-Pad29)*%
X72390000Y58420000D03*
%TO.P,J4,30,Pin_30_30*%
%TO.N,unconnected-(J4-Pin_30-Pad30)*%
X74930000Y58420000D03*
%TO.P,J4,31,Pin_31_31*%
%TO.N,unconnected-(J4-Pin_31-Pad31)*%
X72390000Y55880000D03*
%TO.P,J4,32,Pin_32_32*%
%TO.N,unconnected-(J4-Pin_32-Pad32)*%
X74930000Y55880000D03*
%TO.P,J4,33,Pin_33_33*%
%TO.N,unconnected-(J4-Pin_33-Pad33)*%
X72390000Y53340000D03*
%TO.P,J4,34,Pin_34_34*%
%TO.N,unconnected-(J4-Pin_34-Pad34)*%
X74930000Y53340000D03*
%TO.P,J4,35,Pin_35_35*%
%TO.N,unconnected-(J4-Pin_35-Pad35)*%
X72390000Y50800000D03*
%TO.P,J4,36,Pin_36_36*%
%TO.N,unconnected-(J4-Pin_36-Pad36)*%
X74930000Y50800000D03*
%TO.P,J4,37,Pin_37_37*%
%TO.N,unconnected-(J4-Pin_37-Pad37)*%
X72390000Y48260000D03*
%TO.P,J4,38,Pin_38_38*%
%TO.N,unconnected-(J4-Pin_38-Pad38)*%
X74930000Y48260000D03*
%TD*%
D10*
%TO.P,J5,1,Pin_1_1*%
%TO.N,+3.3V*%
X106680000Y129517920D03*
D11*
%TO.P,J5,2,Pin_2_2*%
%TO.N,Net-(J1-Pin_1)*%
X109220000Y129517920D03*
%TO.P,J5,3,Pin_3_3*%
%TO.N,+3.3V*%
X106680000Y126977920D03*
%TO.P,J5,4,Pin_4_4*%
%TO.N,Net-(J1-Pin_2)*%
X109220000Y126977920D03*
%TO.P,J5,5,Pin_5_5*%
%TO.N,unconnected-(J5-Pin_5-Pad5)*%
X106680000Y124437920D03*
%TO.P,J5,6,Pin_6_6*%
%TO.N,Net-(J1-Pin_3)*%
X109220000Y124437920D03*
%TO.P,J5,7,Pin_7_7*%
%TO.N,unconnected-(J5-Pin_7-Pad7)*%
X106680000Y121897920D03*
%TO.P,J5,8,Pin_8_8*%
%TO.N,Net-(J1-Pin_4)*%
X109220000Y121897920D03*
%TO.P,J5,9,Pin_9_9*%
%TO.N,unconnected-(J5-Pin_9-Pad9)*%
X106680000Y119357920D03*
%TO.P,J5,10,Pin_10_10*%
%TO.N,Net-(J1-Pin_5)*%
X109220000Y119357920D03*
%TO.P,J5,11,Pin_11_11*%
%TO.N,unconnected-(J5-Pin_11-Pad11)*%
X106680000Y116817920D03*
%TO.P,J5,12,Pin_12_12*%
%TO.N,Net-(J1-Pin_6)*%
X109220000Y116817920D03*
%TO.P,J5,13,Pin_13_13*%
%TO.N,/CENTER*%
X106680000Y114277920D03*
%TO.P,J5,14,Pin_14_14*%
%TO.N,Net-(J1-Pin_7)*%
X109220000Y114277920D03*
%TO.P,J5,15,Pin_15_15*%
%TO.N,/RIGHT*%
X106680000Y111737920D03*
%TO.P,J5,16,Pin_16_16*%
%TO.N,Net-(J1-Pin_8)*%
X109220000Y111737920D03*
%TO.P,J5,17,Pin_17_17*%
%TO.N,/DOWN*%
X106680000Y109197920D03*
%TO.P,J5,18,Pin_18_18*%
%TO.N,Net-(J1-Pin_9)*%
X109220000Y109197920D03*
%TO.P,J5,19,Pin_19_19*%
%TO.N,/LEFT*%
X106680000Y106657920D03*
%TO.P,J5,20,Pin_20_20*%
%TO.N,Net-(J1-Pin_10)*%
X109220000Y106657920D03*
%TO.P,J5,21,Pin_21_21*%
%TO.N,/UP*%
X106680000Y104117920D03*
%TO.P,J5,22,Pin_22_22*%
%TO.N,Net-(J1-Pin_11)*%
X109220000Y104117920D03*
%TO.P,J5,23,Pin_23_23*%
%TO.N,/BME_SDA*%
X106680000Y101577920D03*
%TO.P,J5,24,Pin_24_24*%
%TO.N,Net-(J1-Pin_12)*%
X109220000Y101577920D03*
%TO.P,J5,25,Pin_25_25*%
%TO.N,unconnected-(J5-Pin_25-Pad25)*%
X106680000Y99037920D03*
%TO.P,J5,26,Pin_26_26*%
%TO.N,Net-(J1-Pin_13)*%
X109220000Y99037920D03*
%TO.P,J5,27,Pin_27_27*%
%TO.N,/DISP_DC*%
X106680000Y96497920D03*
%TO.P,J5,28,Pin_28_28*%
%TO.N,Net-(J1-Pin_14)*%
X109220000Y96497920D03*
%TO.P,J5,29,Pin_29_29*%
%TO.N,/BME_SCL*%
X106680000Y93957920D03*
%TO.P,J5,30,Pin_30_30*%
%TO.N,Net-(J1-Pin_15)*%
X109220000Y93957920D03*
%TO.P,J5,31,Pin_31_31*%
%TO.N,/DISP_CS*%
X106680000Y91417920D03*
%TO.P,J5,32,Pin_32_32*%
%TO.N,Net-(J1-Pin_16)*%
X109220000Y91417920D03*
%TO.P,J5,33,Pin_33_33*%
%TO.N,/DISP_MOSI*%
X106680000Y88877920D03*
%TO.P,J5,34,Pin_34_34*%
%TO.N,Net-(J1-Pin_17)*%
X109220000Y88877920D03*
%TO.P,J5,35,Pin_35_35*%
%TO.N,/DISP_SCLK*%
X106680000Y86337920D03*
%TO.P,J5,36,Pin_36_36*%
%TO.N,Net-(J1-Pin_18)*%
X109220000Y86337920D03*
%TO.P,J5,37,Pin_37_37*%
%TO.N,unconnected-(J5-Pin_37-Pad37)*%
X106680000Y83797920D03*
%TO.P,J5,38,Pin_38_38*%
%TO.N,Net-(J1-Pin_19)*%
X109220000Y83797920D03*
%TO.P,J5,39,Pin_39_39*%
%TO.N,/DISP_RESET*%
X106680000Y81257920D03*
%TO.P,J5,40,Pin_40_40*%
%TO.N,Net-(J1-Pin_20)*%
X109220000Y81257920D03*
%TO.P,J5,41,Pin_41_41*%
%TO.N,+5V*%
X106680000Y78717920D03*
%TO.P,J5,42,Pin_42_42*%
%TO.N,Net-(J1-Pin_21)*%
X109220000Y78717920D03*
%TO.P,J5,43,Pin_43_43*%
%TO.N,GND*%
X106680000Y76177920D03*
%TO.P,J5,44,Pin_44_44*%
X109220000Y76177920D03*
%TD*%
D10*
%TO.P,J6,1,Pin_1_1*%
%TO.N,GND*%
X154940000Y129517920D03*
D11*
%TO.P,J6,2,Pin_2_2*%
%TO.N,Net-(J2-Pin_2)*%
X154940000Y126977920D03*
%TO.P,J6,3,Pin_3_3*%
%TO.N,Net-(J2-Pin_3)*%
X154940000Y124437920D03*
%TO.P,J6,4,Pin_4_4*%
%TO.N,Net-(J2-Pin_4)*%
X154940000Y121897920D03*
%TO.P,J6,5,Pin_5_5*%
%TO.N,Net-(J2-Pin_5)*%
X154940000Y119357920D03*
%TO.P,J6,6,Pin_6_6*%
%TO.N,Net-(J2-Pin_6)*%
X154940000Y116817920D03*
%TO.P,J6,7,Pin_7_7*%
%TO.N,Net-(J2-Pin_7)*%
X154940000Y114277920D03*
%TO.P,J6,8,Pin_8_8*%
%TO.N,Net-(J2-Pin_8)*%
X154940000Y111737920D03*
%TO.P,J6,9,Pin_9_9*%
%TO.N,Net-(J2-Pin_9)*%
X154940000Y109197920D03*
%TO.P,J6,10,Pin_10_10*%
%TO.N,Net-(J2-Pin_10)*%
X154940000Y106657920D03*
%TO.P,J6,11,Pin_11_11*%
%TO.N,Net-(J2-Pin_11)*%
X154940000Y104117920D03*
%TO.P,J6,12,Pin_12_12*%
%TO.N,Net-(J2-Pin_12)*%
X154940000Y101577920D03*
%TO.P,J6,13,Pin_13_13*%
%TO.N,Net-(J2-Pin_13)*%
X154940000Y99037920D03*
%TO.P,J6,14,Pin_14_14*%
%TO.N,Net-(J2-Pin_14)*%
X154940000Y96497920D03*
%TO.P,J6,15,Pin_15_15*%
%TO.N,Net-(J2-Pin_15)*%
X154940000Y93957920D03*
%TO.P,J6,16,Pin_16_16*%
%TO.N,Net-(J2-Pin_16)*%
X154940000Y91417920D03*
%TO.P,J6,17,Pin_17_17*%
%TO.N,Net-(J2-Pin_17)*%
X154940000Y88877920D03*
%TO.P,J6,18,Pin_18_18*%
%TO.N,Net-(J2-Pin_18)*%
X154940000Y86337920D03*
%TO.P,J6,19,Pin_19_19*%
%TO.N,Net-(J2-Pin_19)*%
X154940000Y83797920D03*
%TO.P,J6,20,Pin_20_20*%
%TO.N,Net-(J2-Pin_20)*%
X154940000Y81257920D03*
%TO.P,J6,21,Pin_21_21*%
%TO.N,GND*%
X154940000Y78717920D03*
%TO.P,J6,22,Pin_22_22*%
X154940000Y76177920D03*
%TD*%
D10*
%TO.P,J1,1,Pin_1_1*%
%TO.N,Net-(J1-Pin_1)*%
X120650000Y129540000D03*
D11*
%TO.P,J1,2,Pin_2_2*%
%TO.N,Net-(J1-Pin_2)*%
X120650000Y127000000D03*
%TO.P,J1,3,Pin_3_3*%
%TO.N,Net-(J1-Pin_3)*%
X120650000Y124460000D03*
%TO.P,J1,4,Pin_4_4*%
%TO.N,Net-(J1-Pin_4)*%
X120650000Y121920000D03*
%TO.P,J1,5,Pin_5_5*%
%TO.N,Net-(J1-Pin_5)*%
X120650000Y119380000D03*
%TO.P,J1,6,Pin_6_6*%
%TO.N,Net-(J1-Pin_6)*%
X120650000Y116840000D03*
%TO.P,J1,7,Pin_7_7*%
%TO.N,Net-(J1-Pin_7)*%
X120650000Y114300000D03*
%TO.P,J1,8,Pin_8_8*%
%TO.N,Net-(J1-Pin_8)*%
X120650000Y111760000D03*
%TO.P,J1,9,Pin_9_9*%
%TO.N,Net-(J1-Pin_9)*%
X120650000Y109220000D03*
%TO.P,J1,10,Pin_10_10*%
%TO.N,Net-(J1-Pin_10)*%
X120650000Y106680000D03*
%TO.P,J1,11,Pin_11_11*%
%TO.N,Net-(J1-Pin_11)*%
X120650000Y104140000D03*
%TO.P,J1,12,Pin_12_12*%
%TO.N,Net-(J1-Pin_12)*%
X120650000Y101600000D03*
%TO.P,J1,13,Pin_13_13*%
%TO.N,Net-(J1-Pin_13)*%
X120650000Y99060000D03*
%TO.P,J1,14,Pin_14_14*%
%TO.N,Net-(J1-Pin_14)*%
X120650000Y96520000D03*
%TO.P,J1,15,Pin_15_15*%
%TO.N,Net-(J1-Pin_15)*%
X120650000Y93980000D03*
%TO.P,J1,16,Pin_16_16*%
%TO.N,Net-(J1-Pin_16)*%
X120650000Y91440000D03*
%TO.P,J1,17,Pin_17_17*%
%TO.N,Net-(J1-Pin_17)*%
X120650000Y88900000D03*
%TO.P,J1,18,Pin_18_18*%
%TO.N,Net-(J1-Pin_18)*%
X120650000Y86360000D03*
%TO.P,J1,19,Pin_19_19*%
%TO.N,Net-(J1-Pin_19)*%
X120650000Y83820000D03*
%TO.P,J1,20,Pin_20_20*%
%TO.N,Net-(J1-Pin_20)*%
X120650000Y81280000D03*
%TO.P,J1,21,Pin_21_21*%
%TO.N,Net-(J1-Pin_21)*%
X120650000Y78740000D03*
%TO.P,J1,22,Pin_22_22*%
%TO.N,GND*%
X120650000Y76200000D03*
%TD*%
D12*
%TO.N,GND*%
X48260000Y15240000D03*
X48260000Y60960000D03*
X48260000Y99060000D03*
X50800000Y127000000D03*
X40640000Y91440000D03*
X99060000Y48260000D03*
X69993925Y88220420D03*
X24834405Y4264971D03*
X137160000Y86360000D03*
X111760000Y15240000D03*
X64500000Y102500000D03*
X63850668Y66471237D03*
X96520000Y73660000D03*
X61358129Y126497706D03*
X10160000Y15240000D03*
X99060000Y15240000D03*
X5080000Y43180000D03*
X124460000Y25400000D03*
X66040000Y60960000D03*
X40640000Y106680000D03*
X50724231Y116802094D03*
X81280000Y55880000D03*
X86360000Y5080000D03*
X30480000Y71120000D03*
X157480000Y104140000D03*
X48260000Y25400000D03*
X5080000Y137160000D03*
X78740000Y83820000D03*
X58420000Y58420000D03*
X40640000Y116840000D03*
X22860000Y76200000D03*
X134620000Y5080000D03*
X35560000Y25400000D03*
X111760000Y60960000D03*
X157480000Y91440000D03*
X61400000Y80000000D03*
X48260000Y91440000D03*
X10160000Y25400000D03*
X7620000Y66040000D03*
X147320000Y73660000D03*
X134620000Y25400000D03*
X70086595Y83820000D03*
X61400000Y98200000D03*
X33020000Y83820000D03*
X96798010Y117547647D03*
X134620000Y35560000D03*
X7620000Y91440000D03*
X91440000Y66040000D03*
X124460000Y15240000D03*
X61400000Y87600000D03*
X111760000Y48260000D03*
X157480000Y124460000D03*
X66040000Y50800000D03*
X2540000Y99060000D03*
X73660000Y35560000D03*
X137160000Y99060000D03*
X48260000Y5080000D03*
X53340000Y109220000D03*
X101600000Y81280000D03*
X147320000Y25400000D03*
X101616857Y137193715D03*
X147320000Y35560000D03*
X10160000Y5080000D03*
X71120000Y137160000D03*
X104118950Y119679060D03*
X86360000Y116840000D03*
X97100000Y98700000D03*
X91800000Y102500000D03*
X157480000Y35560000D03*
X157480000Y114300000D03*
X127000000Y76200000D03*
X137160000Y76200000D03*
X85800000Y100100000D03*
X17200000Y68400000D03*
X157480000Y5080000D03*
X157480000Y25400000D03*
X99060000Y25400000D03*
X124460000Y5080000D03*
X127000000Y111760000D03*
X48260000Y35560000D03*
X7620000Y81280000D03*
X147320000Y48260000D03*
X40640000Y137160000D03*
X35560000Y15240000D03*
X17780000Y116840000D03*
X86360000Y48260000D03*
X157480000Y48260000D03*
X134620000Y48260000D03*
X108196436Y133672250D03*
X21220378Y98349154D03*
X48260000Y81280000D03*
X9020000Y71120000D03*
X147320000Y15240000D03*
X22860000Y60960000D03*
X124460000Y48260000D03*
X35560000Y60960000D03*
X60960000Y15240000D03*
X22860000Y25400000D03*
X111760000Y73660000D03*
X124460000Y35560000D03*
X17780000Y86360000D03*
X157480000Y15240000D03*
X127000000Y86360000D03*
X68580000Y124460000D03*
X73660000Y5080000D03*
X60960000Y25400000D03*
X58420000Y68580000D03*
X137160000Y111760000D03*
X48260000Y71120000D03*
X5080000Y127000000D03*
X50800000Y137160000D03*
X157480000Y81280000D03*
X27940000Y137160000D03*
X22860000Y35560000D03*
X111760000Y35560000D03*
X2540000Y55880000D03*
X134620000Y60960000D03*
X111760000Y5080000D03*
X78740000Y91440000D03*
X157480000Y60960000D03*
X2540000Y73660000D03*
X17220000Y71120000D03*
X53340000Y48260000D03*
X157480000Y73660000D03*
X86360000Y25400000D03*
X99809789Y123478536D03*
X147320000Y5080000D03*
X127000000Y124460000D03*
X78200000Y71100000D03*
X99060000Y60960000D03*
X10160000Y35560000D03*
X83820000Y66040000D03*
X40640000Y73660000D03*
X78740000Y124460000D03*
X81280000Y76200000D03*
X27940000Y116840000D03*
X27940000Y106680000D03*
X134620000Y15240000D03*
X17780000Y127000000D03*
X77244612Y130382460D03*
X73660000Y119380000D03*
X147320000Y60960000D03*
X17780000Y106680000D03*
X2540000Y86360000D03*
X124460000Y60960000D03*
X74400000Y102900000D03*
X27940000Y127000000D03*
X90820786Y123432200D03*
X93600000Y131900000D03*
X99060000Y35560000D03*
X40640000Y53340000D03*
X17780000Y137160000D03*
X86000000Y132100000D03*
X60960000Y137160000D03*
X25400000Y53340000D03*
X73660000Y25400000D03*
X5080000Y116840000D03*
X35560000Y5080000D03*
X86360000Y35560000D03*
X63500000Y116840000D03*
X88900000Y81280000D03*
X127000000Y99060000D03*
X86360000Y15240000D03*
X60960000Y5080000D03*
X5080000Y106680000D03*
X69932145Y92143455D03*
X60960000Y35560000D03*
X73660000Y15240000D03*
X137160000Y124460000D03*
X20320000Y88900000D03*
X40640000Y127000000D03*
X22860000Y15240000D03*
X111760000Y25400000D03*
X99060000Y5080000D03*
X35560000Y35560000D03*
X31124498Y97202361D03*
%TO.N,/DISP_RESET*%
X18500000Y46800000D03*
%TO.N,/RIGHT*%
X74100000Y111737920D03*
X60700000Y111700000D03*
%TO.N,/UP*%
X70200000Y104900000D03*
X56600000Y105000000D03*
%TO.N,/LEFT*%
X63400000Y73660000D03*
%TO.N,/CENTER*%
X59300000Y71520000D03*
%TD*%
%TO.N,GND*%
D13*
X154917920Y78740000D02*
X154940000Y78717920D01*
X109220000Y76177920D02*
X120627920Y76177920D01*
X154917920Y129540000D02*
X154940000Y129517920D01*
X143510000Y129540000D02*
X154917920Y129540000D01*
X72390000Y83820000D02*
X68580000Y83820000D01*
X17220000Y71120000D02*
X17300000Y71200000D01*
X17020000Y68580000D02*
X17200000Y68400000D01*
X120627920Y76177920D02*
X120650000Y76200000D01*
X74930000Y71120000D02*
X74950000Y71100000D01*
X9020000Y71120000D02*
X9000000Y71100000D01*
X74950000Y71100000D02*
X78200000Y71100000D01*
X143510000Y78740000D02*
X154917920Y78740000D01*
X143532080Y76177920D02*
X143510000Y76200000D01*
X143510000Y76200000D02*
X154940000Y76200000D01*
X154940000Y76200000D02*
X154940000Y76177920D01*
%TO.N,/BME_SDA*%
D14*
X106680000Y101577920D02*
X104422080Y101577920D01*
X104422080Y101577920D02*
X103400000Y102600000D01*
X103400000Y115100000D02*
X88530000Y129970000D01*
X88530000Y129970000D02*
X88530000Y134600000D01*
X103400000Y102600000D02*
X103400000Y115100000D01*
%TO.N,/BME_SCL*%
X82400000Y137700000D02*
X90100000Y137700000D01*
X100400000Y109700000D02*
X80300000Y129800000D01*
X100400000Y97400000D02*
X100400000Y109700000D01*
X90100000Y137700000D02*
X91070000Y136730000D01*
X103842080Y93957920D02*
X100400000Y97400000D01*
X91070000Y136730000D02*
X91070000Y134600000D01*
X106680000Y93957920D02*
X103842080Y93957920D01*
X80300000Y129800000D02*
X80300000Y135600000D01*
X80300000Y135600000D02*
X82400000Y137700000D01*
%TO.N,Net-(J2-Pin_2)*%
D13*
X143532080Y126977920D02*
X143510000Y127000000D01*
X154940000Y126977920D02*
X143532080Y126977920D01*
%TO.N,Net-(J2-Pin_3)*%
X143532080Y124437920D02*
X143510000Y124460000D01*
X154917920Y124460000D02*
X154940000Y124437920D01*
X154940000Y124437920D02*
X143532080Y124437920D01*
%TO.N,Net-(J2-Pin_4)*%
X143532080Y121897920D02*
X143510000Y121920000D01*
X154940000Y121897920D02*
X143532080Y121897920D01*
%TO.N,Net-(J2-Pin_5)*%
X154917920Y119380000D02*
X154940000Y119357920D01*
X143510000Y119380000D02*
X154917920Y119380000D01*
%TO.N,Net-(J2-Pin_6)*%
X154940000Y116817920D02*
X143532080Y116817920D01*
X143532080Y116817920D02*
X143510000Y116840000D01*
%TO.N,Net-(J2-Pin_7)*%
X154917920Y114300000D02*
X154940000Y114277920D01*
X143510000Y114300000D02*
X154917920Y114300000D01*
%TO.N,Net-(J2-Pin_8)*%
X154940000Y111737920D02*
X143532080Y111737920D01*
X154917920Y111760000D02*
X154940000Y111737920D01*
X143532080Y111737920D02*
X143510000Y111760000D01*
%TO.N,Net-(J2-Pin_9)*%
X154917920Y109220000D02*
X154940000Y109197920D01*
X143510000Y109220000D02*
X154917920Y109220000D01*
%TO.N,Net-(J2-Pin_10)*%
X154940000Y106657920D02*
X143532080Y106657920D01*
X143532080Y106657920D02*
X143510000Y106680000D01*
%TO.N,Net-(J2-Pin_11)*%
X143510000Y104140000D02*
X154917920Y104140000D01*
X154917920Y104140000D02*
X154940000Y104117920D01*
%TO.N,Net-(J2-Pin_12)*%
X154940000Y101577920D02*
X143532080Y101577920D01*
X143532080Y101577920D02*
X143510000Y101600000D01*
%TO.N,Net-(J2-Pin_13)*%
X154917920Y99060000D02*
X154940000Y99037920D01*
X143510000Y99060000D02*
X154917920Y99060000D01*
%TO.N,Net-(J2-Pin_14)*%
X154940000Y96497920D02*
X143532080Y96497920D01*
X143532080Y96497920D02*
X143510000Y96520000D01*
%TO.N,Net-(J2-Pin_15)*%
X143510000Y93980000D02*
X154917920Y93980000D01*
X154917920Y93980000D02*
X154940000Y93957920D01*
%TO.N,Net-(J2-Pin_16)*%
X143532080Y91417920D02*
X143510000Y91440000D01*
X154940000Y91417920D02*
X143532080Y91417920D01*
%TO.N,Net-(J2-Pin_17)*%
X143510000Y88900000D02*
X154917920Y88900000D01*
X154917920Y88900000D02*
X154940000Y88877920D01*
%TO.N,Net-(J2-Pin_18)*%
X144802080Y86337920D02*
X144780000Y86360000D01*
X143532080Y86337920D02*
X143510000Y86360000D01*
X154940000Y86337920D02*
X144802080Y86337920D01*
X144780000Y86360000D02*
X143510000Y86360000D01*
%TO.N,Net-(J2-Pin_19)*%
X143510000Y83820000D02*
X154917920Y83820000D01*
X154917920Y83820000D02*
X154940000Y83797920D01*
%TO.N,Net-(J2-Pin_20)*%
X143532080Y81257920D02*
X143510000Y81280000D01*
X154940000Y81257920D02*
X143532080Y81257920D01*
%TO.N,/DISP_RESET*%
D14*
X18500000Y46800000D02*
X18500000Y53890000D01*
X18500000Y53890000D02*
X13970000Y58420000D01*
%TO.N,/RIGHT*%
X60700000Y111700000D02*
X74062080Y111700000D01*
X74062080Y111700000D02*
X74100000Y111737920D01*
%TO.N,/UP*%
X56600000Y105000000D02*
X58300000Y105000000D01*
X58300000Y105000000D02*
X58400000Y104900000D01*
X58400000Y104900000D02*
X70200000Y104900000D01*
%TO.N,/LEFT*%
X63400000Y73660000D02*
X72390000Y73660000D01*
%TO.N,/CENTER*%
X59300000Y71520000D02*
X59700000Y71120000D01*
X59700000Y71120000D02*
X72390000Y71120000D01*
%TO.N,Net-(J1-Pin_1)*%
D13*
X109220000Y129517920D02*
X120627920Y129517920D01*
X120627920Y129517920D02*
X120650000Y129540000D01*
%TO.N,Net-(J1-Pin_2)*%
X109220000Y126977920D02*
X120627920Y126977920D01*
X120627920Y126977920D02*
X120650000Y127000000D01*
%TO.N,Net-(J1-Pin_3)*%
X120627920Y124437920D02*
X120650000Y124460000D01*
X109220000Y124437920D02*
X120627920Y124437920D01*
%TO.N,Net-(J1-Pin_4)*%
X120627920Y121897920D02*
X120650000Y121920000D01*
X109220000Y121897920D02*
X120627920Y121897920D01*
%TO.N,Net-(J1-Pin_5)*%
X120627920Y119357920D02*
X120650000Y119380000D01*
X109220000Y119357920D02*
X120627920Y119357920D01*
%TO.N,Net-(J1-Pin_6)*%
X109220000Y116817920D02*
X120627920Y116817920D01*
X120627920Y116817920D02*
X120650000Y116840000D01*
%TO.N,Net-(J1-Pin_7)*%
X109220000Y114277920D02*
X120627920Y114277920D01*
X120627920Y114277920D02*
X120650000Y114300000D01*
%TO.N,Net-(J1-Pin_8)*%
X109220000Y111737920D02*
X120627920Y111737920D01*
X120627920Y111737920D02*
X120650000Y111760000D01*
%TO.N,Net-(J1-Pin_9)*%
X120627920Y109197920D02*
X120650000Y109220000D01*
X109220000Y109197920D02*
X120627920Y109197920D01*
%TO.N,Net-(J1-Pin_10)*%
X109220000Y106657920D02*
X120627920Y106657920D01*
X120627920Y106657920D02*
X120650000Y106680000D01*
%TO.N,Net-(J1-Pin_11)*%
X120627920Y104117920D02*
X120650000Y104140000D01*
X109220000Y104117920D02*
X120627920Y104117920D01*
%TO.N,Net-(J1-Pin_12)*%
X120627920Y101577920D02*
X120650000Y101600000D01*
X109220000Y101577920D02*
X120627920Y101577920D01*
%TO.N,Net-(J1-Pin_13)*%
X120627920Y99037920D02*
X120650000Y99060000D01*
X109220000Y99037920D02*
X120627920Y99037920D01*
%TO.N,Net-(J1-Pin_14)*%
X109220000Y96497920D02*
X120627920Y96497920D01*
X120627920Y96497920D02*
X120650000Y96520000D01*
%TO.N,Net-(J1-Pin_15)*%
X109220000Y93957920D02*
X120627920Y93957920D01*
X120627920Y93957920D02*
X120650000Y93980000D01*
%TO.N,Net-(J1-Pin_16)*%
X120627920Y91417920D02*
X120650000Y91440000D01*
X109220000Y91417920D02*
X120627920Y91417920D01*
%TO.N,Net-(J1-Pin_17)*%
X109220000Y88877920D02*
X120627920Y88877920D01*
X120627920Y88877920D02*
X120650000Y88900000D01*
%TO.N,Net-(J1-Pin_18)*%
X109220000Y86337920D02*
X120627920Y86337920D01*
X120627920Y86337920D02*
X120650000Y86360000D01*
%TO.N,Net-(J1-Pin_19)*%
X109220000Y83797920D02*
X120627920Y83797920D01*
X120627920Y83797920D02*
X120650000Y83820000D01*
%TO.N,Net-(J1-Pin_20)*%
X109220000Y81257920D02*
X120627920Y81257920D01*
X120627920Y81257920D02*
X120650000Y81280000D01*
%TO.N,Net-(J1-Pin_21)*%
X109220000Y78717920D02*
X120627920Y78717920D01*
X120627920Y78717920D02*
X120650000Y78740000D01*
%TD*%
%TA.AperFunction,Conductor*%
%TO.N,GND*%
G36*
X13504075Y68387007D02*
G01*
X13569901Y68272993D01*
X13662993Y68179901D01*
X13777007Y68114075D01*
X13840590Y68097038D01*
X13208282Y67464731D01*
X13208282Y67464730D01*
X13262452Y67425374D01*
X13262451Y67425374D01*
X13271495Y67420766D01*
X13322292Y67372792D01*
X13339087Y67304971D01*
X13316550Y67238836D01*
X13271499Y67199798D01*
X13262182Y67195051D01*
X13090213Y67070110D01*
X12939890Y66919787D01*
X12814949Y66747818D01*
X12810484Y66739054D01*
X12762509Y66688258D01*
X12694688Y66671464D01*
X12628553Y66694002D01*
X12589516Y66739054D01*
X12585050Y66747818D01*
X12460109Y66919787D01*
X12309786Y67070110D01*
X12137820Y67195049D01*
X12137115Y67195409D01*
X12129054Y67199515D01*
X12078259Y67247488D01*
X12061463Y67315308D01*
X12083999Y67381444D01*
X12129054Y67420485D01*
X12137816Y67424949D01*
X12192572Y67464731D01*
X12309786Y67549891D01*
X12309788Y67549894D01*
X12309792Y67549896D01*
X12460104Y67700208D01*
X12460106Y67700212D01*
X12460109Y67700214D01*
X12545890Y67818283D01*
X12585051Y67872184D01*
X12589793Y67881492D01*
X12637763Y67932289D01*
X12705583Y67949089D01*
X12771719Y67926555D01*
X12810763Y67881500D01*
X12815373Y67872453D01*
X12854728Y67818284D01*
X13487037Y68450592D01*
X13504075Y68387007D01*
G37*
%TD.AperFunction*%
%TA.AperFunction,Conductor*%
G36*
X13504075Y70927007D02*
G01*
X13569901Y70812993D01*
X13662993Y70719901D01*
X13777007Y70654075D01*
X13840590Y70637038D01*
X13208282Y70004731D01*
X13208282Y70004730D01*
X13262452Y69965374D01*
X13272048Y69960484D01*
X13322844Y69912509D01*
X13339638Y69844688D01*
X13317100Y69778553D01*
X13272051Y69739517D01*
X13262440Y69734620D01*
X13208282Y69695273D01*
X13208282Y69695272D01*
X13840591Y69062963D01*
X13777007Y69045925D01*
X13662993Y68980099D01*
X13569901Y68887007D01*
X13504075Y68772993D01*
X13487037Y68709409D01*
X12854728Y69341718D01*
X12854727Y69341718D01*
X12815380Y69287560D01*
X12815376Y69287554D01*
X12810760Y69278495D01*
X12762781Y69227703D01*
X12694959Y69210913D01*
X12628826Y69233457D01*
X12589794Y69278507D01*
X12585051Y69287816D01*
X12585049Y69287819D01*
X12585048Y69287821D01*
X12460109Y69459787D01*
X12309786Y69610110D01*
X12137817Y69735051D01*
X12128504Y69739796D01*
X12077707Y69787770D01*
X12060912Y69855591D01*
X12081754Y69919258D01*
X12160119Y70036328D01*
X11559408Y70637038D01*
X11622993Y70654075D01*
X11737007Y70719901D01*
X11830099Y70812993D01*
X11895925Y70927007D01*
X11912962Y70990592D01*
X12545270Y70358283D01*
X12545270Y70358284D01*
X12584622Y70412446D01*
X12589514Y70422046D01*
X12637488Y70472843D01*
X12705308Y70489639D01*
X12771444Y70467103D01*
X12810486Y70422046D01*
X12815375Y70412450D01*
X12854728Y70358284D01*
X13487037Y70990592D01*
X13504075Y70927007D01*
G37*
%TD.AperFunction*%
%TA.AperFunction,Conductor*%
G36*
X12771444Y73006001D02*
G01*
X12810486Y72960944D01*
X12814951Y72952180D01*
X12939890Y72780214D01*
X13090213Y72629891D01*
X13262179Y72504952D01*
X13262181Y72504951D01*
X13262184Y72504949D01*
X13271493Y72500206D01*
X13322290Y72452234D01*
X13339087Y72384413D01*
X13316552Y72318278D01*
X13271505Y72279240D01*
X13262446Y72274624D01*
X13262440Y72274620D01*
X13208282Y72235273D01*
X13208282Y72235272D01*
X13840591Y71602963D01*
X13777007Y71585925D01*
X13662993Y71520099D01*
X13569901Y71427007D01*
X13504075Y71312993D01*
X13487037Y71249409D01*
X12854728Y71881718D01*
X12854727Y71881718D01*
X12815380Y71827560D01*
X12810483Y71817949D01*
X12762506Y71767155D01*
X12694684Y71750362D01*
X12628550Y71772902D01*
X12589516Y71817952D01*
X12584626Y71827548D01*
X12545270Y71881718D01*
X12545269Y71881718D01*
X11912962Y71249410D01*
X11895925Y71312993D01*
X11830099Y71427007D01*
X11737007Y71520099D01*
X11622993Y71585925D01*
X11559409Y71602963D01*
X12191716Y72235272D01*
X12137547Y72274627D01*
X12137547Y72274628D01*
X12128500Y72279237D01*
X12077706Y72327212D01*
X12060912Y72395034D01*
X12083451Y72461168D01*
X12128508Y72500207D01*
X12137816Y72504949D01*
X12217007Y72562485D01*
X12309786Y72629891D01*
X12309788Y72629894D01*
X12309792Y72629896D01*
X12460104Y72780208D01*
X12460106Y72780212D01*
X12460109Y72780214D01*
X12585048Y72952180D01*
X12585047Y72952180D01*
X12585051Y72952184D01*
X12589514Y72960946D01*
X12637488Y73011741D01*
X12705308Y73028537D01*
X12771444Y73006001D01*
G37*
%TD.AperFunction*%
%TA.AperFunction,Conductor*%
G36*
X13504075Y86167007D02*
G01*
X13569901Y86052993D01*
X13662993Y85959901D01*
X13777007Y85894075D01*
X13840590Y85877038D01*
X13208282Y85244731D01*
X13208282Y85244730D01*
X13262452Y85205374D01*
X13262451Y85205374D01*
X13271495Y85200766D01*
X13322292Y85152792D01*
X13339087Y85084971D01*
X13316550Y85018836D01*
X13271499Y84979798D01*
X13262182Y84975051D01*
X13090213Y84850110D01*
X12939890Y84699787D01*
X12814949Y84527818D01*
X12810484Y84519054D01*
X12762509Y84468258D01*
X12694688Y84451464D01*
X12628553Y84474002D01*
X12589516Y84519054D01*
X12585050Y84527818D01*
X12460109Y84699787D01*
X12309786Y84850110D01*
X12137820Y84975049D01*
X12129600Y84979237D01*
X12129054Y84979515D01*
X12078259Y85027488D01*
X12061463Y85095308D01*
X12083999Y85161444D01*
X12129054Y85200485D01*
X12137816Y85204949D01*
X12192572Y85244731D01*
X12309786Y85329891D01*
X12309788Y85329894D01*
X12309792Y85329896D01*
X12460104Y85480208D01*
X12460106Y85480212D01*
X12460109Y85480214D01*
X12545890Y85598283D01*
X12585051Y85652184D01*
X12589793Y85661492D01*
X12637763Y85712289D01*
X12705583Y85729089D01*
X12771719Y85706555D01*
X12810763Y85661500D01*
X12815373Y85652453D01*
X12854728Y85598284D01*
X13487037Y86230592D01*
X13504075Y86167007D01*
G37*
%TD.AperFunction*%
%TA.AperFunction,Conductor*%
G36*
X12771444Y88246001D02*
G01*
X12810486Y88200944D01*
X12814951Y88192180D01*
X12939890Y88020214D01*
X13090213Y87869891D01*
X13262179Y87744952D01*
X13262181Y87744951D01*
X13262184Y87744949D01*
X13271493Y87740206D01*
X13322290Y87692234D01*
X13339087Y87624413D01*
X13316552Y87558278D01*
X13271505Y87519240D01*
X13262446Y87514624D01*
X13262440Y87514620D01*
X13208282Y87475273D01*
X13208282Y87475272D01*
X13840591Y86842963D01*
X13777007Y86825925D01*
X13662993Y86760099D01*
X13569901Y86667007D01*
X13504075Y86552993D01*
X13487037Y86489409D01*
X12854728Y87121718D01*
X12854727Y87121718D01*
X12815380Y87067560D01*
X12815376Y87067554D01*
X12810760Y87058495D01*
X12762781Y87007703D01*
X12694959Y86990913D01*
X12628826Y87013457D01*
X12589794Y87058507D01*
X12585051Y87067816D01*
X12585049Y87067819D01*
X12585048Y87067821D01*
X12460109Y87239787D01*
X12309786Y87390110D01*
X12137820Y87515049D01*
X12129600Y87519237D01*
X12129054Y87519515D01*
X12078259Y87567488D01*
X12061463Y87635308D01*
X12083999Y87701444D01*
X12129054Y87740485D01*
X12137816Y87744949D01*
X12159789Y87760914D01*
X12309786Y87869891D01*
X12309788Y87869894D01*
X12309792Y87869896D01*
X12460104Y88020208D01*
X12460106Y88020212D01*
X12460109Y88020214D01*
X12569086Y88170211D01*
X12585051Y88192184D01*
X12589514Y88200946D01*
X12637488Y88251741D01*
X12705308Y88268537D01*
X12771444Y88246001D01*
G37*
%TD.AperFunction*%
%TA.AperFunction,Conductor*%
G36*
X74464075Y70927007D02*
G01*
X74529901Y70812993D01*
X74622993Y70719901D01*
X74737007Y70654075D01*
X74800590Y70637038D01*
X74168282Y70004731D01*
X74168282Y70004730D01*
X74222452Y69965374D01*
X74222451Y69965374D01*
X74231495Y69960766D01*
X74282292Y69912792D01*
X74299087Y69844971D01*
X74276550Y69778836D01*
X74231499Y69739798D01*
X74222182Y69735051D01*
X74050213Y69610110D01*
X73899890Y69459787D01*
X73774949Y69287818D01*
X73770484Y69279054D01*
X73722509Y69228258D01*
X73654688Y69211464D01*
X73588553Y69234002D01*
X73549516Y69279054D01*
X73545050Y69287818D01*
X73420109Y69459787D01*
X73269786Y69610110D01*
X73097820Y69735049D01*
X73097115Y69735409D01*
X73089054Y69739515D01*
X73038259Y69787488D01*
X73021463Y69855308D01*
X73043999Y69921444D01*
X73089054Y69960485D01*
X73097816Y69964949D01*
X73152572Y70004731D01*
X73269786Y70089891D01*
X73269788Y70089894D01*
X73269792Y70089896D01*
X73420104Y70240208D01*
X73420106Y70240212D01*
X73420109Y70240214D01*
X73487515Y70332993D01*
X73545051Y70412184D01*
X73549793Y70421492D01*
X73597763Y70472289D01*
X73665583Y70489089D01*
X73731719Y70466555D01*
X73770763Y70421500D01*
X73775373Y70412453D01*
X73814728Y70358284D01*
X74447037Y70990592D01*
X74464075Y70927007D01*
G37*
%TD.AperFunction*%
%TA.AperFunction,Conductor*%
G36*
X73731444Y73006001D02*
G01*
X73770486Y72960944D01*
X73774951Y72952180D01*
X73899890Y72780214D01*
X74050213Y72629891D01*
X74222179Y72504952D01*
X74222181Y72504951D01*
X74222184Y72504949D01*
X74231493Y72500206D01*
X74282290Y72452234D01*
X74299087Y72384413D01*
X74276552Y72318278D01*
X74231505Y72279240D01*
X74222446Y72274624D01*
X74222440Y72274620D01*
X74168282Y72235273D01*
X74168282Y72235272D01*
X74800591Y71602963D01*
X74737007Y71585925D01*
X74622993Y71520099D01*
X74529901Y71427007D01*
X74464075Y71312993D01*
X74447037Y71249409D01*
X73814728Y71881718D01*
X73814727Y71881718D01*
X73775380Y71827560D01*
X73775376Y71827554D01*
X73770760Y71818495D01*
X73722781Y71767703D01*
X73654959Y71750913D01*
X73588826Y71773457D01*
X73549794Y71818507D01*
X73545051Y71827816D01*
X73545049Y71827819D01*
X73545048Y71827821D01*
X73420109Y71999787D01*
X73269786Y72150110D01*
X73097820Y72275049D01*
X73089600Y72279237D01*
X73089054Y72279515D01*
X73038259Y72327488D01*
X73021463Y72395308D01*
X73043999Y72461444D01*
X73089054Y72500485D01*
X73097816Y72504949D01*
X73119789Y72520914D01*
X73269786Y72629891D01*
X73269788Y72629894D01*
X73269792Y72629896D01*
X73420104Y72780208D01*
X73420106Y72780212D01*
X73420109Y72780214D01*
X73545048Y72952180D01*
X73545047Y72952180D01*
X73545051Y72952184D01*
X73549514Y72960946D01*
X73597488Y73011741D01*
X73665308Y73028537D01*
X73731444Y73006001D01*
G37*
%TD.AperFunction*%
%TA.AperFunction,Conductor*%
G36*
X73505270Y83058283D02*
G01*
X73505270Y83058284D01*
X73544622Y83112445D01*
X73549232Y83121493D01*
X73597205Y83172291D01*
X73665025Y83189088D01*
X73731161Y83166553D01*
X73770204Y83121496D01*
X73774949Y83112183D01*
X73899890Y82940214D01*
X74050213Y82789891D01*
X74222182Y82664950D01*
X74230946Y82660484D01*
X74281742Y82612509D01*
X74298536Y82544688D01*
X74275998Y82478553D01*
X74230946Y82439516D01*
X74222182Y82435051D01*
X74050213Y82310110D01*
X73899890Y82159787D01*
X73774949Y81987818D01*
X73770484Y81979054D01*
X73722509Y81928258D01*
X73654688Y81911464D01*
X73588553Y81934002D01*
X73549516Y81979054D01*
X73545050Y81987818D01*
X73420109Y82159787D01*
X73269786Y82310110D01*
X73097817Y82435051D01*
X73088504Y82439796D01*
X73037707Y82487770D01*
X73020912Y82555591D01*
X73043449Y82621726D01*
X73088507Y82660768D01*
X73097555Y82665378D01*
X73151716Y82704730D01*
X73151717Y82704730D01*
X72519408Y83337038D01*
X72582993Y83354075D01*
X72697007Y83419901D01*
X72790099Y83512993D01*
X72855925Y83627007D01*
X72872962Y83690591D01*
X73505270Y83058283D01*
G37*
%TD.AperFunction*%
%TA.AperFunction,Conductor*%
G36*
X73731444Y85706001D02*
G01*
X73770486Y85660944D01*
X73774951Y85652180D01*
X73899890Y85480214D01*
X74050213Y85329891D01*
X74222182Y85204950D01*
X74230946Y85200484D01*
X74281742Y85152509D01*
X74298536Y85084688D01*
X74275998Y85018553D01*
X74230946Y84979516D01*
X74222182Y84975051D01*
X74050213Y84850110D01*
X73899890Y84699787D01*
X73774949Y84527818D01*
X73770202Y84518501D01*
X73722227Y84467707D01*
X73654405Y84450913D01*
X73588271Y84473452D01*
X73549234Y84518505D01*
X73544626Y84527548D01*
X73505270Y84581718D01*
X73505269Y84581718D01*
X72872962Y83949410D01*
X72855925Y84012993D01*
X72790099Y84127007D01*
X72697007Y84220099D01*
X72582993Y84285925D01*
X72519409Y84302963D01*
X73151716Y84935272D01*
X73097547Y84974627D01*
X73097547Y84974628D01*
X73088500Y84979237D01*
X73037706Y85027212D01*
X73020912Y85095034D01*
X73043451Y85161168D01*
X73088508Y85200207D01*
X73097816Y85204949D01*
X73177007Y85262485D01*
X73269786Y85329891D01*
X73269788Y85329894D01*
X73269792Y85329896D01*
X73420104Y85480208D01*
X73420106Y85480212D01*
X73420109Y85480214D01*
X73529086Y85630211D01*
X73545051Y85652184D01*
X73549514Y85660946D01*
X73597488Y85711741D01*
X73665308Y85728537D01*
X73731444Y85706001D01*
G37*
%TD.AperFunction*%
%TA.AperFunction,Conductor*%
G36*
X113043039Y139479815D02*
G01*
X113088794Y139427011D01*
X113100000Y139375500D01*
X113100000Y130800000D01*
X119240147Y130800000D01*
X119269586Y130791356D01*
X119299572Y130784833D01*
X119302803Y130781602D01*
X119307186Y130780315D01*
X119327274Y130757132D01*
X119348978Y130735429D01*
X119349949Y130730964D01*
X119352941Y130727511D01*
X119357308Y130697140D01*
X119363831Y130667156D01*
X119362499Y130661035D01*
X119362885Y130658353D01*
X119356330Y130632669D01*
X119356204Y130632331D01*
X119345025Y130602357D01*
X119343806Y130599089D01*
X119301935Y130543154D01*
X119236471Y130518736D01*
X119227623Y130518420D01*
X110180200Y130518420D01*
X110113161Y130538105D01*
X110100634Y130547414D01*
X109927820Y130672969D01*
X109738414Y130769476D01*
X109738413Y130769477D01*
X109738412Y130769477D01*
X109536243Y130835166D01*
X109536241Y130835167D01*
X109536240Y130835167D01*
X109374957Y130860712D01*
X109326287Y130868420D01*
X109113713Y130868420D01*
X109065042Y130860712D01*
X108903760Y130835167D01*
X108701585Y130769476D01*
X108512179Y130672969D01*
X108340215Y130548031D01*
X108226673Y130434489D01*
X108165350Y130401005D01*
X108095658Y130405989D01*
X108039725Y130447861D01*
X108022810Y130478838D01*
X107973797Y130610249D01*
X107973793Y130610256D01*
X107887547Y130725465D01*
X107887544Y130725468D01*
X107772335Y130811714D01*
X107772328Y130811718D01*
X107637482Y130862012D01*
X107637483Y130862012D01*
X107577883Y130868419D01*
X107577881Y130868420D01*
X107577873Y130868420D01*
X107577864Y130868420D01*
X105782129Y130868420D01*
X105782123Y130868419D01*
X105722516Y130862012D01*
X105587671Y130811718D01*
X105587664Y130811714D01*
X105472455Y130725468D01*
X105472452Y130725465D01*
X105386206Y130610256D01*
X105386202Y130610249D01*
X105335908Y130475403D01*
X105329501Y130415804D01*
X105329500Y130415785D01*
X105329500Y128620050D01*
X105329501Y128620044D01*
X105335908Y128560437D01*
X105386202Y128425592D01*
X105386206Y128425585D01*
X105472452Y128310376D01*
X105472455Y128310373D01*
X105587664Y128224127D01*
X105587671Y128224123D01*
X105719082Y128175110D01*
X105775016Y128133239D01*
X105799433Y128067775D01*
X105784582Y127999502D01*
X105763431Y127971247D01*
X105649889Y127857705D01*
X105524951Y127685741D01*
X105428444Y127496335D01*
X105362753Y127294160D01*
X105332997Y127106287D01*
X105329500Y127084207D01*
X105329500Y126871633D01*
X105362754Y126661677D01*
X105421269Y126481586D01*
X105428444Y126459506D01*
X105524951Y126270100D01*
X105649890Y126098134D01*
X105800213Y125947811D01*
X105972182Y125822870D01*
X105980946Y125818404D01*
X106031742Y125770429D01*
X106048536Y125702608D01*
X106025998Y125636473D01*
X105980946Y125597436D01*
X105972182Y125592971D01*
X105800213Y125468030D01*
X105649890Y125317707D01*
X105524951Y125145741D01*
X105428444Y124956335D01*
X105362753Y124754160D01*
X105332997Y124566287D01*
X105329500Y124544207D01*
X105329500Y124331633D01*
X105362754Y124121677D01*
X105421269Y123941586D01*
X105428444Y123919506D01*
X105524951Y123730100D01*
X105649890Y123558134D01*
X105800213Y123407811D01*
X105972182Y123282870D01*
X105980946Y123278404D01*
X106031742Y123230429D01*
X106048536Y123162608D01*
X106025998Y123096473D01*
X105980946Y123057436D01*
X105972182Y123052971D01*
X105800213Y122928030D01*
X105649890Y122777707D01*
X105524951Y122605741D01*
X105428444Y122416335D01*
X105362753Y122214160D01*
X105332997Y122026287D01*
X105329500Y122004207D01*
X105329500Y121791633D01*
X105362754Y121581677D01*
X105421269Y121401586D01*
X105428444Y121379506D01*
X105524951Y121190100D01*
X105649890Y121018134D01*
X105800213Y120867811D01*
X105972182Y120742870D01*
X105980946Y120738404D01*
X106031742Y120690429D01*
X106048536Y120622608D01*
X106025998Y120556473D01*
X105980946Y120517436D01*
X105972182Y120512971D01*
X105800213Y120388030D01*
X105649890Y120237707D01*
X105524951Y120065741D01*
X105428444Y119876335D01*
X105362753Y119674160D01*
X105332997Y119486287D01*
X105329500Y119464207D01*
X105329500Y119251633D01*
X105362754Y119041677D01*
X105421269Y118861586D01*
X105428444Y118839506D01*
X105524951Y118650100D01*
X105649890Y118478134D01*
X105800213Y118327811D01*
X105972182Y118202870D01*
X105980946Y118198404D01*
X106031742Y118150429D01*
X106048536Y118082608D01*
X106025998Y118016473D01*
X105980946Y117977436D01*
X105972182Y117972971D01*
X105800213Y117848030D01*
X105649890Y117697707D01*
X105524951Y117525741D01*
X105428444Y117336335D01*
X105362753Y117134160D01*
X105332997Y116946287D01*
X105329500Y116924207D01*
X105329500Y116711633D01*
X105362754Y116501677D01*
X105421269Y116321586D01*
X105428444Y116299506D01*
X105524951Y116110100D01*
X105649890Y115938134D01*
X105800213Y115787811D01*
X105972182Y115662870D01*
X105980946Y115658404D01*
X106031742Y115610429D01*
X106048536Y115542608D01*
X106025998Y115476473D01*
X105980946Y115437436D01*
X105972182Y115432971D01*
X105800213Y115308030D01*
X105649890Y115157707D01*
X105524951Y114985741D01*
X105428444Y114796335D01*
X105362753Y114594160D01*
X105332997Y114406287D01*
X105329500Y114384207D01*
X105329500Y114171633D01*
X105362754Y113961677D01*
X105421269Y113781586D01*
X105428444Y113759506D01*
X105524951Y113570100D01*
X105649890Y113398134D01*
X105800213Y113247811D01*
X105972182Y113122870D01*
X105980946Y113118404D01*
X106031742Y113070429D01*
X106048536Y113002608D01*
X106025998Y112936473D01*
X105980946Y112897436D01*
X105972182Y112892971D01*
X105800213Y112768030D01*
X105649890Y112617707D01*
X105524951Y112445741D01*
X105428444Y112256335D01*
X105362753Y112054160D01*
X105358888Y112029755D01*
X105329500Y111844207D01*
X105329500Y111631633D01*
X105339534Y111568276D01*
X105358888Y111446081D01*
X105362754Y111421677D01*
X105426303Y111226093D01*
X105428444Y111219506D01*
X105524951Y111030100D01*
X105649890Y110858134D01*
X105800213Y110707811D01*
X105972182Y110582870D01*
X105980946Y110578404D01*
X106031742Y110530429D01*
X106048536Y110462608D01*
X106025998Y110396473D01*
X105980946Y110357436D01*
X105972182Y110352971D01*
X105800213Y110228030D01*
X105649890Y110077707D01*
X105524951Y109905741D01*
X105428444Y109716335D01*
X105362753Y109514160D01*
X105348703Y109425452D01*
X105329500Y109304207D01*
X105329500Y109091633D01*
X105362754Y108881677D01*
X105421269Y108701586D01*
X105428444Y108679506D01*
X105524951Y108490100D01*
X105649890Y108318134D01*
X105800213Y108167811D01*
X105972182Y108042870D01*
X105980946Y108038404D01*
X106031742Y107990429D01*
X106048536Y107922608D01*
X106025998Y107856473D01*
X105980946Y107817436D01*
X105972182Y107812971D01*
X105800213Y107688030D01*
X105649890Y107537707D01*
X105524951Y107365741D01*
X105428444Y107176335D01*
X105362753Y106974160D01*
X105332997Y106786287D01*
X105329500Y106764207D01*
X105329500Y106551633D01*
X105362754Y106341677D01*
X105421269Y106161586D01*
X105428444Y106139506D01*
X105524951Y105950100D01*
X105649890Y105778134D01*
X105800213Y105627811D01*
X105972182Y105502870D01*
X105980946Y105498404D01*
X106031742Y105450429D01*
X106048536Y105382608D01*
X106025998Y105316473D01*
X105980946Y105277436D01*
X105972182Y105272971D01*
X105800213Y105148030D01*
X105649890Y104997707D01*
X105524951Y104825741D01*
X105428444Y104636335D01*
X105362753Y104434160D01*
X105335520Y104262218D01*
X105329500Y104224207D01*
X105329500Y104011633D01*
X105362754Y103801677D01*
X105421269Y103621586D01*
X105428444Y103599506D01*
X105524951Y103410100D01*
X105649890Y103238134D01*
X105800213Y103087811D01*
X105972182Y102962870D01*
X105980946Y102958404D01*
X106031742Y102910429D01*
X106048536Y102842608D01*
X106025998Y102776473D01*
X105980946Y102737436D01*
X105972182Y102732971D01*
X105800213Y102608030D01*
X105649892Y102457709D01*
X105593097Y102379535D01*
X105537767Y102336869D01*
X105492779Y102328420D01*
X104784309Y102328420D01*
X104717270Y102348105D01*
X104696628Y102364739D01*
X104186819Y102874549D01*
X104153334Y102935872D01*
X104150500Y102962230D01*
X104150500Y115173921D01*
X104139770Y115227861D01*
X104125321Y115300500D01*
X104121659Y115318912D01*
X104088518Y115398920D01*
X104072565Y115437434D01*
X104065085Y115455494D01*
X104065083Y115455497D01*
X103982954Y115578412D01*
X103982953Y115578413D01*
X103982951Y115578416D01*
X103878416Y115682951D01*
X89316819Y130244549D01*
X89283334Y130305872D01*
X89280500Y130332230D01*
X89280500Y133412780D01*
X89300185Y133479819D01*
X89331614Y133513098D01*
X89409792Y133569896D01*
X89560104Y133720208D01*
X89560106Y133720212D01*
X89560109Y133720214D01*
X89685048Y133892180D01*
X89685047Y133892180D01*
X89685051Y133892184D01*
X89689514Y133900946D01*
X89737488Y133951741D01*
X89805308Y133968537D01*
X89871444Y133946001D01*
X89910486Y133900944D01*
X89914951Y133892180D01*
X90039890Y133720214D01*
X90190213Y133569891D01*
X90362179Y133444952D01*
X90362181Y133444951D01*
X90362184Y133444949D01*
X90551588Y133348443D01*
X90753757Y133282754D01*
X90963713Y133249500D01*
X90963714Y133249500D01*
X91176286Y133249500D01*
X91176287Y133249500D01*
X91386243Y133282754D01*
X91588412Y133348443D01*
X91777816Y133444949D01*
X91864138Y133507665D01*
X91949786Y133569891D01*
X91949788Y133569894D01*
X91949792Y133569896D01*
X92100104Y133720208D01*
X92100106Y133720212D01*
X92100109Y133720214D01*
X92185890Y133838283D01*
X92225051Y133892184D01*
X92229793Y133901492D01*
X92277763Y133952289D01*
X92345583Y133969089D01*
X92411719Y133946555D01*
X92450763Y133901500D01*
X92455373Y133892453D01*
X92494728Y133838284D01*
X93127037Y134470592D01*
X93144075Y134407007D01*
X93209901Y134292993D01*
X93302993Y134199901D01*
X93417007Y134134075D01*
X93480590Y134117038D01*
X92848282Y133484731D01*
X92848282Y133484730D01*
X92902449Y133445376D01*
X93091782Y133348905D01*
X93293870Y133283243D01*
X93503754Y133250000D01*
X93716246Y133250000D01*
X93926127Y133283243D01*
X93926130Y133283243D01*
X94128217Y133348905D01*
X94317554Y133445378D01*
X94371716Y133484730D01*
X94371717Y133484730D01*
X93739408Y134117038D01*
X93802993Y134134075D01*
X93917007Y134199901D01*
X94010099Y134292993D01*
X94075925Y134407007D01*
X94092962Y134470592D01*
X94725270Y133838283D01*
X94725270Y133838284D01*
X94764622Y133892445D01*
X94769232Y133901493D01*
X94817205Y133952291D01*
X94885025Y133969088D01*
X94951161Y133946553D01*
X94990204Y133901496D01*
X94994949Y133892183D01*
X95119890Y133720214D01*
X95270213Y133569891D01*
X95442179Y133444952D01*
X95442181Y133444951D01*
X95442184Y133444949D01*
X95631588Y133348443D01*
X95833757Y133282754D01*
X96043713Y133249500D01*
X96043714Y133249500D01*
X96256286Y133249500D01*
X96256287Y133249500D01*
X96466243Y133282754D01*
X96668412Y133348443D01*
X96857816Y133444949D01*
X96944138Y133507665D01*
X97029786Y133569891D01*
X97029788Y133569894D01*
X97029792Y133569896D01*
X97180104Y133720208D01*
X97180106Y133720212D01*
X97180109Y133720214D01*
X97305048Y133892180D01*
X97305047Y133892180D01*
X97305051Y133892184D01*
X97401557Y134081588D01*
X97467246Y134283757D01*
X97500500Y134493713D01*
X97500500Y134706287D01*
X97467246Y134916243D01*
X97401557Y135118412D01*
X97305051Y135307816D01*
X97305049Y135307819D01*
X97305048Y135307821D01*
X97180109Y135479787D01*
X97029786Y135630110D01*
X96857820Y135755049D01*
X96668414Y135851556D01*
X96668413Y135851557D01*
X96668412Y135851557D01*
X96466243Y135917246D01*
X96466241Y135917247D01*
X96466240Y135917247D01*
X96304957Y135942792D01*
X96256287Y135950500D01*
X96043713Y135950500D01*
X95995042Y135942792D01*
X95833760Y135917247D01*
X95631585Y135851556D01*
X95442179Y135755049D01*
X95270213Y135630110D01*
X95119890Y135479787D01*
X94994949Y135307818D01*
X94990202Y135298501D01*
X94942227Y135247707D01*
X94874405Y135230913D01*
X94808271Y135253452D01*
X94769234Y135298505D01*
X94764626Y135307548D01*
X94725270Y135361718D01*
X94725269Y135361718D01*
X94092962Y134729410D01*
X94075925Y134792993D01*
X94010099Y134907007D01*
X93917007Y135000099D01*
X93802993Y135065925D01*
X93739409Y135082963D01*
X94371716Y135715272D01*
X94317550Y135754625D01*
X94128217Y135851096D01*
X93926129Y135916758D01*
X93716246Y135950000D01*
X93503754Y135950000D01*
X93293872Y135916758D01*
X93293869Y135916758D01*
X93091782Y135851096D01*
X92902439Y135754620D01*
X92848282Y135715273D01*
X92848282Y135715272D01*
X93480591Y135082963D01*
X93417007Y135065925D01*
X93302993Y135000099D01*
X93209901Y134907007D01*
X93144075Y134792993D01*
X93127037Y134729410D01*
X92494728Y135361718D01*
X92494727Y135361718D01*
X92455380Y135307560D01*
X92455376Y135307554D01*
X92450760Y135298495D01*
X92402781Y135247703D01*
X92334959Y135230913D01*
X92268826Y135253457D01*
X92229794Y135298507D01*
X92225051Y135307816D01*
X92225049Y135307819D01*
X92225048Y135307821D01*
X92100109Y135479787D01*
X92003498Y135576398D01*
X91949792Y135630104D01*
X91868226Y135689365D01*
X91865017Y135692045D01*
X91847826Y135717752D01*
X91828949Y135742233D01*
X91827969Y135747447D01*
X91826179Y135750125D01*
X91826040Y135757720D01*
X91820500Y135787221D01*
X91820500Y136803921D01*
X91791659Y136948908D01*
X91791658Y136948909D01*
X91791658Y136948913D01*
X91791415Y136949500D01*
X91735087Y137085489D01*
X91735080Y137085502D01*
X91652952Y137208415D01*
X91652951Y137208416D01*
X91548416Y137312951D01*
X90578421Y138282948D01*
X90578414Y138282954D01*
X90504729Y138332188D01*
X90504729Y138332187D01*
X90455491Y138365087D01*
X90318917Y138421657D01*
X90318907Y138421660D01*
X90173920Y138450500D01*
X90173918Y138450500D01*
X82326082Y138450500D01*
X82326080Y138450500D01*
X82181092Y138421660D01*
X82181082Y138421657D01*
X82044511Y138365088D01*
X82044498Y138365081D01*
X81921584Y138282952D01*
X81921580Y138282949D01*
X79717052Y136078422D01*
X79717046Y136078415D01*
X79670226Y136008343D01*
X79670227Y136008342D01*
X79634914Y135955492D01*
X79578343Y135818918D01*
X79578340Y135818908D01*
X79549500Y135673921D01*
X79549500Y135673918D01*
X79549500Y129726082D01*
X79549500Y129726080D01*
X79549499Y129726080D01*
X79578340Y129581093D01*
X79578342Y129581087D01*
X79634914Y129444508D01*
X79667812Y129395273D01*
X79667813Y129395270D01*
X79717046Y129321586D01*
X79717052Y129321579D01*
X99613181Y109425452D01*
X99646666Y109364129D01*
X99649500Y109337771D01*
X99649500Y97326082D01*
X99649500Y97326080D01*
X99649499Y97326080D01*
X99678340Y97181093D01*
X99678343Y97181083D01*
X99734913Y97044510D01*
X99734916Y97044505D01*
X99753741Y97016330D01*
X99753742Y97016330D01*
X99817048Y96921584D01*
X103259129Y93479504D01*
X103363664Y93374969D01*
X103363665Y93374968D01*
X103486578Y93292840D01*
X103486591Y93292833D01*
X103589749Y93250104D01*
X103623167Y93236262D01*
X103623171Y93236262D01*
X103623172Y93236261D01*
X103768159Y93207420D01*
X103768162Y93207420D01*
X105492779Y93207420D01*
X105559818Y93187735D01*
X105593097Y93156305D01*
X105649892Y93078132D01*
X105800213Y92927811D01*
X105972182Y92802870D01*
X105980946Y92798404D01*
X106031742Y92750429D01*
X106048536Y92682608D01*
X106025998Y92616473D01*
X105980946Y92577436D01*
X105972182Y92572971D01*
X105800213Y92448030D01*
X105649890Y92297707D01*
X105524951Y92125741D01*
X105428444Y91936335D01*
X105362753Y91734160D01*
X105332997Y91546287D01*
X105329500Y91524207D01*
X105329500Y91311633D01*
X105362754Y91101677D01*
X105421269Y90921586D01*
X105428444Y90899506D01*
X105524951Y90710100D01*
X105649890Y90538134D01*
X105800213Y90387811D01*
X105972182Y90262870D01*
X105980946Y90258404D01*
X106031742Y90210429D01*
X106048536Y90142608D01*
X106025998Y90076473D01*
X105980946Y90037436D01*
X105972182Y90032971D01*
X105800213Y89908030D01*
X105649890Y89757707D01*
X105524951Y89585741D01*
X105428444Y89396335D01*
X105362753Y89194160D01*
X105332997Y89006287D01*
X105329500Y88984207D01*
X105329500Y88771633D01*
X105362754Y88561677D01*
X105421269Y88381586D01*
X105428444Y88359506D01*
X105524951Y88170100D01*
X105649890Y87998134D01*
X105800213Y87847811D01*
X105972182Y87722870D01*
X105980946Y87718404D01*
X106031742Y87670429D01*
X106048536Y87602608D01*
X106025998Y87536473D01*
X105980946Y87497436D01*
X105972182Y87492971D01*
X105800213Y87368030D01*
X105649890Y87217707D01*
X105524951Y87045741D01*
X105428444Y86856335D01*
X105362753Y86654160D01*
X105346730Y86552993D01*
X105329500Y86444207D01*
X105329500Y86231633D01*
X105362754Y86021677D01*
X105421269Y85841586D01*
X105428444Y85819506D01*
X105524951Y85630100D01*
X105649890Y85458134D01*
X105800213Y85307811D01*
X105972182Y85182870D01*
X105980946Y85178404D01*
X106031742Y85130429D01*
X106048536Y85062608D01*
X106025998Y84996473D01*
X105980946Y84957436D01*
X105972182Y84952971D01*
X105800213Y84828030D01*
X105649890Y84677707D01*
X105524951Y84505741D01*
X105428444Y84316335D01*
X105362753Y84114160D01*
X105346730Y84012993D01*
X105329500Y83904207D01*
X105329500Y83691633D01*
X105362754Y83481677D01*
X105421269Y83301586D01*
X105428444Y83279506D01*
X105524951Y83090100D01*
X105649890Y82918134D01*
X105800213Y82767811D01*
X105972182Y82642870D01*
X105980946Y82638404D01*
X106031742Y82590429D01*
X106048536Y82522608D01*
X106025998Y82456473D01*
X105980946Y82417436D01*
X105972182Y82412971D01*
X105800213Y82288030D01*
X105649890Y82137707D01*
X105524951Y81965741D01*
X105428444Y81776335D01*
X105362753Y81574160D01*
X105332997Y81386287D01*
X105329500Y81364207D01*
X105329500Y81151633D01*
X105362754Y80941677D01*
X105421269Y80761586D01*
X105428444Y80739506D01*
X105524951Y80550100D01*
X105649890Y80378134D01*
X105800213Y80227811D01*
X105972182Y80102870D01*
X105980946Y80098404D01*
X106031742Y80050429D01*
X106048536Y79982608D01*
X106025998Y79916473D01*
X105980946Y79877436D01*
X105972182Y79872971D01*
X105800213Y79748030D01*
X105649890Y79597707D01*
X105524951Y79425741D01*
X105428444Y79236335D01*
X105362753Y79034160D01*
X105329500Y78824207D01*
X105329500Y78611634D01*
X105362735Y78401793D01*
X105362754Y78401677D01*
X105421269Y78221586D01*
X105428444Y78199506D01*
X105524951Y78010100D01*
X105649890Y77838134D01*
X105800213Y77687811D01*
X105972179Y77562872D01*
X105972181Y77562871D01*
X105972184Y77562869D01*
X105981493Y77558126D01*
X106032290Y77510154D01*
X106049087Y77442333D01*
X106026552Y77376198D01*
X105981505Y77337160D01*
X105972446Y77332544D01*
X105972440Y77332540D01*
X105918282Y77293193D01*
X105918282Y77293192D01*
X106550591Y76660883D01*
X106487007Y76643845D01*
X106372993Y76578019D01*
X106279901Y76484927D01*
X106214075Y76370913D01*
X106197037Y76307329D01*
X105564728Y76939638D01*
X105564727Y76939638D01*
X105525380Y76885481D01*
X105428904Y76696138D01*
X105363242Y76494051D01*
X105363242Y76494048D01*
X105330000Y76284167D01*
X105330000Y76071674D01*
X105363242Y75861793D01*
X105363242Y75861790D01*
X105428904Y75659703D01*
X105525375Y75470370D01*
X105564728Y75416204D01*
X106197037Y76048512D01*
X106214075Y75984927D01*
X106279901Y75870913D01*
X106372993Y75777821D01*
X106487007Y75711995D01*
X106550590Y75694958D01*
X105918282Y75062651D01*
X105918282Y75062650D01*
X105972449Y75023296D01*
X106161782Y74926825D01*
X106363870Y74861163D01*
X106573754Y74827920D01*
X106786246Y74827920D01*
X106996127Y74861163D01*
X106996130Y74861163D01*
X107198217Y74926825D01*
X107387554Y75023298D01*
X107441716Y75062650D01*
X107441717Y75062650D01*
X106809408Y75694958D01*
X106872993Y75711995D01*
X106987007Y75777821D01*
X107080099Y75870913D01*
X107145925Y75984927D01*
X107162962Y76048512D01*
X107795270Y75416203D01*
X107795270Y75416204D01*
X107834622Y75470366D01*
X107839514Y75479966D01*
X107887488Y75530763D01*
X107955308Y75547559D01*
X108021444Y75525023D01*
X108060486Y75479966D01*
X108065375Y75470370D01*
X108104728Y75416204D01*
X108737037Y76048512D01*
X108754075Y75984927D01*
X108819901Y75870913D01*
X108912993Y75777821D01*
X109027007Y75711995D01*
X109090590Y75694958D01*
X108458282Y75062651D01*
X108458282Y75062650D01*
X108512449Y75023296D01*
X108701782Y74926825D01*
X108903870Y74861163D01*
X109113754Y74827920D01*
X109326246Y74827920D01*
X109536127Y74861163D01*
X109536130Y74861163D01*
X109738217Y74926825D01*
X109927554Y75023298D01*
X109981716Y75062650D01*
X109981717Y75062650D01*
X109349408Y75694958D01*
X109412993Y75711995D01*
X109527007Y75777821D01*
X109620099Y75870913D01*
X109685925Y75984927D01*
X109702962Y76048512D01*
X110335270Y75416203D01*
X110335270Y75416204D01*
X110374622Y75470366D01*
X110471095Y75659703D01*
X110536757Y75861790D01*
X110536757Y75861793D01*
X110570000Y76071674D01*
X110570000Y76284162D01*
X110568803Y76291717D01*
X110568803Y76291721D01*
X110536757Y76494048D01*
X110536757Y76494051D01*
X110471095Y76696138D01*
X110374624Y76885471D01*
X110335270Y76939638D01*
X110335269Y76939638D01*
X109702962Y76307330D01*
X109685925Y76370913D01*
X109620099Y76484927D01*
X109527007Y76578019D01*
X109412993Y76643845D01*
X109349409Y76660883D01*
X109981716Y77293192D01*
X109927547Y77332547D01*
X109927547Y77332548D01*
X109918500Y77337157D01*
X109867706Y77385132D01*
X109850912Y77452954D01*
X109873451Y77519088D01*
X109918508Y77558127D01*
X109927816Y77562869D01*
X110026187Y77634339D01*
X110103734Y77690679D01*
X110104364Y77689812D01*
X110163419Y77716279D01*
X110180200Y77717420D01*
X119719561Y77717420D01*
X119739128Y77711675D01*
X119759507Y77710810D01*
X119782298Y77698999D01*
X119786600Y77697735D01*
X119790961Y77694800D01*
X119791777Y77694226D01*
X119942184Y77584949D01*
X119959371Y77576192D01*
X119966601Y77571100D01*
X119983057Y77550398D01*
X120002290Y77532234D01*
X120004460Y77523472D01*
X120010077Y77516405D01*
X120012728Y77490086D01*
X120019087Y77464413D01*
X120016175Y77455870D01*
X120017081Y77446887D01*
X120005082Y77423313D01*
X119996552Y77398278D01*
X119989017Y77391749D01*
X119985388Y77384618D01*
X119971270Y77376370D01*
X119951505Y77359240D01*
X119942446Y77354624D01*
X119942440Y77354620D01*
X119888282Y77315273D01*
X119888282Y77315272D01*
X120520591Y76682963D01*
X120457007Y76665925D01*
X120342993Y76600099D01*
X120249901Y76507007D01*
X120184075Y76392993D01*
X120167037Y76329409D01*
X119534728Y76961718D01*
X119534727Y76961718D01*
X119495380Y76907561D01*
X119398904Y76718218D01*
X119333242Y76516131D01*
X119333242Y76516128D01*
X119300000Y76306247D01*
X119300000Y76093754D01*
X119333242Y75883873D01*
X119333242Y75883870D01*
X119398904Y75681783D01*
X119495375Y75492450D01*
X119534728Y75438284D01*
X120167037Y76070592D01*
X120184075Y76007007D01*
X120249901Y75892993D01*
X120342993Y75799901D01*
X120457007Y75734075D01*
X120520590Y75717038D01*
X119888282Y75084731D01*
X119888282Y75084730D01*
X119942449Y75045376D01*
X120131782Y74948905D01*
X120333870Y74883243D01*
X120543754Y74850000D01*
X120756246Y74850000D01*
X120966127Y74883243D01*
X120966130Y74883243D01*
X121168217Y74948905D01*
X121357554Y75045378D01*
X121411716Y75084730D01*
X121411717Y75084730D01*
X120779408Y75717038D01*
X120842993Y75734075D01*
X120957007Y75799901D01*
X121050099Y75892993D01*
X121115925Y76007007D01*
X121132962Y76070592D01*
X121765270Y75438283D01*
X121765270Y75438284D01*
X121804622Y75492446D01*
X121901095Y75681783D01*
X121966757Y75883870D01*
X121966757Y75883873D01*
X122000000Y76093754D01*
X122000000Y76306247D01*
X121966757Y76516128D01*
X121966757Y76516131D01*
X121901095Y76718218D01*
X121804624Y76907551D01*
X121765270Y76961718D01*
X121765269Y76961718D01*
X121132962Y76329410D01*
X121115925Y76392993D01*
X121050099Y76507007D01*
X120957007Y76600099D01*
X120842993Y76665925D01*
X120779409Y76682963D01*
X121411716Y77315272D01*
X121357547Y77354627D01*
X121357547Y77354628D01*
X121348500Y77359237D01*
X121297706Y77407212D01*
X121280912Y77475034D01*
X121303451Y77541168D01*
X121348508Y77580207D01*
X121357816Y77584949D01*
X121456187Y77656419D01*
X121529786Y77709891D01*
X121529788Y77709894D01*
X121529792Y77709896D01*
X121680104Y77860208D01*
X121680106Y77860212D01*
X121680109Y77860214D01*
X121789202Y78010370D01*
X121805051Y78032184D01*
X121901557Y78221588D01*
X121967246Y78423757D01*
X122000500Y78633713D01*
X122000500Y78846287D01*
X121967246Y79056243D01*
X121901557Y79258412D01*
X121805051Y79447816D01*
X121805049Y79447819D01*
X121805048Y79447821D01*
X121680109Y79619787D01*
X121529786Y79770110D01*
X121357820Y79895049D01*
X121349600Y79899237D01*
X121349054Y79899515D01*
X121298259Y79947488D01*
X121281463Y80015308D01*
X121303999Y80081444D01*
X121349054Y80120485D01*
X121357816Y80124949D01*
X121379789Y80140914D01*
X121529786Y80249891D01*
X121529788Y80249894D01*
X121529792Y80249896D01*
X121680104Y80400208D01*
X121680106Y80400212D01*
X121680109Y80400214D01*
X121789086Y80550211D01*
X121805051Y80572184D01*
X121901557Y80761588D01*
X121967246Y80963757D01*
X122000500Y81173713D01*
X122000500Y81386287D01*
X121967246Y81596243D01*
X121901557Y81798412D01*
X121805051Y81987816D01*
X121805049Y81987819D01*
X121805048Y81987821D01*
X121680109Y82159787D01*
X121529786Y82310110D01*
X121357820Y82435049D01*
X121357115Y82435409D01*
X121349054Y82439515D01*
X121298259Y82487488D01*
X121281463Y82555308D01*
X121303999Y82621444D01*
X121349054Y82660485D01*
X121357816Y82664949D01*
X121412572Y82704731D01*
X121529786Y82789891D01*
X121529788Y82789894D01*
X121529792Y82789896D01*
X121680104Y82940208D01*
X121680106Y82940212D01*
X121680109Y82940214D01*
X121789086Y83090211D01*
X121805051Y83112184D01*
X121901557Y83301588D01*
X121967246Y83503757D01*
X122000500Y83713713D01*
X122000500Y83926287D01*
X121967246Y84136243D01*
X121901557Y84338412D01*
X121805051Y84527816D01*
X121805049Y84527819D01*
X121805048Y84527821D01*
X121680109Y84699787D01*
X121529786Y84850110D01*
X121357820Y84975049D01*
X121349600Y84979237D01*
X121349054Y84979515D01*
X121298259Y85027488D01*
X121281463Y85095308D01*
X121303999Y85161444D01*
X121349054Y85200485D01*
X121357816Y85204949D01*
X121412572Y85244731D01*
X121529786Y85329891D01*
X121529788Y85329894D01*
X121529792Y85329896D01*
X121680104Y85480208D01*
X121680106Y85480212D01*
X121680109Y85480214D01*
X121789086Y85630211D01*
X121805051Y85652184D01*
X121901557Y85841588D01*
X121967246Y86043757D01*
X122000500Y86253713D01*
X122000500Y86466287D01*
X121967246Y86676243D01*
X121901557Y86878412D01*
X121805051Y87067816D01*
X121805049Y87067819D01*
X121805048Y87067821D01*
X121680109Y87239787D01*
X121529786Y87390110D01*
X121357820Y87515049D01*
X121349600Y87519237D01*
X121349054Y87519515D01*
X121298259Y87567488D01*
X121281463Y87635308D01*
X121303999Y87701444D01*
X121349054Y87740485D01*
X121357816Y87744949D01*
X121379789Y87760914D01*
X121529786Y87869891D01*
X121529788Y87869894D01*
X121529792Y87869896D01*
X121680104Y88020208D01*
X121680106Y88020212D01*
X121680109Y88020214D01*
X121789086Y88170211D01*
X121805051Y88192184D01*
X121901557Y88381588D01*
X121967246Y88583757D01*
X122000500Y88793713D01*
X122000500Y89006287D01*
X121967246Y89216243D01*
X121901557Y89418412D01*
X121805051Y89607816D01*
X121805049Y89607819D01*
X121805048Y89607821D01*
X121680109Y89779787D01*
X121529786Y89930110D01*
X121357820Y90055049D01*
X121357115Y90055409D01*
X121349054Y90059515D01*
X121298259Y90107488D01*
X121281463Y90175308D01*
X121303999Y90241444D01*
X121349054Y90280485D01*
X121357816Y90284949D01*
X121379789Y90300914D01*
X121529786Y90409891D01*
X121529788Y90409894D01*
X121529792Y90409896D01*
X121680104Y90560208D01*
X121680106Y90560212D01*
X121680109Y90560214D01*
X121789086Y90710211D01*
X121805051Y90732184D01*
X121901557Y90921588D01*
X121967246Y91123757D01*
X122000500Y91333713D01*
X122000500Y91546287D01*
X121967246Y91756243D01*
X121901557Y91958412D01*
X121805051Y92147816D01*
X121805049Y92147819D01*
X121805048Y92147821D01*
X121680109Y92319787D01*
X121529786Y92470110D01*
X121357820Y92595049D01*
X121357115Y92595409D01*
X121349054Y92599515D01*
X121298259Y92647488D01*
X121281463Y92715308D01*
X121303999Y92781444D01*
X121349054Y92820485D01*
X121357816Y92824949D01*
X121444138Y92887665D01*
X121529786Y92949891D01*
X121529788Y92949894D01*
X121529792Y92949896D01*
X121680104Y93100208D01*
X121680106Y93100212D01*
X121680109Y93100214D01*
X121789086Y93250211D01*
X121805051Y93272184D01*
X121901557Y93461588D01*
X121967246Y93663757D01*
X122000500Y93873713D01*
X122000500Y94086287D01*
X121967246Y94296243D01*
X121901557Y94498412D01*
X121805051Y94687816D01*
X121805049Y94687819D01*
X121805048Y94687821D01*
X121680109Y94859787D01*
X121529786Y95010110D01*
X121357820Y95135049D01*
X121357115Y95135409D01*
X121349054Y95139515D01*
X121298259Y95187488D01*
X121281463Y95255308D01*
X121303999Y95321444D01*
X121349054Y95360485D01*
X121357816Y95364949D01*
X121379789Y95380914D01*
X121529786Y95489891D01*
X121529788Y95489894D01*
X121529792Y95489896D01*
X121680104Y95640208D01*
X121680106Y95640212D01*
X121680109Y95640214D01*
X121789086Y95790211D01*
X121805051Y95812184D01*
X121901557Y96001588D01*
X121967246Y96203757D01*
X122000500Y96413713D01*
X122000500Y96626287D01*
X121967246Y96836243D01*
X121901557Y97038412D01*
X121805051Y97227816D01*
X121805049Y97227819D01*
X121805048Y97227821D01*
X121680109Y97399787D01*
X121529786Y97550110D01*
X121357820Y97675049D01*
X121357115Y97675409D01*
X121349054Y97679515D01*
X121298259Y97727488D01*
X121281463Y97795308D01*
X121303999Y97861444D01*
X121349054Y97900485D01*
X121357816Y97904949D01*
X121379789Y97920914D01*
X121529786Y98029891D01*
X121529788Y98029894D01*
X121529792Y98029896D01*
X121680104Y98180208D01*
X121680106Y98180212D01*
X121680109Y98180214D01*
X121789086Y98330211D01*
X121805051Y98352184D01*
X121901557Y98541588D01*
X121967246Y98743757D01*
X122000500Y98953713D01*
X122000500Y99166287D01*
X121967246Y99376243D01*
X121901557Y99578412D01*
X121805051Y99767816D01*
X121805049Y99767819D01*
X121805048Y99767821D01*
X121680109Y99939787D01*
X121529786Y100090110D01*
X121357820Y100215049D01*
X121357115Y100215409D01*
X121349054Y100219515D01*
X121298259Y100267488D01*
X121281463Y100335308D01*
X121303999Y100401444D01*
X121349054Y100440485D01*
X121357816Y100444949D01*
X121379789Y100460914D01*
X121529786Y100569891D01*
X121529788Y100569894D01*
X121529792Y100569896D01*
X121680104Y100720208D01*
X121680106Y100720212D01*
X121680109Y100720214D01*
X121789086Y100870211D01*
X121805051Y100892184D01*
X121901557Y101081588D01*
X121967246Y101283757D01*
X122000500Y101493713D01*
X122000500Y101706287D01*
X121967246Y101916243D01*
X121901557Y102118412D01*
X121805051Y102307816D01*
X121805049Y102307819D01*
X121805048Y102307821D01*
X121680109Y102479787D01*
X121529786Y102630110D01*
X121357820Y102755049D01*
X121357115Y102755409D01*
X121349054Y102759515D01*
X121298259Y102807488D01*
X121281463Y102875308D01*
X121303999Y102941444D01*
X121349054Y102980485D01*
X121357816Y102984949D01*
X121379789Y103000914D01*
X121529786Y103109891D01*
X121529788Y103109894D01*
X121529792Y103109896D01*
X121680104Y103260208D01*
X121680106Y103260212D01*
X121680109Y103260214D01*
X121789086Y103410211D01*
X121805051Y103432184D01*
X121901557Y103621588D01*
X121967246Y103823757D01*
X122000500Y104033713D01*
X122000500Y104246287D01*
X121967246Y104456243D01*
X121901557Y104658412D01*
X121805051Y104847816D01*
X121805049Y104847819D01*
X121805048Y104847821D01*
X121680109Y105019787D01*
X121529786Y105170110D01*
X121357820Y105295049D01*
X121357115Y105295409D01*
X121349054Y105299515D01*
X121298259Y105347488D01*
X121281463Y105415308D01*
X121303999Y105481444D01*
X121349054Y105520485D01*
X121357816Y105524949D01*
X121379789Y105540914D01*
X121529786Y105649891D01*
X121529788Y105649894D01*
X121529792Y105649896D01*
X121680104Y105800208D01*
X121680106Y105800212D01*
X121680109Y105800214D01*
X121789086Y105950211D01*
X121805051Y105972184D01*
X121901557Y106161588D01*
X121967246Y106363757D01*
X122000500Y106573713D01*
X122000500Y106786287D01*
X121967246Y106996243D01*
X121901557Y107198412D01*
X121805051Y107387816D01*
X121805049Y107387819D01*
X121805048Y107387821D01*
X121680109Y107559787D01*
X121529786Y107710110D01*
X121357820Y107835049D01*
X121357115Y107835409D01*
X121349054Y107839515D01*
X121298259Y107887488D01*
X121281463Y107955308D01*
X121303999Y108021444D01*
X121349054Y108060485D01*
X121357816Y108064949D01*
X121379789Y108080914D01*
X121529786Y108189891D01*
X121529788Y108189894D01*
X121529792Y108189896D01*
X121680104Y108340208D01*
X121680106Y108340212D01*
X121680109Y108340214D01*
X121789086Y108490211D01*
X121805051Y108512184D01*
X121901557Y108701588D01*
X121967246Y108903757D01*
X122000500Y109113713D01*
X122000500Y109326287D01*
X121967246Y109536243D01*
X121901557Y109738412D01*
X121805051Y109927816D01*
X121805049Y109927819D01*
X121805048Y109927821D01*
X121680109Y110099787D01*
X121529786Y110250110D01*
X121357820Y110375049D01*
X121357115Y110375409D01*
X121349054Y110379515D01*
X121298259Y110427488D01*
X121281463Y110495308D01*
X121303999Y110561444D01*
X121349054Y110600485D01*
X121357816Y110604949D01*
X121379789Y110620914D01*
X121529786Y110729891D01*
X121529788Y110729894D01*
X121529792Y110729896D01*
X121680104Y110880208D01*
X121680106Y110880212D01*
X121680109Y110880214D01*
X121789086Y111030211D01*
X121805051Y111052184D01*
X121901557Y111241588D01*
X121967246Y111443757D01*
X122000500Y111653713D01*
X122000500Y111866287D01*
X121967246Y112076243D01*
X121901557Y112278412D01*
X121805051Y112467816D01*
X121805049Y112467819D01*
X121805048Y112467821D01*
X121680109Y112639787D01*
X121529786Y112790110D01*
X121357820Y112915049D01*
X121357115Y112915409D01*
X121349054Y112919515D01*
X121298259Y112967488D01*
X121281463Y113035308D01*
X121303999Y113101444D01*
X121349054Y113140485D01*
X121357816Y113144949D01*
X121379789Y113160914D01*
X121529786Y113269891D01*
X121529788Y113269894D01*
X121529792Y113269896D01*
X121680104Y113420208D01*
X121680106Y113420212D01*
X121680109Y113420214D01*
X121789086Y113570211D01*
X121805051Y113592184D01*
X121901557Y113781588D01*
X121967246Y113983757D01*
X122000500Y114193713D01*
X122000500Y114406287D01*
X121967246Y114616243D01*
X121901557Y114818412D01*
X121805051Y115007816D01*
X121805049Y115007819D01*
X121805048Y115007821D01*
X121680109Y115179787D01*
X121529786Y115330110D01*
X121357820Y115455049D01*
X121356941Y115455497D01*
X121349054Y115459515D01*
X121298259Y115507488D01*
X121281463Y115575308D01*
X121303999Y115641444D01*
X121349054Y115680485D01*
X121357816Y115684949D01*
X121379789Y115700914D01*
X121529786Y115809891D01*
X121529788Y115809894D01*
X121529792Y115809896D01*
X121680104Y115960208D01*
X121680106Y115960212D01*
X121680109Y115960214D01*
X121789086Y116110211D01*
X121805051Y116132184D01*
X121901557Y116321588D01*
X121967246Y116523757D01*
X122000500Y116733713D01*
X122000500Y116946287D01*
X121967246Y117156243D01*
X121901557Y117358412D01*
X121805051Y117547816D01*
X121805049Y117547819D01*
X121805048Y117547821D01*
X121680109Y117719787D01*
X121529786Y117870110D01*
X121357820Y117995049D01*
X121357115Y117995409D01*
X121349054Y117999515D01*
X121298259Y118047488D01*
X121281463Y118115308D01*
X121303999Y118181444D01*
X121349054Y118220485D01*
X121357816Y118224949D01*
X121379789Y118240914D01*
X121529786Y118349891D01*
X121529788Y118349894D01*
X121529792Y118349896D01*
X121680104Y118500208D01*
X121680106Y118500212D01*
X121680109Y118500214D01*
X121789086Y118650211D01*
X121805051Y118672184D01*
X121901557Y118861588D01*
X121967246Y119063757D01*
X122000500Y119273713D01*
X122000500Y119486287D01*
X121967246Y119696243D01*
X121901557Y119898412D01*
X121805051Y120087816D01*
X121805049Y120087819D01*
X121805048Y120087821D01*
X121680109Y120259787D01*
X121529786Y120410110D01*
X121357820Y120535049D01*
X121357115Y120535409D01*
X121349054Y120539515D01*
X121298259Y120587488D01*
X121281463Y120655308D01*
X121303999Y120721444D01*
X121349054Y120760485D01*
X121357816Y120764949D01*
X121379789Y120780914D01*
X121529786Y120889891D01*
X121529788Y120889894D01*
X121529792Y120889896D01*
X121680104Y121040208D01*
X121680106Y121040212D01*
X121680109Y121040214D01*
X121789086Y121190211D01*
X121805051Y121212184D01*
X121901557Y121401588D01*
X121967246Y121603757D01*
X122000500Y121813713D01*
X122000500Y122026287D01*
X121967246Y122236243D01*
X121901557Y122438412D01*
X121805051Y122627816D01*
X121805049Y122627819D01*
X121805048Y122627821D01*
X121680109Y122799787D01*
X121529786Y122950110D01*
X121357820Y123075049D01*
X121357115Y123075409D01*
X121349054Y123079515D01*
X121298259Y123127488D01*
X121281463Y123195308D01*
X121303999Y123261444D01*
X121349054Y123300485D01*
X121357816Y123304949D01*
X121379789Y123320914D01*
X121529786Y123429891D01*
X121529788Y123429894D01*
X121529792Y123429896D01*
X121680104Y123580208D01*
X121680106Y123580212D01*
X121680109Y123580214D01*
X121789086Y123730211D01*
X121805051Y123752184D01*
X121901557Y123941588D01*
X121967246Y124143757D01*
X122000500Y124353713D01*
X122000500Y124566287D01*
X121967246Y124776243D01*
X121901557Y124978412D01*
X121805051Y125167816D01*
X121805049Y125167819D01*
X121805048Y125167821D01*
X121680109Y125339787D01*
X121529786Y125490110D01*
X121357820Y125615049D01*
X121357115Y125615409D01*
X121349054Y125619515D01*
X121298259Y125667488D01*
X121281463Y125735308D01*
X121303999Y125801444D01*
X121349054Y125840485D01*
X121357816Y125844949D01*
X121379789Y125860914D01*
X121529786Y125969891D01*
X121529788Y125969894D01*
X121529792Y125969896D01*
X121680104Y126120208D01*
X121680106Y126120212D01*
X121680109Y126120214D01*
X121789086Y126270211D01*
X121805051Y126292184D01*
X121901557Y126481588D01*
X121967246Y126683757D01*
X122000500Y126893713D01*
X122000500Y127106287D01*
X121976623Y127257040D01*
X121976604Y127257163D01*
X121981206Y127291542D01*
X121985646Y127325895D01*
X121985836Y127326122D01*
X121985876Y127326415D01*
X122008347Y127352862D01*
X122030643Y127379347D01*
X122030925Y127379435D01*
X122031117Y127379660D01*
X122064320Y127389761D01*
X122097394Y127399987D01*
X122097952Y127399992D01*
X122097962Y127399994D01*
X122097971Y127399992D01*
X122099165Y127400000D01*
X140300000Y127400000D01*
X140300000Y130576000D01*
X140319685Y130643039D01*
X140372489Y130688794D01*
X140424000Y130700000D01*
X142063383Y130700000D01*
X142130422Y130680315D01*
X142176177Y130627511D01*
X142186121Y130558353D01*
X142179564Y130532666D01*
X142166404Y130497384D01*
X142166401Y130497373D01*
X142160000Y130437845D01*
X142160000Y129790000D01*
X143076988Y129790000D01*
X143044075Y129732993D01*
X143010000Y129605826D01*
X143010000Y129474174D01*
X143044075Y129347007D01*
X143076988Y129290000D01*
X142160000Y129290000D01*
X142160000Y128642156D01*
X142166401Y128582628D01*
X142166403Y128582621D01*
X142216645Y128447914D01*
X142216649Y128447907D01*
X142302809Y128332813D01*
X142302812Y128332810D01*
X142417906Y128246650D01*
X142417913Y128246646D01*
X142549470Y128197578D01*
X142605404Y128155707D01*
X142629821Y128090242D01*
X142614969Y128021969D01*
X142593819Y127993715D01*
X142479889Y127879785D01*
X142354951Y127707821D01*
X142258444Y127518415D01*
X142192753Y127316240D01*
X142159500Y127106287D01*
X142159500Y126893713D01*
X142192754Y126683757D01*
X142199928Y126661677D01*
X142258444Y126481586D01*
X142354951Y126292180D01*
X142479890Y126120214D01*
X142630213Y125969891D01*
X142802182Y125844950D01*
X142810946Y125840484D01*
X142861742Y125792509D01*
X142878536Y125724688D01*
X142855998Y125658553D01*
X142810946Y125619516D01*
X142802182Y125615051D01*
X142630213Y125490110D01*
X142479890Y125339787D01*
X142354951Y125167821D01*
X142258444Y124978415D01*
X142192753Y124776240D01*
X142189256Y124754160D01*
X142159500Y124566287D01*
X142159500Y124353713D01*
X142192754Y124143757D01*
X142199928Y124121677D01*
X142258444Y123941586D01*
X142354951Y123752180D01*
X142479890Y123580214D01*
X142630213Y123429891D01*
X142802182Y123304950D01*
X142810946Y123300484D01*
X142861742Y123252509D01*
X142878536Y123184688D01*
X142855998Y123118553D01*
X142810946Y123079516D01*
X142802182Y123075051D01*
X142630213Y122950110D01*
X142479890Y122799787D01*
X142354951Y122627821D01*
X142258444Y122438415D01*
X142192753Y122236240D01*
X142189256Y122214160D01*
X142159500Y122026287D01*
X142159500Y121813713D01*
X142192754Y121603757D01*
X142199928Y121581677D01*
X142258444Y121401586D01*
X142354951Y121212180D01*
X142479890Y121040214D01*
X142630213Y120889891D01*
X142802182Y120764950D01*
X142810946Y120760484D01*
X142861742Y120712509D01*
X142878536Y120644688D01*
X142855998Y120578553D01*
X142810946Y120539516D01*
X142802182Y120535051D01*
X142630213Y120410110D01*
X142479890Y120259787D01*
X142354951Y120087821D01*
X142258444Y119898415D01*
X142192753Y119696240D01*
X142189256Y119674160D01*
X142159500Y119486287D01*
X142159500Y119273713D01*
X142192754Y119063757D01*
X142199928Y119041677D01*
X142258444Y118861586D01*
X142354951Y118672180D01*
X142479890Y118500214D01*
X142630213Y118349891D01*
X142802182Y118224950D01*
X142810946Y118220484D01*
X142861742Y118172509D01*
X142878536Y118104688D01*
X142855998Y118038553D01*
X142810946Y117999516D01*
X142802182Y117995051D01*
X142630213Y117870110D01*
X142479890Y117719787D01*
X142354951Y117547821D01*
X142258444Y117358415D01*
X142192753Y117156240D01*
X142189256Y117134160D01*
X142159500Y116946287D01*
X142159500Y116733713D01*
X142192754Y116523757D01*
X142199928Y116501677D01*
X142258444Y116321586D01*
X142354951Y116132180D01*
X142479890Y115960214D01*
X142630213Y115809891D01*
X142802182Y115684950D01*
X142810946Y115680484D01*
X142861742Y115632509D01*
X142878536Y115564688D01*
X142855998Y115498553D01*
X142810946Y115459516D01*
X142802182Y115455051D01*
X142630213Y115330110D01*
X142479890Y115179787D01*
X142354951Y115007821D01*
X142258444Y114818415D01*
X142192753Y114616240D01*
X142189256Y114594160D01*
X142159500Y114406287D01*
X142159500Y114193713D01*
X142192754Y113983757D01*
X142199928Y113961677D01*
X142258444Y113781586D01*
X142354951Y113592180D01*
X142479890Y113420214D01*
X142630213Y113269891D01*
X142802182Y113144950D01*
X142810946Y113140484D01*
X142861742Y113092509D01*
X142878536Y113024688D01*
X142855998Y112958553D01*
X142810946Y112919516D01*
X142802182Y112915051D01*
X142630213Y112790110D01*
X142479890Y112639787D01*
X142354951Y112467821D01*
X142258444Y112278415D01*
X142192753Y112076240D01*
X142179385Y111991835D01*
X142159500Y111866287D01*
X142159500Y111653713D01*
X142192754Y111443757D01*
X142199928Y111421677D01*
X142258444Y111241586D01*
X142354951Y111052180D01*
X142479890Y110880214D01*
X142630213Y110729891D01*
X142802182Y110604950D01*
X142810946Y110600484D01*
X142861742Y110552509D01*
X142878536Y110484688D01*
X142855998Y110418553D01*
X142810946Y110379516D01*
X142802182Y110375051D01*
X142630213Y110250110D01*
X142479890Y110099787D01*
X142354951Y109927821D01*
X142258444Y109738415D01*
X142192753Y109536240D01*
X142189256Y109514160D01*
X142159500Y109326287D01*
X142159500Y109113713D01*
X142192754Y108903757D01*
X142199928Y108881677D01*
X142258444Y108701586D01*
X142354951Y108512180D01*
X142479890Y108340214D01*
X142630213Y108189891D01*
X142802182Y108064950D01*
X142810946Y108060484D01*
X142861742Y108012509D01*
X142878536Y107944688D01*
X142855998Y107878553D01*
X142810946Y107839516D01*
X142802182Y107835051D01*
X142630213Y107710110D01*
X142479890Y107559787D01*
X142354951Y107387821D01*
X142258444Y107198415D01*
X142192753Y106996240D01*
X142189256Y106974160D01*
X142159500Y106786287D01*
X142159500Y106573713D01*
X142192754Y106363757D01*
X142199928Y106341677D01*
X142258444Y106161586D01*
X142354951Y105972180D01*
X142479890Y105800214D01*
X142630213Y105649891D01*
X142802182Y105524950D01*
X142810946Y105520484D01*
X142861742Y105472509D01*
X142878536Y105404688D01*
X142855998Y105338553D01*
X142810946Y105299516D01*
X142802182Y105295051D01*
X142630213Y105170110D01*
X142479890Y105019787D01*
X142354951Y104847821D01*
X142258444Y104658415D01*
X142192753Y104456240D01*
X142177862Y104362219D01*
X142159500Y104246287D01*
X142159500Y104033713D01*
X142192754Y103823757D01*
X142199928Y103801677D01*
X142258444Y103621586D01*
X142354951Y103432180D01*
X142479890Y103260214D01*
X142630213Y103109891D01*
X142802182Y102984950D01*
X142810946Y102980484D01*
X142861742Y102932509D01*
X142878536Y102864688D01*
X142855998Y102798553D01*
X142810946Y102759516D01*
X142802182Y102755051D01*
X142630213Y102630110D01*
X142479890Y102479787D01*
X142354951Y102307821D01*
X142258444Y102118415D01*
X142192753Y101916240D01*
X142189256Y101894160D01*
X142159500Y101706287D01*
X142159500Y101493713D01*
X142192754Y101283757D01*
X142199928Y101261677D01*
X142258444Y101081586D01*
X142354951Y100892180D01*
X142479890Y100720214D01*
X142630213Y100569891D01*
X142802182Y100444950D01*
X142810946Y100440484D01*
X142861742Y100392509D01*
X142878536Y100324688D01*
X142855998Y100258553D01*
X142810946Y100219516D01*
X142802182Y100215051D01*
X142630213Y100090110D01*
X142479890Y99939787D01*
X142354951Y99767821D01*
X142258444Y99578415D01*
X142192753Y99376240D01*
X142189256Y99354160D01*
X142159500Y99166287D01*
X142159500Y98953713D01*
X142192754Y98743757D01*
X142199928Y98721677D01*
X142258444Y98541586D01*
X142354951Y98352180D01*
X142479890Y98180214D01*
X142630213Y98029891D01*
X142802182Y97904950D01*
X142810946Y97900484D01*
X142861742Y97852509D01*
X142878536Y97784688D01*
X142855998Y97718553D01*
X142810946Y97679516D01*
X142802182Y97675051D01*
X142630213Y97550110D01*
X142479890Y97399787D01*
X142354951Y97227821D01*
X142258444Y97038415D01*
X142192753Y96836240D01*
X142189256Y96814160D01*
X142159500Y96626287D01*
X142159500Y96413713D01*
X142192754Y96203757D01*
X142199928Y96181677D01*
X142258444Y96001586D01*
X142354951Y95812180D01*
X142479890Y95640214D01*
X142630213Y95489891D01*
X142802182Y95364950D01*
X142810946Y95360484D01*
X142861742Y95312509D01*
X142878536Y95244688D01*
X142855998Y95178553D01*
X142810946Y95139516D01*
X142802182Y95135051D01*
X142630213Y95010110D01*
X142479890Y94859787D01*
X142354951Y94687821D01*
X142258444Y94498415D01*
X142192753Y94296240D01*
X142189256Y94274160D01*
X142159500Y94086287D01*
X142159500Y93873713D01*
X142192754Y93663757D01*
X142199928Y93641677D01*
X142258444Y93461586D01*
X142354951Y93272180D01*
X142479890Y93100214D01*
X142630213Y92949891D01*
X142802182Y92824950D01*
X142810946Y92820484D01*
X142861742Y92772509D01*
X142878536Y92704688D01*
X142855998Y92638553D01*
X142810946Y92599516D01*
X142802182Y92595051D01*
X142630213Y92470110D01*
X142479890Y92319787D01*
X142354951Y92147821D01*
X142258444Y91958415D01*
X142192753Y91756240D01*
X142189256Y91734160D01*
X142159500Y91546287D01*
X142159500Y91333713D01*
X142192754Y91123757D01*
X142199928Y91101677D01*
X142258444Y90921586D01*
X142354951Y90732180D01*
X142479890Y90560214D01*
X142630213Y90409891D01*
X142802182Y90284950D01*
X142810946Y90280484D01*
X142861742Y90232509D01*
X142878536Y90164688D01*
X142855998Y90098553D01*
X142810946Y90059516D01*
X142802182Y90055051D01*
X142630213Y89930110D01*
X142479890Y89779787D01*
X142354951Y89607821D01*
X142258444Y89418415D01*
X142192753Y89216240D01*
X142189256Y89194160D01*
X142159500Y89006287D01*
X142159500Y88793713D01*
X142192754Y88583757D01*
X142199928Y88561677D01*
X142258444Y88381586D01*
X142354951Y88192180D01*
X142479890Y88020214D01*
X142630213Y87869891D01*
X142802182Y87744950D01*
X142810946Y87740484D01*
X142861742Y87692509D01*
X142878536Y87624688D01*
X142855998Y87558553D01*
X142810946Y87519516D01*
X142802182Y87515051D01*
X142630213Y87390110D01*
X142479890Y87239787D01*
X142354951Y87067821D01*
X142258444Y86878415D01*
X142192753Y86676240D01*
X142159500Y86466287D01*
X142159500Y86253714D01*
X142192735Y86043873D01*
X142192754Y86043757D01*
X142199928Y86021677D01*
X142258444Y85841586D01*
X142354951Y85652180D01*
X142479890Y85480214D01*
X142630213Y85329891D01*
X142802182Y85204950D01*
X142810946Y85200484D01*
X142861742Y85152509D01*
X142878536Y85084688D01*
X142855998Y85018553D01*
X142810946Y84979516D01*
X142802182Y84975051D01*
X142630213Y84850110D01*
X142479890Y84699787D01*
X142354951Y84527821D01*
X142258444Y84338415D01*
X142192753Y84136240D01*
X142159500Y83926287D01*
X142159500Y83713714D01*
X142192735Y83503873D01*
X142192754Y83503757D01*
X142199928Y83481677D01*
X142258444Y83301586D01*
X142354951Y83112180D01*
X142479890Y82940214D01*
X142630213Y82789891D01*
X142802182Y82664950D01*
X142810946Y82660484D01*
X142861742Y82612509D01*
X142878536Y82544688D01*
X142855998Y82478553D01*
X142810946Y82439516D01*
X142802182Y82435051D01*
X142630213Y82310110D01*
X142479890Y82159787D01*
X142354951Y81987821D01*
X142258444Y81798415D01*
X142192753Y81596240D01*
X142189256Y81574160D01*
X142159500Y81386287D01*
X142159500Y81173713D01*
X142192754Y80963757D01*
X142199928Y80941677D01*
X142258444Y80761586D01*
X142354951Y80572180D01*
X142479890Y80400214D01*
X142630213Y80249891D01*
X142802179Y80124952D01*
X142802181Y80124951D01*
X142802184Y80124949D01*
X142811493Y80120206D01*
X142862290Y80072234D01*
X142879087Y80004413D01*
X142856552Y79938278D01*
X142811505Y79899240D01*
X142802446Y79894624D01*
X142802440Y79894620D01*
X142748282Y79855273D01*
X142748282Y79855272D01*
X143380591Y79222963D01*
X143317007Y79205925D01*
X143202993Y79140099D01*
X143109901Y79047007D01*
X143044075Y78932993D01*
X143027037Y78869409D01*
X142394728Y79501718D01*
X142394727Y79501718D01*
X142355380Y79447561D01*
X142258904Y79258218D01*
X142193242Y79056131D01*
X142193242Y79056128D01*
X142160000Y78846247D01*
X142160000Y78633754D01*
X142193242Y78423873D01*
X142193242Y78423870D01*
X142258904Y78221783D01*
X142355375Y78032450D01*
X142394728Y77978284D01*
X143027036Y78610593D01*
X143044075Y78547007D01*
X143109901Y78432993D01*
X143202993Y78339901D01*
X143317007Y78274075D01*
X143380591Y78257038D01*
X142779971Y77656419D01*
X142858711Y77539105D01*
X142859920Y77535271D01*
X142862844Y77532509D01*
X142870343Y77502222D01*
X142879727Y77472471D01*
X142878671Y77468592D01*
X142879638Y77464688D01*
X142869573Y77435156D01*
X142861383Y77405053D01*
X142858397Y77402360D01*
X142857100Y77398553D01*
X142812051Y77359517D01*
X142802440Y77354620D01*
X142748282Y77315273D01*
X142748282Y77315272D01*
X143380591Y76682963D01*
X143317007Y76665925D01*
X143202993Y76600099D01*
X143109901Y76507007D01*
X143044075Y76392993D01*
X143027037Y76329409D01*
X142394728Y76961718D01*
X142394727Y76961718D01*
X142355380Y76907561D01*
X142258904Y76718218D01*
X142193242Y76516131D01*
X142193242Y76516128D01*
X142160000Y76306247D01*
X142160000Y76093754D01*
X142193242Y75883873D01*
X142193242Y75883870D01*
X142258904Y75681783D01*
X142355375Y75492450D01*
X142394728Y75438284D01*
X143027036Y76070593D01*
X143044075Y76007007D01*
X143109901Y75892993D01*
X143202993Y75799901D01*
X143317007Y75734075D01*
X143380590Y75717038D01*
X142748282Y75084731D01*
X142748282Y75084730D01*
X142802449Y75045376D01*
X142991782Y74948905D01*
X143193870Y74883243D01*
X143403754Y74850000D01*
X143616246Y74850000D01*
X143826127Y74883243D01*
X143826130Y74883243D01*
X144028217Y74948905D01*
X144217554Y75045378D01*
X144271716Y75084730D01*
X144271716Y75084731D01*
X143639408Y75717038D01*
X143702993Y75734075D01*
X143817007Y75799901D01*
X143910099Y75892993D01*
X143975925Y76007007D01*
X143992962Y76070591D01*
X144625270Y75438283D01*
X144625270Y75438284D01*
X144664622Y75492446D01*
X144761095Y75681783D01*
X144826757Y75883870D01*
X144826757Y75883873D01*
X144860000Y76093754D01*
X144860000Y76306247D01*
X144826757Y76516128D01*
X144826757Y76516131D01*
X144761095Y76718218D01*
X144664624Y76907551D01*
X144625270Y76961718D01*
X144625269Y76961718D01*
X143992962Y76329410D01*
X143975925Y76392993D01*
X143910099Y76507007D01*
X143817007Y76600099D01*
X143702993Y76665925D01*
X143639409Y76682963D01*
X144271716Y77315272D01*
X144217550Y77354625D01*
X144207954Y77359514D01*
X144157157Y77407488D01*
X144140361Y77475308D01*
X144162897Y77541444D01*
X144164757Y77544011D01*
X144244815Y77651631D01*
X143639408Y78257038D01*
X143702993Y78274075D01*
X143817007Y78339901D01*
X143910099Y78432993D01*
X143975925Y78547007D01*
X143992962Y78610591D01*
X144625270Y77978283D01*
X144625270Y77978284D01*
X144664622Y78032446D01*
X144761095Y78221783D01*
X144826757Y78423870D01*
X144826757Y78423873D01*
X144860000Y78633754D01*
X144860000Y78846247D01*
X144826757Y79056128D01*
X144826757Y79056131D01*
X144761095Y79258218D01*
X144664624Y79447551D01*
X144625270Y79501718D01*
X144625269Y79501718D01*
X143992962Y78869410D01*
X143975925Y78932993D01*
X143910099Y79047007D01*
X143817007Y79140099D01*
X143702993Y79205925D01*
X143639409Y79222963D01*
X144271716Y79855272D01*
X144217547Y79894627D01*
X144217547Y79894628D01*
X144208500Y79899237D01*
X144157706Y79947212D01*
X144140912Y80015034D01*
X144163451Y80081168D01*
X144193398Y80111101D01*
X144200619Y80116188D01*
X144217816Y80124949D01*
X144368267Y80234258D01*
X144369039Y80234801D01*
X144401285Y80245775D01*
X144433361Y80257218D01*
X144435058Y80257267D01*
X144435184Y80257309D01*
X144435324Y80257275D01*
X144440439Y80257420D01*
X153979800Y80257420D01*
X154046839Y80237735D01*
X154059365Y80228427D01*
X154232179Y80102872D01*
X154232181Y80102871D01*
X154232184Y80102869D01*
X154241493Y80098126D01*
X154292290Y80050154D01*
X154309087Y79982333D01*
X154286552Y79916198D01*
X154241505Y79877160D01*
X154232446Y79872544D01*
X154232440Y79872540D01*
X154178282Y79833193D01*
X154178282Y79833192D01*
X154810591Y79200883D01*
X154747007Y79183845D01*
X154632993Y79118019D01*
X154539901Y79024927D01*
X154474075Y78910913D01*
X154457037Y78847329D01*
X153824728Y79479638D01*
X153824727Y79479638D01*
X153785380Y79425481D01*
X153688904Y79236138D01*
X153623242Y79034051D01*
X153623242Y79034048D01*
X153590000Y78824167D01*
X153590000Y78611674D01*
X153623242Y78401793D01*
X153623242Y78401790D01*
X153688904Y78199703D01*
X153785375Y78010370D01*
X153824728Y77956204D01*
X154457036Y78588513D01*
X154474075Y78524927D01*
X154539901Y78410913D01*
X154632993Y78317821D01*
X154747007Y78251995D01*
X154810591Y78234958D01*
X154209971Y77634339D01*
X154288711Y77517025D01*
X154289920Y77513191D01*
X154292844Y77510429D01*
X154300343Y77480142D01*
X154309727Y77450391D01*
X154308671Y77446512D01*
X154309638Y77442608D01*
X154299573Y77413076D01*
X154291383Y77382973D01*
X154288397Y77380280D01*
X154287100Y77376473D01*
X154242051Y77337437D01*
X154232440Y77332540D01*
X154178282Y77293193D01*
X154178282Y77293192D01*
X154810591Y76660883D01*
X154747007Y76643845D01*
X154632993Y76578019D01*
X154539901Y76484927D01*
X154474075Y76370913D01*
X154457037Y76307329D01*
X153824728Y76939638D01*
X153824727Y76939638D01*
X153785380Y76885481D01*
X153688904Y76696138D01*
X153623242Y76494051D01*
X153623242Y76494048D01*
X153590000Y76284167D01*
X153590000Y76071674D01*
X153623242Y75861793D01*
X153623242Y75861790D01*
X153688904Y75659703D01*
X153785375Y75470370D01*
X153824728Y75416204D01*
X154457036Y76048513D01*
X154474075Y75984927D01*
X154539901Y75870913D01*
X154632993Y75777821D01*
X154747007Y75711995D01*
X154810590Y75694958D01*
X154178282Y75062651D01*
X154178282Y75062650D01*
X154232449Y75023296D01*
X154421782Y74926825D01*
X154623870Y74861163D01*
X154833754Y74827920D01*
X155046246Y74827920D01*
X155256127Y74861163D01*
X155256130Y74861163D01*
X155458217Y74926825D01*
X155647554Y75023298D01*
X155701716Y75062650D01*
X155701717Y75062650D01*
X155069408Y75694958D01*
X155132993Y75711995D01*
X155247007Y75777821D01*
X155340099Y75870913D01*
X155405925Y75984927D01*
X155422962Y76048512D01*
X156055270Y75416203D01*
X156055270Y75416204D01*
X156094622Y75470366D01*
X156191095Y75659703D01*
X156256757Y75861790D01*
X156256757Y75861793D01*
X156290000Y76071674D01*
X156290000Y76284167D01*
X156256757Y76494048D01*
X156256757Y76494051D01*
X156191095Y76696138D01*
X156094624Y76885471D01*
X156055270Y76939638D01*
X156055269Y76939638D01*
X155422962Y76307330D01*
X155405925Y76370913D01*
X155340099Y76484927D01*
X155247007Y76578019D01*
X155132993Y76643845D01*
X155069409Y76660883D01*
X155701716Y77293192D01*
X155647550Y77332545D01*
X155637954Y77337434D01*
X155587157Y77385408D01*
X155570361Y77453228D01*
X155592897Y77519364D01*
X155637954Y77558406D01*
X155647554Y77563298D01*
X155701716Y77602650D01*
X155701717Y77602650D01*
X155069408Y78234958D01*
X155132993Y78251995D01*
X155247007Y78317821D01*
X155340099Y78410913D01*
X155405925Y78524927D01*
X155422962Y78588512D01*
X156055270Y77956203D01*
X156055270Y77956204D01*
X156094622Y78010366D01*
X156191095Y78199703D01*
X156256757Y78401790D01*
X156256757Y78401793D01*
X156290000Y78611674D01*
X156290000Y78824167D01*
X156256757Y79034048D01*
X156256757Y79034051D01*
X156191095Y79236138D01*
X156094624Y79425471D01*
X156055270Y79479638D01*
X156055269Y79479638D01*
X155422962Y78847330D01*
X155405925Y78910913D01*
X155340099Y79024927D01*
X155247007Y79118019D01*
X155132993Y79183845D01*
X155069409Y79200883D01*
X155701716Y79833192D01*
X155647547Y79872547D01*
X155647547Y79872548D01*
X155638500Y79877157D01*
X155587706Y79925132D01*
X155570912Y79992954D01*
X155593451Y80059088D01*
X155638508Y80098127D01*
X155647816Y80102869D01*
X155727007Y80160405D01*
X155819786Y80227811D01*
X155819788Y80227814D01*
X155819792Y80227816D01*
X155970104Y80378128D01*
X155970106Y80378132D01*
X155970109Y80378134D01*
X156095048Y80550100D01*
X156095047Y80550100D01*
X156095051Y80550104D01*
X156191557Y80739508D01*
X156257246Y80941677D01*
X156290500Y81151633D01*
X156290500Y81364207D01*
X156257246Y81574163D01*
X156191557Y81776332D01*
X156095051Y81965736D01*
X156095049Y81965739D01*
X156095048Y81965741D01*
X155970109Y82137707D01*
X155819786Y82288030D01*
X155647820Y82412969D01*
X155647115Y82413329D01*
X155639054Y82417435D01*
X155588259Y82465408D01*
X155571463Y82533228D01*
X155593999Y82599364D01*
X155639054Y82638405D01*
X155647816Y82642869D01*
X155732961Y82704730D01*
X155819786Y82767811D01*
X155819788Y82767814D01*
X155819792Y82767816D01*
X155970104Y82918128D01*
X155970106Y82918132D01*
X155970109Y82918134D01*
X156095048Y83090100D01*
X156095047Y83090100D01*
X156095051Y83090104D01*
X156191557Y83279508D01*
X156257246Y83481677D01*
X156290500Y83691633D01*
X156290500Y83904207D01*
X156257246Y84114163D01*
X156191557Y84316332D01*
X156095051Y84505736D01*
X156095049Y84505739D01*
X156095048Y84505741D01*
X155970109Y84677707D01*
X155819786Y84828030D01*
X155647820Y84952969D01*
X155647115Y84953329D01*
X155639054Y84957435D01*
X155588259Y85005408D01*
X155571463Y85073228D01*
X155593999Y85139364D01*
X155639054Y85178405D01*
X155647816Y85182869D01*
X155678208Y85204950D01*
X155819786Y85307811D01*
X155819788Y85307814D01*
X155819792Y85307816D01*
X155970104Y85458128D01*
X155970106Y85458132D01*
X155970109Y85458134D01*
X156095048Y85630100D01*
X156095047Y85630100D01*
X156095051Y85630104D01*
X156191557Y85819508D01*
X156257246Y86021677D01*
X156290500Y86231633D01*
X156290500Y86444207D01*
X156257246Y86654163D01*
X156191557Y86856332D01*
X156095051Y87045736D01*
X156095049Y87045739D01*
X156095048Y87045741D01*
X155970109Y87217707D01*
X155819786Y87368030D01*
X155647820Y87492969D01*
X155647115Y87493329D01*
X155639054Y87497435D01*
X155588259Y87545408D01*
X155571463Y87613228D01*
X155593999Y87679364D01*
X155639054Y87718405D01*
X155647816Y87722869D01*
X155678208Y87744950D01*
X155819786Y87847811D01*
X155819788Y87847814D01*
X155819792Y87847816D01*
X155970104Y87998128D01*
X155970106Y87998132D01*
X155970109Y87998134D01*
X156095048Y88170100D01*
X156095047Y88170100D01*
X156095051Y88170104D01*
X156191557Y88359508D01*
X156257246Y88561677D01*
X156290500Y88771633D01*
X156290500Y88984207D01*
X156257246Y89194163D01*
X156191557Y89396332D01*
X156095051Y89585736D01*
X156095049Y89585739D01*
X156095048Y89585741D01*
X155970109Y89757707D01*
X155819786Y89908030D01*
X155647820Y90032969D01*
X155647115Y90033329D01*
X155639054Y90037435D01*
X155588259Y90085408D01*
X155571463Y90153228D01*
X155593999Y90219364D01*
X155639054Y90258405D01*
X155647816Y90262869D01*
X155680581Y90286674D01*
X155819786Y90387811D01*
X155819788Y90387814D01*
X155819792Y90387816D01*
X155970104Y90538128D01*
X155970106Y90538132D01*
X155970109Y90538134D01*
X156095048Y90710100D01*
X156095047Y90710100D01*
X156095051Y90710104D01*
X156191557Y90899508D01*
X156257246Y91101677D01*
X156290500Y91311633D01*
X156290500Y91524207D01*
X156257246Y91734163D01*
X156191557Y91936332D01*
X156095051Y92125736D01*
X156095049Y92125739D01*
X156095048Y92125741D01*
X155970109Y92297707D01*
X155819786Y92448030D01*
X155647820Y92572969D01*
X155647115Y92573329D01*
X155639054Y92577435D01*
X155588259Y92625408D01*
X155571463Y92693228D01*
X155593999Y92759364D01*
X155639054Y92798405D01*
X155647816Y92802869D01*
X155764529Y92887665D01*
X155819786Y92927811D01*
X155819788Y92927814D01*
X155819792Y92927816D01*
X155970104Y93078128D01*
X155970106Y93078132D01*
X155970109Y93078134D01*
X156095048Y93250100D01*
X156095047Y93250100D01*
X156095051Y93250104D01*
X156191557Y93439508D01*
X156257246Y93641677D01*
X156290500Y93851633D01*
X156290500Y94064207D01*
X156257246Y94274163D01*
X156191557Y94476332D01*
X156095051Y94665736D01*
X156095049Y94665739D01*
X156095048Y94665741D01*
X155970109Y94837707D01*
X155819786Y94988030D01*
X155647820Y95112969D01*
X155647115Y95113329D01*
X155639054Y95117435D01*
X155588259Y95165408D01*
X155571463Y95233228D01*
X155593999Y95299364D01*
X155639054Y95338405D01*
X155647816Y95342869D01*
X155678211Y95364952D01*
X155819786Y95467811D01*
X155819788Y95467814D01*
X155819792Y95467816D01*
X155970104Y95618128D01*
X155970106Y95618132D01*
X155970109Y95618134D01*
X156095048Y95790100D01*
X156095047Y95790100D01*
X156095051Y95790104D01*
X156191557Y95979508D01*
X156257246Y96181677D01*
X156290500Y96391633D01*
X156290500Y96604207D01*
X156257246Y96814163D01*
X156191557Y97016332D01*
X156095051Y97205736D01*
X156095049Y97205739D01*
X156095048Y97205741D01*
X155970109Y97377707D01*
X155819786Y97528030D01*
X155647820Y97652969D01*
X155647115Y97653329D01*
X155639054Y97657435D01*
X155588259Y97705408D01*
X155571463Y97773228D01*
X155593999Y97839364D01*
X155639054Y97878405D01*
X155647816Y97882869D01*
X155680581Y97906674D01*
X155819786Y98007811D01*
X155819788Y98007814D01*
X155819792Y98007816D01*
X155970104Y98158128D01*
X155970106Y98158132D01*
X155970109Y98158134D01*
X156095048Y98330100D01*
X156095047Y98330100D01*
X156095051Y98330104D01*
X156191557Y98519508D01*
X156257246Y98721677D01*
X156290500Y98931633D01*
X156290500Y99144207D01*
X156257246Y99354163D01*
X156191557Y99556332D01*
X156095051Y99745736D01*
X156095049Y99745739D01*
X156095048Y99745741D01*
X155970109Y99917707D01*
X155819786Y100068030D01*
X155647820Y100192969D01*
X155647115Y100193329D01*
X155639054Y100197435D01*
X155588259Y100245408D01*
X155571463Y100313228D01*
X155593999Y100379364D01*
X155639054Y100418405D01*
X155647816Y100422869D01*
X155680581Y100446674D01*
X155819786Y100547811D01*
X155819788Y100547814D01*
X155819792Y100547816D01*
X155970104Y100698128D01*
X155970106Y100698132D01*
X155970109Y100698134D01*
X156095048Y100870100D01*
X156095047Y100870100D01*
X156095051Y100870104D01*
X156191557Y101059508D01*
X156257246Y101261677D01*
X156290500Y101471633D01*
X156290500Y101684207D01*
X156257246Y101894163D01*
X156191557Y102096332D01*
X156095051Y102285736D01*
X156095049Y102285739D01*
X156095048Y102285741D01*
X155970109Y102457707D01*
X155819786Y102608030D01*
X155647820Y102732969D01*
X155647115Y102733329D01*
X155639054Y102737435D01*
X155588259Y102785408D01*
X155571463Y102853228D01*
X155593999Y102919364D01*
X155639054Y102958405D01*
X155647816Y102962869D01*
X155680581Y102986674D01*
X155819786Y103087811D01*
X155819788Y103087814D01*
X155819792Y103087816D01*
X155970104Y103238128D01*
X155970106Y103238132D01*
X155970109Y103238134D01*
X156095048Y103410100D01*
X156095047Y103410100D01*
X156095051Y103410104D01*
X156191557Y103599508D01*
X156257246Y103801677D01*
X156290500Y104011633D01*
X156290500Y104224207D01*
X156257246Y104434163D01*
X156191557Y104636332D01*
X156095051Y104825736D01*
X156095049Y104825739D01*
X156095048Y104825741D01*
X155970109Y104997707D01*
X155819786Y105148030D01*
X155647820Y105272969D01*
X155647115Y105273329D01*
X155639054Y105277435D01*
X155588259Y105325408D01*
X155571463Y105393228D01*
X155593999Y105459364D01*
X155639054Y105498405D01*
X155647816Y105502869D01*
X155695870Y105537782D01*
X155819786Y105627811D01*
X155819788Y105627814D01*
X155819792Y105627816D01*
X155970104Y105778128D01*
X155970106Y105778132D01*
X155970109Y105778134D01*
X156095048Y105950100D01*
X156095047Y105950100D01*
X156095051Y105950104D01*
X156191557Y106139508D01*
X156257246Y106341677D01*
X156290500Y106551633D01*
X156290500Y106764207D01*
X156257246Y106974163D01*
X156191557Y107176332D01*
X156095051Y107365736D01*
X156095049Y107365739D01*
X156095048Y107365741D01*
X155970109Y107537707D01*
X155819786Y107688030D01*
X155647820Y107812969D01*
X155647115Y107813329D01*
X155639054Y107817435D01*
X155588259Y107865408D01*
X155571463Y107933228D01*
X155593999Y107999364D01*
X155639054Y108038405D01*
X155647816Y108042869D01*
X155680581Y108066674D01*
X155819786Y108167811D01*
X155819788Y108167814D01*
X155819792Y108167816D01*
X155970104Y108318128D01*
X155970106Y108318132D01*
X155970109Y108318134D01*
X156095048Y108490100D01*
X156095047Y108490100D01*
X156095051Y108490104D01*
X156191557Y108679508D01*
X156257246Y108881677D01*
X156290500Y109091633D01*
X156290500Y109304207D01*
X156257246Y109514163D01*
X156191557Y109716332D01*
X156095051Y109905736D01*
X156095049Y109905739D01*
X156095048Y109905741D01*
X155970109Y110077707D01*
X155819786Y110228030D01*
X155647820Y110352969D01*
X155647115Y110353329D01*
X155639054Y110357435D01*
X155588259Y110405408D01*
X155571463Y110473228D01*
X155593999Y110539364D01*
X155639054Y110578405D01*
X155647816Y110582869D01*
X155680581Y110606674D01*
X155819786Y110707811D01*
X155819788Y110707814D01*
X155819792Y110707816D01*
X155970104Y110858128D01*
X155970106Y110858132D01*
X155970109Y110858134D01*
X156095048Y111030100D01*
X156095047Y111030100D01*
X156095051Y111030104D01*
X156191557Y111219508D01*
X156257246Y111421677D01*
X156290500Y111631633D01*
X156290500Y111844207D01*
X156257246Y112054163D01*
X156191557Y112256332D01*
X156095051Y112445736D01*
X156095049Y112445739D01*
X156095048Y112445741D01*
X155970109Y112617707D01*
X155819786Y112768030D01*
X155647820Y112892969D01*
X155647115Y112893329D01*
X155639054Y112897435D01*
X155588259Y112945408D01*
X155571463Y113013228D01*
X155593999Y113079364D01*
X155639054Y113118405D01*
X155647816Y113122869D01*
X155680581Y113146674D01*
X155819786Y113247811D01*
X155819788Y113247814D01*
X155819792Y113247816D01*
X155970104Y113398128D01*
X155970106Y113398132D01*
X155970109Y113398134D01*
X156095048Y113570100D01*
X156095047Y113570100D01*
X156095051Y113570104D01*
X156191557Y113759508D01*
X156257246Y113961677D01*
X156290500Y114171633D01*
X156290500Y114384207D01*
X156257246Y114594163D01*
X156191557Y114796332D01*
X156095051Y114985736D01*
X156095049Y114985739D01*
X156095048Y114985741D01*
X155970109Y115157707D01*
X155819786Y115308030D01*
X155647820Y115432969D01*
X155647115Y115433329D01*
X155639054Y115437435D01*
X155588259Y115485408D01*
X155571463Y115553228D01*
X155593999Y115619364D01*
X155639054Y115658405D01*
X155647816Y115662869D01*
X155680581Y115686674D01*
X155819786Y115787811D01*
X155819788Y115787814D01*
X155819792Y115787816D01*
X155970104Y115938128D01*
X155970106Y115938132D01*
X155970109Y115938134D01*
X156095048Y116110100D01*
X156095047Y116110100D01*
X156095051Y116110104D01*
X156191557Y116299508D01*
X156257246Y116501677D01*
X156290500Y116711633D01*
X156290500Y116924207D01*
X156257246Y117134163D01*
X156191557Y117336332D01*
X156095051Y117525736D01*
X156095049Y117525739D01*
X156095048Y117525741D01*
X155970109Y117697707D01*
X155819786Y117848030D01*
X155647820Y117972969D01*
X155647115Y117973329D01*
X155639054Y117977435D01*
X155588259Y118025408D01*
X155571463Y118093228D01*
X155593999Y118159364D01*
X155639054Y118198405D01*
X155647816Y118202869D01*
X155680581Y118226674D01*
X155819786Y118327811D01*
X155819788Y118327814D01*
X155819792Y118327816D01*
X155970104Y118478128D01*
X155970106Y118478132D01*
X155970109Y118478134D01*
X156095048Y118650100D01*
X156095047Y118650100D01*
X156095051Y118650104D01*
X156191557Y118839508D01*
X156257246Y119041677D01*
X156290500Y119251633D01*
X156290500Y119464207D01*
X156257246Y119674163D01*
X156191557Y119876332D01*
X156095051Y120065736D01*
X156095049Y120065739D01*
X156095048Y120065741D01*
X155970109Y120237707D01*
X155819786Y120388030D01*
X155647820Y120512969D01*
X155647115Y120513329D01*
X155639054Y120517435D01*
X155588259Y120565408D01*
X155571463Y120633228D01*
X155593999Y120699364D01*
X155639054Y120738405D01*
X155647816Y120742869D01*
X155680581Y120766674D01*
X155819786Y120867811D01*
X155819788Y120867814D01*
X155819792Y120867816D01*
X155970104Y121018128D01*
X155970106Y121018132D01*
X155970109Y121018134D01*
X156095048Y121190100D01*
X156095047Y121190100D01*
X156095051Y121190104D01*
X156191557Y121379508D01*
X156257246Y121581677D01*
X156290500Y121791633D01*
X156290500Y122004207D01*
X156257246Y122214163D01*
X156191557Y122416332D01*
X156095051Y122605736D01*
X156095049Y122605739D01*
X156095048Y122605741D01*
X155970109Y122777707D01*
X155819786Y122928030D01*
X155647820Y123052969D01*
X155647115Y123053329D01*
X155639054Y123057435D01*
X155588259Y123105408D01*
X155571463Y123173228D01*
X155593999Y123239364D01*
X155639054Y123278405D01*
X155647816Y123282869D01*
X155680581Y123306674D01*
X155819786Y123407811D01*
X155819788Y123407814D01*
X155819792Y123407816D01*
X155970104Y123558128D01*
X155970106Y123558132D01*
X155970109Y123558134D01*
X156095048Y123730100D01*
X156095047Y123730100D01*
X156095051Y123730104D01*
X156191557Y123919508D01*
X156257246Y124121677D01*
X156290500Y124331633D01*
X156290500Y124544207D01*
X156257246Y124754163D01*
X156191557Y124956332D01*
X156095051Y125145736D01*
X156095049Y125145739D01*
X156095048Y125145741D01*
X155970109Y125317707D01*
X155819786Y125468030D01*
X155647820Y125592969D01*
X155647115Y125593329D01*
X155639054Y125597435D01*
X155588259Y125645408D01*
X155571463Y125713228D01*
X155593999Y125779364D01*
X155639054Y125818405D01*
X155647816Y125822869D01*
X155680581Y125846674D01*
X155819786Y125947811D01*
X155819788Y125947814D01*
X155819792Y125947816D01*
X155970104Y126098128D01*
X155970106Y126098132D01*
X155970109Y126098134D01*
X156095048Y126270100D01*
X156095047Y126270100D01*
X156095051Y126270104D01*
X156191557Y126459508D01*
X156257246Y126661677D01*
X156290500Y126871633D01*
X156290500Y127084207D01*
X156257246Y127294163D01*
X156191557Y127496332D01*
X156095051Y127685736D01*
X156095049Y127685739D01*
X156095048Y127685741D01*
X155970109Y127857707D01*
X155856181Y127971635D01*
X155822696Y128032958D01*
X155827680Y128102650D01*
X155869552Y128158583D01*
X155900529Y128175498D01*
X156032086Y128224566D01*
X156032093Y128224570D01*
X156147187Y128310730D01*
X156147190Y128310733D01*
X156233350Y128425827D01*
X156233354Y128425834D01*
X156283596Y128560541D01*
X156283598Y128560548D01*
X156289999Y128620076D01*
X156290000Y128620093D01*
X156290000Y129267920D01*
X155373012Y129267920D01*
X155405925Y129324927D01*
X155440000Y129452094D01*
X155440000Y129583746D01*
X155405925Y129710913D01*
X155373012Y129767920D01*
X156290000Y129767920D01*
X156290000Y130415748D01*
X156289999Y130415765D01*
X156283598Y130475293D01*
X156283596Y130475300D01*
X156262200Y130532667D01*
X156257216Y130602358D01*
X156290701Y130663681D01*
X156352024Y130697166D01*
X156378382Y130700000D01*
X159375500Y130700000D01*
X159442539Y130680315D01*
X159488294Y130627511D01*
X159499500Y130576000D01*
X159499500Y624500D01*
X159479815Y557461D01*
X159427011Y511706D01*
X159375500Y500500D01*
X624500Y500500D01*
X557461Y520185D01*
X511706Y572989D01*
X500500Y624500D01*
X500500Y94877865D01*
X10079500Y94877865D01*
X10079500Y93082130D01*
X10079501Y93082124D01*
X10085908Y93022517D01*
X10136202Y92887672D01*
X10136206Y92887665D01*
X10222452Y92772456D01*
X10222455Y92772453D01*
X10337664Y92686207D01*
X10337671Y92686203D01*
X10469082Y92637190D01*
X10525016Y92595319D01*
X10549433Y92529855D01*
X10534582Y92461582D01*
X10513431Y92433327D01*
X10399889Y92319785D01*
X10274951Y92147821D01*
X10178444Y91958415D01*
X10112753Y91756240D01*
X10109256Y91734160D01*
X10079500Y91546287D01*
X10079500Y91333713D01*
X10112754Y91123757D01*
X10119928Y91101677D01*
X10178444Y90921586D01*
X10274951Y90732180D01*
X10399890Y90560214D01*
X10550213Y90409891D01*
X10722182Y90284950D01*
X10730946Y90280484D01*
X10781742Y90232509D01*
X10798536Y90164688D01*
X10775998Y90098553D01*
X10730946Y90059516D01*
X10722182Y90055051D01*
X10550213Y89930110D01*
X10399890Y89779787D01*
X10274951Y89607821D01*
X10178444Y89418415D01*
X10112753Y89216240D01*
X10109256Y89194160D01*
X10079500Y89006287D01*
X10079500Y88793713D01*
X10112754Y88583757D01*
X10119928Y88561677D01*
X10178444Y88381586D01*
X10274951Y88192180D01*
X10399890Y88020214D01*
X10550213Y87869891D01*
X10722182Y87744950D01*
X10730946Y87740484D01*
X10781742Y87692509D01*
X10798536Y87624688D01*
X10775998Y87558553D01*
X10730946Y87519516D01*
X10722182Y87515051D01*
X10550213Y87390110D01*
X10399890Y87239787D01*
X10274951Y87067821D01*
X10178444Y86878415D01*
X10112753Y86676240D01*
X10079500Y86466287D01*
X10079500Y86253714D01*
X10112735Y86043873D01*
X10112754Y86043757D01*
X10119928Y86021677D01*
X10178444Y85841586D01*
X10274951Y85652180D01*
X10399890Y85480214D01*
X10550213Y85329891D01*
X10722182Y85204950D01*
X10730946Y85200484D01*
X10781742Y85152509D01*
X10798536Y85084688D01*
X10775998Y85018553D01*
X10730946Y84979516D01*
X10722182Y84975051D01*
X10550213Y84850110D01*
X10399890Y84699787D01*
X10274951Y84527821D01*
X10178444Y84338415D01*
X10112753Y84136240D01*
X10079500Y83926287D01*
X10079500Y83713714D01*
X10112735Y83503873D01*
X10112754Y83503757D01*
X10119928Y83481677D01*
X10178444Y83301586D01*
X10274951Y83112180D01*
X10399890Y82940214D01*
X10550213Y82789891D01*
X10722182Y82664950D01*
X10730946Y82660484D01*
X10781742Y82612509D01*
X10798536Y82544688D01*
X10775998Y82478553D01*
X10730946Y82439516D01*
X10722182Y82435051D01*
X10550213Y82310110D01*
X10399890Y82159787D01*
X10274951Y81987821D01*
X10178444Y81798415D01*
X10112753Y81596240D01*
X10109256Y81574160D01*
X10079500Y81386287D01*
X10079500Y81173713D01*
X10112754Y80963757D01*
X10119928Y80941677D01*
X10178444Y80761586D01*
X10274951Y80572180D01*
X10399890Y80400214D01*
X10550213Y80249891D01*
X10722182Y80124950D01*
X10730946Y80120484D01*
X10781742Y80072509D01*
X10798536Y80004688D01*
X10775998Y79938553D01*
X10730946Y79899516D01*
X10722182Y79895051D01*
X10550213Y79770110D01*
X10399890Y79619787D01*
X10274951Y79447821D01*
X10178444Y79258415D01*
X10112753Y79056240D01*
X10079500Y78846287D01*
X10079500Y78633714D01*
X10112735Y78423873D01*
X10112754Y78423757D01*
X10132051Y78364366D01*
X10178444Y78221586D01*
X10274951Y78032180D01*
X10399890Y77860214D01*
X10550213Y77709891D01*
X10722182Y77584950D01*
X10730946Y77580484D01*
X10781742Y77532509D01*
X10798536Y77464688D01*
X10775998Y77398553D01*
X10730946Y77359516D01*
X10722182Y77355051D01*
X10550213Y77230110D01*
X10399890Y77079787D01*
X10274951Y76907821D01*
X10178444Y76718415D01*
X10112753Y76516240D01*
X10079500Y76306287D01*
X10079500Y76093714D01*
X10112735Y75883873D01*
X10112754Y75883757D01*
X10132051Y75824366D01*
X10178444Y75681586D01*
X10274951Y75492180D01*
X10399890Y75320214D01*
X10550213Y75169891D01*
X10722182Y75044950D01*
X10730946Y75040484D01*
X10781742Y74992509D01*
X10798536Y74924688D01*
X10775998Y74858553D01*
X10730946Y74819516D01*
X10722182Y74815051D01*
X10550213Y74690110D01*
X10399890Y74539787D01*
X10274951Y74367821D01*
X10178444Y74178415D01*
X10112753Y73976240D01*
X10079500Y73766287D01*
X10079500Y73553714D01*
X10108888Y73368161D01*
X10112754Y73343757D01*
X10163982Y73186093D01*
X10178444Y73141586D01*
X10274951Y72952180D01*
X10399890Y72780214D01*
X10550213Y72629891D01*
X10722179Y72504952D01*
X10722181Y72504951D01*
X10722184Y72504949D01*
X10731493Y72500206D01*
X10782290Y72452234D01*
X10799087Y72384413D01*
X10776552Y72318278D01*
X10731505Y72279240D01*
X10722446Y72274624D01*
X10722440Y72274620D01*
X10668282Y72235273D01*
X10668282Y72235272D01*
X11300591Y71602963D01*
X11237007Y71585925D01*
X11122993Y71520099D01*
X11029901Y71427007D01*
X10964075Y71312993D01*
X10947037Y71249409D01*
X10314728Y71881718D01*
X10314727Y71881718D01*
X10275380Y71827561D01*
X10178904Y71638218D01*
X10113242Y71436131D01*
X10113242Y71436128D01*
X10080000Y71226247D01*
X10080000Y71013754D01*
X10113242Y70803873D01*
X10113242Y70803870D01*
X10178904Y70601783D01*
X10275375Y70412450D01*
X10314728Y70358284D01*
X10947037Y70990592D01*
X10964075Y70927007D01*
X11029901Y70812993D01*
X11122993Y70719901D01*
X11237007Y70654075D01*
X11300590Y70637038D01*
X10668282Y70004731D01*
X10668282Y70004730D01*
X10722452Y69965374D01*
X10722451Y69965374D01*
X10731495Y69960766D01*
X10782292Y69912792D01*
X10799087Y69844971D01*
X10776550Y69778836D01*
X10731499Y69739798D01*
X10722182Y69735051D01*
X10550213Y69610110D01*
X10399890Y69459787D01*
X10274951Y69287821D01*
X10178444Y69098415D01*
X10112753Y68896240D01*
X10079500Y68686287D01*
X10079500Y68473714D01*
X10112753Y68263761D01*
X10178444Y68061586D01*
X10274951Y67872180D01*
X10399890Y67700214D01*
X10550213Y67549891D01*
X10722182Y67424950D01*
X10730946Y67420484D01*
X10781742Y67372509D01*
X10798536Y67304688D01*
X10775998Y67238553D01*
X10730946Y67199516D01*
X10722182Y67195051D01*
X10550213Y67070110D01*
X10399890Y66919787D01*
X10274951Y66747821D01*
X10178444Y66558415D01*
X10112753Y66356240D01*
X10079500Y66146287D01*
X10079500Y65933714D01*
X10112753Y65723761D01*
X10178444Y65521586D01*
X10274951Y65332180D01*
X10399890Y65160214D01*
X10550213Y65009891D01*
X10722182Y64884950D01*
X10730946Y64880484D01*
X10781742Y64832509D01*
X10798536Y64764688D01*
X10775998Y64698553D01*
X10730946Y64659516D01*
X10722182Y64655051D01*
X10550213Y64530110D01*
X10399890Y64379787D01*
X10274951Y64207821D01*
X10178444Y64018415D01*
X10112753Y63816240D01*
X10079500Y63606287D01*
X10079500Y63393714D01*
X10112753Y63183761D01*
X10178444Y62981586D01*
X10274951Y62792180D01*
X10399890Y62620214D01*
X10550213Y62469891D01*
X10722182Y62344950D01*
X10730946Y62340484D01*
X10781742Y62292509D01*
X10798536Y62224688D01*
X10775998Y62158553D01*
X10730946Y62119516D01*
X10722182Y62115051D01*
X10550213Y61990110D01*
X10399890Y61839787D01*
X10274951Y61667821D01*
X10178444Y61478415D01*
X10112753Y61276240D01*
X10079500Y61066287D01*
X10079500Y60853714D01*
X10112753Y60643761D01*
X10178444Y60441586D01*
X10274951Y60252180D01*
X10399890Y60080214D01*
X10550213Y59929891D01*
X10722182Y59804950D01*
X10730946Y59800484D01*
X10781742Y59752509D01*
X10798536Y59684688D01*
X10775998Y59618553D01*
X10730946Y59579516D01*
X10722182Y59575051D01*
X10550213Y59450110D01*
X10399890Y59299787D01*
X10274951Y59127821D01*
X10178444Y58938415D01*
X10112753Y58736240D01*
X10079500Y58526287D01*
X10079500Y58313714D01*
X10112753Y58103761D01*
X10178444Y57901586D01*
X10274951Y57712180D01*
X10399890Y57540214D01*
X10550213Y57389891D01*
X10722182Y57264950D01*
X10730946Y57260484D01*
X10781742Y57212509D01*
X10798536Y57144688D01*
X10775998Y57078553D01*
X10730946Y57039516D01*
X10722182Y57035051D01*
X10550213Y56910110D01*
X10399890Y56759787D01*
X10274951Y56587821D01*
X10178444Y56398415D01*
X10112753Y56196240D01*
X10083611Y56012244D01*
X10079500Y55986287D01*
X10079500Y55773713D01*
X10089534Y55710356D01*
X10112753Y55563761D01*
X10178444Y55361586D01*
X10274951Y55172180D01*
X10399890Y55000214D01*
X10550213Y54849891D01*
X10722182Y54724950D01*
X10730946Y54720484D01*
X10781742Y54672509D01*
X10798536Y54604688D01*
X10775998Y54538553D01*
X10730946Y54499516D01*
X10722182Y54495051D01*
X10550213Y54370110D01*
X10399890Y54219787D01*
X10274951Y54047821D01*
X10178444Y53858415D01*
X10112753Y53656240D01*
X10079500Y53446287D01*
X10079500Y53233714D01*
X10112753Y53023761D01*
X10178444Y52821586D01*
X10274951Y52632180D01*
X10399890Y52460214D01*
X10550213Y52309891D01*
X10722182Y52184950D01*
X10730946Y52180484D01*
X10781742Y52132509D01*
X10798536Y52064688D01*
X10775998Y51998553D01*
X10730946Y51959516D01*
X10722182Y51955051D01*
X10550213Y51830110D01*
X10399890Y51679787D01*
X10274951Y51507821D01*
X10178444Y51318415D01*
X10112753Y51116240D01*
X10079500Y50906287D01*
X10079500Y50693714D01*
X10112753Y50483761D01*
X10178444Y50281586D01*
X10274951Y50092180D01*
X10399890Y49920214D01*
X10550213Y49769891D01*
X10722182Y49644950D01*
X10730946Y49640484D01*
X10781742Y49592509D01*
X10798536Y49524688D01*
X10775998Y49458553D01*
X10730946Y49419516D01*
X10722182Y49415051D01*
X10550213Y49290110D01*
X10399890Y49139787D01*
X10274951Y48967821D01*
X10178444Y48778415D01*
X10112753Y48576240D01*
X10079500Y48366287D01*
X10079500Y48153714D01*
X10112753Y47943761D01*
X10178444Y47741586D01*
X10274951Y47552180D01*
X10399890Y47380214D01*
X10550213Y47229891D01*
X10722179Y47104952D01*
X10722181Y47104951D01*
X10722184Y47104949D01*
X10911588Y47008443D01*
X11113757Y46942754D01*
X11323713Y46909500D01*
X11323714Y46909500D01*
X11536286Y46909500D01*
X11536287Y46909500D01*
X11746243Y46942754D01*
X11948412Y47008443D01*
X12137816Y47104949D01*
X12159789Y47120914D01*
X12309786Y47229891D01*
X12309788Y47229894D01*
X12309792Y47229896D01*
X12460104Y47380208D01*
X12460106Y47380212D01*
X12460109Y47380214D01*
X12585048Y47552180D01*
X12585047Y47552180D01*
X12585051Y47552184D01*
X12589514Y47560946D01*
X12637488Y47611741D01*
X12705308Y47628537D01*
X12771444Y47606001D01*
X12810486Y47560944D01*
X12814951Y47552180D01*
X12939890Y47380214D01*
X13090213Y47229891D01*
X13262179Y47104952D01*
X13262181Y47104951D01*
X13262184Y47104949D01*
X13451588Y47008443D01*
X13653757Y46942754D01*
X13863713Y46909500D01*
X13863714Y46909500D01*
X14076286Y46909500D01*
X14076287Y46909500D01*
X14286243Y46942754D01*
X14488412Y47008443D01*
X14677816Y47104949D01*
X14699789Y47120914D01*
X14849786Y47229891D01*
X14849788Y47229894D01*
X14849792Y47229896D01*
X15000104Y47380208D01*
X15000106Y47380212D01*
X15000109Y47380214D01*
X15125048Y47552180D01*
X15125047Y47552180D01*
X15125051Y47552184D01*
X15221557Y47741588D01*
X15287246Y47943757D01*
X15320500Y48153713D01*
X15320500Y48366287D01*
X15287246Y48576243D01*
X15221557Y48778412D01*
X15125051Y48967816D01*
X15125049Y48967819D01*
X15125048Y48967821D01*
X15000109Y49139787D01*
X14849786Y49290110D01*
X14677820Y49415049D01*
X14677115Y49415409D01*
X14669054Y49419515D01*
X14618259Y49467488D01*
X14601463Y49535308D01*
X14623999Y49601444D01*
X14669054Y49640485D01*
X14677816Y49644949D01*
X14699789Y49660914D01*
X14849786Y49769891D01*
X14849788Y49769894D01*
X14849792Y49769896D01*
X15000104Y49920208D01*
X15000106Y49920212D01*
X15000109Y49920214D01*
X15125048Y50092180D01*
X15125047Y50092180D01*
X15125051Y50092184D01*
X15221557Y50281588D01*
X15287246Y50483757D01*
X15320500Y50693713D01*
X15320500Y50906287D01*
X15287246Y51116243D01*
X15221557Y51318412D01*
X15125051Y51507816D01*
X15125049Y51507819D01*
X15125048Y51507821D01*
X15000109Y51679787D01*
X14849786Y51830110D01*
X14677820Y51955049D01*
X14677115Y51955409D01*
X14669054Y51959515D01*
X14618259Y52007488D01*
X14601463Y52075308D01*
X14623999Y52141444D01*
X14669054Y52180485D01*
X14677816Y52184949D01*
X14699789Y52200914D01*
X14849786Y52309891D01*
X14849788Y52309894D01*
X14849792Y52309896D01*
X15000104Y52460208D01*
X15000106Y52460212D01*
X15000109Y52460214D01*
X15125048Y52632180D01*
X15125047Y52632180D01*
X15125051Y52632184D01*
X15221557Y52821588D01*
X15287246Y53023757D01*
X15320500Y53233713D01*
X15320500Y53446287D01*
X15287246Y53656243D01*
X15221557Y53858412D01*
X15125051Y54047816D01*
X15125049Y54047819D01*
X15125048Y54047821D01*
X15000109Y54219787D01*
X14849786Y54370110D01*
X14677820Y54495049D01*
X14677115Y54495409D01*
X14669054Y54499515D01*
X14618259Y54547488D01*
X14601463Y54615308D01*
X14623999Y54681444D01*
X14669054Y54720485D01*
X14677816Y54724949D01*
X14699789Y54740914D01*
X14849786Y54849891D01*
X14849788Y54849894D01*
X14849792Y54849896D01*
X15000104Y55000208D01*
X15000106Y55000212D01*
X15000109Y55000214D01*
X15125048Y55172180D01*
X15125047Y55172180D01*
X15125051Y55172184D01*
X15221557Y55361588D01*
X15287246Y55563757D01*
X15314481Y55735716D01*
X15344410Y55798848D01*
X15403721Y55835780D01*
X15473584Y55834782D01*
X15524635Y55803997D01*
X17713181Y53615452D01*
X17746666Y53554129D01*
X17749500Y53527771D01*
X17749500Y47514611D01*
X17729815Y47447572D01*
X17724763Y47440630D01*
X17613371Y47273921D01*
X17613364Y47273908D01*
X17537950Y47091840D01*
X17537947Y47091830D01*
X17499500Y46898544D01*
X17499500Y46898541D01*
X17499500Y46701459D01*
X17499500Y46701457D01*
X17499499Y46701457D01*
X17537947Y46508171D01*
X17537950Y46508161D01*
X17613364Y46326093D01*
X17613371Y46326080D01*
X17722860Y46162219D01*
X17722863Y46162215D01*
X17862214Y46022864D01*
X17862218Y46022861D01*
X18026079Y45913372D01*
X18026092Y45913365D01*
X18208160Y45837951D01*
X18208165Y45837949D01*
X18208169Y45837949D01*
X18208170Y45837948D01*
X18401456Y45799500D01*
X18401459Y45799500D01*
X18598543Y45799500D01*
X18728582Y45825368D01*
X18791835Y45837949D01*
X18973914Y45913368D01*
X19137782Y46022861D01*
X19277139Y46162218D01*
X19386632Y46326086D01*
X19462051Y46508165D01*
X19500500Y46701459D01*
X19500500Y46898541D01*
X19500500Y46898544D01*
X19462052Y47091830D01*
X19462051Y47091831D01*
X19462051Y47091835D01*
X19404865Y47229896D01*
X19386635Y47273908D01*
X19386628Y47273921D01*
X19273755Y47442847D01*
X19275278Y47443865D01*
X19251331Y47500277D01*
X19250500Y47514611D01*
X19250500Y53963921D01*
X19221659Y54108908D01*
X19221658Y54108909D01*
X19221658Y54108913D01*
X19175731Y54219792D01*
X19165087Y54245489D01*
X19165080Y54245502D01*
X19082952Y54368415D01*
X19081257Y54370110D01*
X18978416Y54472951D01*
X15340175Y58111193D01*
X15306690Y58172516D01*
X15305383Y58218272D01*
X15320500Y58313715D01*
X15320500Y58526287D01*
X15287246Y58736240D01*
X15287246Y58736243D01*
X15221557Y58938412D01*
X15125051Y59127816D01*
X15125049Y59127819D01*
X15125048Y59127821D01*
X15000109Y59299787D01*
X14849786Y59450110D01*
X14677820Y59575049D01*
X14677115Y59575409D01*
X14669054Y59579515D01*
X14618259Y59627488D01*
X14601463Y59695308D01*
X14623999Y59761444D01*
X14669054Y59800485D01*
X14677816Y59804949D01*
X14699789Y59820914D01*
X14849786Y59929891D01*
X14849788Y59929894D01*
X14849792Y59929896D01*
X15000104Y60080208D01*
X15000106Y60080212D01*
X15000109Y60080214D01*
X15125048Y60252180D01*
X15125047Y60252180D01*
X15125051Y60252184D01*
X15221557Y60441588D01*
X15287246Y60643757D01*
X15320500Y60853713D01*
X15320500Y61066287D01*
X15287246Y61276243D01*
X15221557Y61478412D01*
X15125051Y61667816D01*
X15125049Y61667819D01*
X15125048Y61667821D01*
X15000109Y61839787D01*
X14849786Y61990110D01*
X14677820Y62115049D01*
X14677115Y62115409D01*
X14669054Y62119515D01*
X14618259Y62167488D01*
X14601463Y62235308D01*
X14623999Y62301444D01*
X14669054Y62340485D01*
X14677816Y62344949D01*
X14699789Y62360914D01*
X14849786Y62469891D01*
X14849788Y62469894D01*
X14849792Y62469896D01*
X15000104Y62620208D01*
X15000106Y62620212D01*
X15000109Y62620214D01*
X15125048Y62792180D01*
X15125047Y62792180D01*
X15125051Y62792184D01*
X15221557Y62981588D01*
X15287246Y63183757D01*
X15320500Y63393713D01*
X15320500Y63606287D01*
X15287246Y63816243D01*
X15221557Y64018412D01*
X15125051Y64207816D01*
X15125049Y64207819D01*
X15125048Y64207821D01*
X15000109Y64379787D01*
X14849786Y64530110D01*
X14677820Y64655049D01*
X14677115Y64655409D01*
X14669054Y64659515D01*
X14618259Y64707488D01*
X14601463Y64775308D01*
X14623999Y64841444D01*
X14669054Y64880485D01*
X14677816Y64884949D01*
X14699789Y64900914D01*
X14849786Y65009891D01*
X14849788Y65009894D01*
X14849792Y65009896D01*
X15000104Y65160208D01*
X15000106Y65160212D01*
X15000109Y65160214D01*
X15125048Y65332180D01*
X15125047Y65332180D01*
X15125051Y65332184D01*
X15221557Y65521588D01*
X15287246Y65723757D01*
X15320500Y65933713D01*
X15320500Y66146287D01*
X15287246Y66356243D01*
X15221557Y66558412D01*
X15125051Y66747816D01*
X15125049Y66747819D01*
X15125048Y66747821D01*
X15000109Y66919787D01*
X14849786Y67070110D01*
X14677817Y67195051D01*
X14668504Y67199796D01*
X14617707Y67247770D01*
X14600912Y67315591D01*
X14623449Y67381726D01*
X14668507Y67420768D01*
X14677555Y67425378D01*
X14731716Y67464730D01*
X14731717Y67464730D01*
X14099408Y68097038D01*
X14162993Y68114075D01*
X14277007Y68179901D01*
X14370099Y68272993D01*
X14435925Y68387007D01*
X14452962Y68450592D01*
X15085270Y67818283D01*
X15085270Y67818284D01*
X15124622Y67872446D01*
X15221095Y68061783D01*
X15286757Y68263870D01*
X15286757Y68263873D01*
X15320000Y68473754D01*
X15320000Y68686247D01*
X15286757Y68896128D01*
X15286757Y68896131D01*
X15221095Y69098218D01*
X15124624Y69287551D01*
X15085270Y69341718D01*
X15085269Y69341718D01*
X14452962Y68709410D01*
X14435925Y68772993D01*
X14370099Y68887007D01*
X14277007Y68980099D01*
X14162993Y69045925D01*
X14099409Y69062963D01*
X14731716Y69695272D01*
X14677550Y69734625D01*
X14667954Y69739514D01*
X14617157Y69787488D01*
X14600361Y69855308D01*
X14622897Y69921444D01*
X14667954Y69960486D01*
X14677554Y69965378D01*
X14731716Y70004730D01*
X14731717Y70004730D01*
X14099408Y70637038D01*
X14162993Y70654075D01*
X14277007Y70719901D01*
X14370099Y70812993D01*
X14435925Y70927007D01*
X14452962Y70990592D01*
X15085270Y70358283D01*
X15085270Y70358284D01*
X15124622Y70412446D01*
X15221095Y70601783D01*
X15286757Y70803870D01*
X15286757Y70803873D01*
X15320000Y71013754D01*
X15320000Y71226247D01*
X15289081Y71421457D01*
X58299499Y71421457D01*
X58337947Y71228171D01*
X58337950Y71228161D01*
X58413364Y71046093D01*
X58413371Y71046080D01*
X58522860Y70882219D01*
X58522863Y70882215D01*
X58662214Y70742864D01*
X58662218Y70742861D01*
X58826079Y70633372D01*
X58826092Y70633365D01*
X58902810Y70601588D01*
X59008165Y70557949D01*
X59008169Y70557949D01*
X59008170Y70557948D01*
X59201456Y70519500D01*
X59201459Y70519500D01*
X59210233Y70519500D01*
X59277272Y70499815D01*
X59279124Y70498602D01*
X59344498Y70454920D01*
X59344511Y70454913D01*
X59447669Y70412184D01*
X59481087Y70398342D01*
X59481091Y70398342D01*
X59481092Y70398341D01*
X59626079Y70369500D01*
X59626082Y70369500D01*
X71202779Y70369500D01*
X71269818Y70349815D01*
X71303097Y70318385D01*
X71359892Y70240212D01*
X71510213Y70089891D01*
X71682182Y69964950D01*
X71690946Y69960484D01*
X71741742Y69912509D01*
X71758536Y69844688D01*
X71735998Y69778553D01*
X71690946Y69739516D01*
X71682182Y69735051D01*
X71510213Y69610110D01*
X71359890Y69459787D01*
X71234951Y69287821D01*
X71138444Y69098415D01*
X71072753Y68896240D01*
X71039500Y68686287D01*
X71039500Y68473714D01*
X71072753Y68263761D01*
X71138444Y68061586D01*
X71234951Y67872180D01*
X71359890Y67700214D01*
X71510213Y67549891D01*
X71682182Y67424950D01*
X71690946Y67420484D01*
X71741742Y67372509D01*
X71758536Y67304688D01*
X71735998Y67238553D01*
X71690946Y67199516D01*
X71682182Y67195051D01*
X71510213Y67070110D01*
X71359890Y66919787D01*
X71234951Y66747821D01*
X71138444Y66558415D01*
X71072753Y66356240D01*
X71039500Y66146287D01*
X71039500Y65933714D01*
X71072753Y65723761D01*
X71138444Y65521586D01*
X71234951Y65332180D01*
X71359890Y65160214D01*
X71510213Y65009891D01*
X71682182Y64884950D01*
X71690946Y64880484D01*
X71741742Y64832509D01*
X71758536Y64764688D01*
X71735998Y64698553D01*
X71690946Y64659516D01*
X71682182Y64655051D01*
X71510213Y64530110D01*
X71359890Y64379787D01*
X71234951Y64207821D01*
X71138444Y64018415D01*
X71072753Y63816240D01*
X71039500Y63606287D01*
X71039500Y63393714D01*
X71072753Y63183761D01*
X71138444Y62981586D01*
X71234951Y62792180D01*
X71359890Y62620214D01*
X71510213Y62469891D01*
X71682182Y62344950D01*
X71690946Y62340484D01*
X71741742Y62292509D01*
X71758536Y62224688D01*
X71735998Y62158553D01*
X71690946Y62119516D01*
X71682182Y62115051D01*
X71510213Y61990110D01*
X71359890Y61839787D01*
X71234951Y61667821D01*
X71138444Y61478415D01*
X71072753Y61276240D01*
X71039500Y61066287D01*
X71039500Y60853714D01*
X71072753Y60643761D01*
X71138444Y60441586D01*
X71234951Y60252180D01*
X71359890Y60080214D01*
X71510213Y59929891D01*
X71682182Y59804950D01*
X71690946Y59800484D01*
X71741742Y59752509D01*
X71758536Y59684688D01*
X71735998Y59618553D01*
X71690946Y59579516D01*
X71682182Y59575051D01*
X71510213Y59450110D01*
X71359890Y59299787D01*
X71234951Y59127821D01*
X71138444Y58938415D01*
X71072753Y58736240D01*
X71039500Y58526287D01*
X71039500Y58313714D01*
X71072753Y58103761D01*
X71138444Y57901586D01*
X71234951Y57712180D01*
X71359890Y57540214D01*
X71510213Y57389891D01*
X71682182Y57264950D01*
X71690946Y57260484D01*
X71741742Y57212509D01*
X71758536Y57144688D01*
X71735998Y57078553D01*
X71690946Y57039516D01*
X71682182Y57035051D01*
X71510213Y56910110D01*
X71359890Y56759787D01*
X71234951Y56587821D01*
X71138444Y56398415D01*
X71072753Y56196240D01*
X71043611Y56012244D01*
X71039500Y55986287D01*
X71039500Y55773713D01*
X71049534Y55710356D01*
X71072753Y55563761D01*
X71138444Y55361586D01*
X71234951Y55172180D01*
X71359890Y55000214D01*
X71510213Y54849891D01*
X71682182Y54724950D01*
X71690946Y54720484D01*
X71741742Y54672509D01*
X71758536Y54604688D01*
X71735998Y54538553D01*
X71690946Y54499516D01*
X71682182Y54495051D01*
X71510213Y54370110D01*
X71359890Y54219787D01*
X71234951Y54047821D01*
X71138444Y53858415D01*
X71072753Y53656240D01*
X71039500Y53446287D01*
X71039500Y53233714D01*
X71072753Y53023761D01*
X71138444Y52821586D01*
X71234951Y52632180D01*
X71359890Y52460214D01*
X71510213Y52309891D01*
X71682182Y52184950D01*
X71690946Y52180484D01*
X71741742Y52132509D01*
X71758536Y52064688D01*
X71735998Y51998553D01*
X71690946Y51959516D01*
X71682182Y51955051D01*
X71510213Y51830110D01*
X71359890Y51679787D01*
X71234951Y51507821D01*
X71138444Y51318415D01*
X71072753Y51116240D01*
X71039500Y50906287D01*
X71039500Y50693714D01*
X71072753Y50483761D01*
X71138444Y50281586D01*
X71234951Y50092180D01*
X71359890Y49920214D01*
X71510213Y49769891D01*
X71682182Y49644950D01*
X71690946Y49640484D01*
X71741742Y49592509D01*
X71758536Y49524688D01*
X71735998Y49458553D01*
X71690946Y49419516D01*
X71682182Y49415051D01*
X71510213Y49290110D01*
X71359890Y49139787D01*
X71234951Y48967821D01*
X71138444Y48778415D01*
X71072753Y48576240D01*
X71039500Y48366287D01*
X71039500Y48153714D01*
X71072753Y47943761D01*
X71138444Y47741586D01*
X71234951Y47552180D01*
X71359890Y47380214D01*
X71510213Y47229891D01*
X71682179Y47104952D01*
X71682181Y47104951D01*
X71682184Y47104949D01*
X71871588Y47008443D01*
X72073757Y46942754D01*
X72283713Y46909500D01*
X72283714Y46909500D01*
X72496286Y46909500D01*
X72496287Y46909500D01*
X72706243Y46942754D01*
X72908412Y47008443D01*
X73097816Y47104949D01*
X73119789Y47120914D01*
X73269786Y47229891D01*
X73269788Y47229894D01*
X73269792Y47229896D01*
X73420104Y47380208D01*
X73420106Y47380212D01*
X73420109Y47380214D01*
X73545048Y47552180D01*
X73545047Y47552180D01*
X73545051Y47552184D01*
X73549514Y47560946D01*
X73597488Y47611741D01*
X73665308Y47628537D01*
X73731444Y47606001D01*
X73770486Y47560944D01*
X73774951Y47552180D01*
X73899890Y47380214D01*
X74050213Y47229891D01*
X74222179Y47104952D01*
X74222181Y47104951D01*
X74222184Y47104949D01*
X74411588Y47008443D01*
X74613757Y46942754D01*
X74823713Y46909500D01*
X74823714Y46909500D01*
X75036286Y46909500D01*
X75036287Y46909500D01*
X75246243Y46942754D01*
X75448412Y47008443D01*
X75637816Y47104949D01*
X75659789Y47120914D01*
X75809786Y47229891D01*
X75809788Y47229894D01*
X75809792Y47229896D01*
X75960104Y47380208D01*
X75960106Y47380212D01*
X75960109Y47380214D01*
X76085048Y47552180D01*
X76085047Y47552180D01*
X76085051Y47552184D01*
X76181557Y47741588D01*
X76247246Y47943757D01*
X76280500Y48153713D01*
X76280500Y48366287D01*
X76247246Y48576243D01*
X76181557Y48778412D01*
X76085051Y48967816D01*
X76085049Y48967819D01*
X76085048Y48967821D01*
X75960109Y49139787D01*
X75809786Y49290110D01*
X75637820Y49415049D01*
X75637115Y49415409D01*
X75629054Y49419515D01*
X75578259Y49467488D01*
X75561463Y49535308D01*
X75583999Y49601444D01*
X75629054Y49640485D01*
X75637816Y49644949D01*
X75659789Y49660914D01*
X75809786Y49769891D01*
X75809788Y49769894D01*
X75809792Y49769896D01*
X75960104Y49920208D01*
X75960106Y49920212D01*
X75960109Y49920214D01*
X76085048Y50092180D01*
X76085047Y50092180D01*
X76085051Y50092184D01*
X76181557Y50281588D01*
X76247246Y50483757D01*
X76280500Y50693713D01*
X76280500Y50906287D01*
X76247246Y51116243D01*
X76181557Y51318412D01*
X76085051Y51507816D01*
X76085049Y51507819D01*
X76085048Y51507821D01*
X75960109Y51679787D01*
X75809786Y51830110D01*
X75637820Y51955049D01*
X75637115Y51955409D01*
X75629054Y51959515D01*
X75578259Y52007488D01*
X75561463Y52075308D01*
X75583999Y52141444D01*
X75629054Y52180485D01*
X75637816Y52184949D01*
X75659789Y52200914D01*
X75809786Y52309891D01*
X75809788Y52309894D01*
X75809792Y52309896D01*
X75960104Y52460208D01*
X75960106Y52460212D01*
X75960109Y52460214D01*
X76085048Y52632180D01*
X76085047Y52632180D01*
X76085051Y52632184D01*
X76181557Y52821588D01*
X76247246Y53023757D01*
X76280500Y53233713D01*
X76280500Y53446287D01*
X76247246Y53656243D01*
X76181557Y53858412D01*
X76085051Y54047816D01*
X76085049Y54047819D01*
X76085048Y54047821D01*
X75960109Y54219787D01*
X75809786Y54370110D01*
X75637820Y54495049D01*
X75637115Y54495409D01*
X75629054Y54499515D01*
X75578259Y54547488D01*
X75561463Y54615308D01*
X75583999Y54681444D01*
X75629054Y54720485D01*
X75637816Y54724949D01*
X75659789Y54740914D01*
X75809786Y54849891D01*
X75809788Y54849894D01*
X75809792Y54849896D01*
X75960104Y55000208D01*
X75960106Y55000212D01*
X75960109Y55000214D01*
X76085048Y55172180D01*
X76085047Y55172180D01*
X76085051Y55172184D01*
X76181557Y55361588D01*
X76247246Y55563757D01*
X76280500Y55773713D01*
X76280500Y55986287D01*
X76247246Y56196243D01*
X76181557Y56398412D01*
X76085051Y56587816D01*
X76085049Y56587819D01*
X76085048Y56587821D01*
X75960109Y56759787D01*
X75809786Y56910110D01*
X75637820Y57035049D01*
X75637115Y57035409D01*
X75629054Y57039515D01*
X75578259Y57087488D01*
X75561463Y57155308D01*
X75583999Y57221444D01*
X75629054Y57260485D01*
X75637816Y57264949D01*
X75659789Y57280914D01*
X75809786Y57389891D01*
X75809788Y57389894D01*
X75809792Y57389896D01*
X75960104Y57540208D01*
X75960106Y57540212D01*
X75960109Y57540214D01*
X76085048Y57712180D01*
X76085047Y57712180D01*
X76085051Y57712184D01*
X76181557Y57901588D01*
X76247246Y58103757D01*
X76280500Y58313713D01*
X76280500Y58526287D01*
X76247246Y58736243D01*
X76181557Y58938412D01*
X76085051Y59127816D01*
X76085049Y59127819D01*
X76085048Y59127821D01*
X75960109Y59299787D01*
X75809786Y59450110D01*
X75637820Y59575049D01*
X75637115Y59575409D01*
X75629054Y59579515D01*
X75578259Y59627488D01*
X75561463Y59695308D01*
X75583999Y59761444D01*
X75629054Y59800485D01*
X75637816Y59804949D01*
X75659789Y59820914D01*
X75809786Y59929891D01*
X75809788Y59929894D01*
X75809792Y59929896D01*
X75960104Y60080208D01*
X75960106Y60080212D01*
X75960109Y60080214D01*
X76085048Y60252180D01*
X76085047Y60252180D01*
X76085051Y60252184D01*
X76181557Y60441588D01*
X76247246Y60643757D01*
X76280500Y60853713D01*
X76280500Y61066287D01*
X76247246Y61276243D01*
X76181557Y61478412D01*
X76085051Y61667816D01*
X76085049Y61667819D01*
X76085048Y61667821D01*
X75960109Y61839787D01*
X75809786Y61990110D01*
X75637820Y62115049D01*
X75637115Y62115409D01*
X75629054Y62119515D01*
X75578259Y62167488D01*
X75561463Y62235308D01*
X75583999Y62301444D01*
X75629054Y62340485D01*
X75637816Y62344949D01*
X75659789Y62360914D01*
X75809786Y62469891D01*
X75809788Y62469894D01*
X75809792Y62469896D01*
X75960104Y62620208D01*
X75960106Y62620212D01*
X75960109Y62620214D01*
X76085048Y62792180D01*
X76085047Y62792180D01*
X76085051Y62792184D01*
X76181557Y62981588D01*
X76247246Y63183757D01*
X76280500Y63393713D01*
X76280500Y63606287D01*
X76247246Y63816243D01*
X76181557Y64018412D01*
X76085051Y64207816D01*
X76085049Y64207819D01*
X76085048Y64207821D01*
X75960109Y64379787D01*
X75809786Y64530110D01*
X75637820Y64655049D01*
X75637115Y64655409D01*
X75629054Y64659515D01*
X75578259Y64707488D01*
X75561463Y64775308D01*
X75583999Y64841444D01*
X75629054Y64880485D01*
X75637816Y64884949D01*
X75659789Y64900914D01*
X75809786Y65009891D01*
X75809788Y65009894D01*
X75809792Y65009896D01*
X75960104Y65160208D01*
X75960106Y65160212D01*
X75960109Y65160214D01*
X76085048Y65332180D01*
X76085047Y65332180D01*
X76085051Y65332184D01*
X76181557Y65521588D01*
X76247246Y65723757D01*
X76280500Y65933713D01*
X76280500Y66146287D01*
X76247246Y66356243D01*
X76181557Y66558412D01*
X76085051Y66747816D01*
X76085049Y66747819D01*
X76085048Y66747821D01*
X75960109Y66919787D01*
X75809786Y67070110D01*
X75637820Y67195049D01*
X75637115Y67195409D01*
X75629054Y67199515D01*
X75578259Y67247488D01*
X75561463Y67315308D01*
X75583999Y67381444D01*
X75629054Y67420485D01*
X75637816Y67424949D01*
X75692572Y67464731D01*
X75809786Y67549891D01*
X75809788Y67549894D01*
X75809792Y67549896D01*
X75960104Y67700208D01*
X75960106Y67700212D01*
X75960109Y67700214D01*
X76085048Y67872180D01*
X76085047Y67872180D01*
X76085051Y67872184D01*
X76181557Y68061588D01*
X76247246Y68263757D01*
X76280500Y68473713D01*
X76280500Y68686287D01*
X76247246Y68896243D01*
X76181557Y69098412D01*
X76085051Y69287816D01*
X76085049Y69287819D01*
X76085048Y69287821D01*
X75960109Y69459787D01*
X75809786Y69610110D01*
X75637817Y69735051D01*
X75628504Y69739796D01*
X75577707Y69787770D01*
X75560912Y69855591D01*
X75583449Y69921726D01*
X75628507Y69960768D01*
X75637555Y69965378D01*
X75691716Y70004730D01*
X75691717Y70004730D01*
X75059408Y70637038D01*
X75122993Y70654075D01*
X75237007Y70719901D01*
X75330099Y70812993D01*
X75395925Y70927007D01*
X75412962Y70990592D01*
X76045270Y70358283D01*
X76045270Y70358284D01*
X76084622Y70412446D01*
X76181095Y70601783D01*
X76246757Y70803870D01*
X76246757Y70803873D01*
X76280000Y71013754D01*
X76280000Y71226247D01*
X76246757Y71436128D01*
X76246757Y71436131D01*
X76181095Y71638218D01*
X76084624Y71827551D01*
X76045270Y71881718D01*
X76045269Y71881718D01*
X75412962Y71249410D01*
X75395925Y71312993D01*
X75330099Y71427007D01*
X75237007Y71520099D01*
X75122993Y71585925D01*
X75059409Y71602963D01*
X75691716Y72235272D01*
X75637547Y72274627D01*
X75637547Y72274628D01*
X75628500Y72279237D01*
X75577706Y72327212D01*
X75560912Y72395034D01*
X75583451Y72461168D01*
X75628508Y72500207D01*
X75637816Y72504949D01*
X75717007Y72562485D01*
X75809786Y72629891D01*
X75809788Y72629894D01*
X75809792Y72629896D01*
X75960104Y72780208D01*
X75960106Y72780212D01*
X75960109Y72780214D01*
X76085048Y72952180D01*
X76085047Y72952180D01*
X76085051Y72952184D01*
X76181557Y73141588D01*
X76247246Y73343757D01*
X76280500Y73553713D01*
X76280500Y73766287D01*
X76247246Y73976243D01*
X76181557Y74178412D01*
X76085051Y74367816D01*
X76085049Y74367819D01*
X76085048Y74367821D01*
X75960109Y74539787D01*
X75809786Y74690110D01*
X75637820Y74815049D01*
X75637115Y74815409D01*
X75629054Y74819515D01*
X75578259Y74867488D01*
X75561463Y74935308D01*
X75583999Y75001444D01*
X75629054Y75040485D01*
X75637816Y75044949D01*
X75692572Y75084731D01*
X75809786Y75169891D01*
X75809788Y75169894D01*
X75809792Y75169896D01*
X75960104Y75320208D01*
X75960106Y75320212D01*
X75960109Y75320214D01*
X76085048Y75492180D01*
X76085047Y75492180D01*
X76085051Y75492184D01*
X76181557Y75681588D01*
X76247246Y75883757D01*
X76280500Y76093713D01*
X76280500Y76306287D01*
X76247246Y76516243D01*
X76181557Y76718412D01*
X76085051Y76907816D01*
X76085049Y76907819D01*
X76085048Y76907821D01*
X75960109Y77079787D01*
X75809786Y77230110D01*
X75637820Y77355049D01*
X75629600Y77359237D01*
X75629054Y77359515D01*
X75578259Y77407488D01*
X75561463Y77475308D01*
X75583999Y77541444D01*
X75629054Y77580485D01*
X75637816Y77584949D01*
X75736187Y77656419D01*
X75809786Y77709891D01*
X75809788Y77709894D01*
X75809792Y77709896D01*
X75960104Y77860208D01*
X75960106Y77860212D01*
X75960109Y77860214D01*
X76069202Y78010370D01*
X76085051Y78032184D01*
X76181557Y78221588D01*
X76247246Y78423757D01*
X76280500Y78633713D01*
X76280500Y78846287D01*
X76247246Y79056243D01*
X76181557Y79258412D01*
X76085051Y79447816D01*
X76085049Y79447819D01*
X76085048Y79447821D01*
X75960109Y79619787D01*
X75809786Y79770110D01*
X75637820Y79895049D01*
X75629600Y79899237D01*
X75629054Y79899515D01*
X75578259Y79947488D01*
X75561463Y80015308D01*
X75583999Y80081444D01*
X75629054Y80120485D01*
X75637816Y80124949D01*
X75659789Y80140914D01*
X75809786Y80249891D01*
X75809788Y80249894D01*
X75809792Y80249896D01*
X75960104Y80400208D01*
X75960106Y80400212D01*
X75960109Y80400214D01*
X76069086Y80550211D01*
X76085051Y80572184D01*
X76181557Y80761588D01*
X76247246Y80963757D01*
X76280500Y81173713D01*
X76280500Y81386287D01*
X76247246Y81596243D01*
X76181557Y81798412D01*
X76085051Y81987816D01*
X76085049Y81987819D01*
X76085048Y81987821D01*
X75960109Y82159787D01*
X75809786Y82310110D01*
X75637820Y82435049D01*
X75637115Y82435409D01*
X75629054Y82439515D01*
X75578259Y82487488D01*
X75561463Y82555308D01*
X75583999Y82621444D01*
X75629054Y82660485D01*
X75637816Y82664949D01*
X75692572Y82704731D01*
X75809786Y82789891D01*
X75809788Y82789894D01*
X75809792Y82789896D01*
X75960104Y82940208D01*
X75960106Y82940212D01*
X75960109Y82940214D01*
X76069086Y83090211D01*
X76085051Y83112184D01*
X76181557Y83301588D01*
X76247246Y83503757D01*
X76280500Y83713713D01*
X76280500Y83926287D01*
X76247246Y84136243D01*
X76181557Y84338412D01*
X76085051Y84527816D01*
X76085049Y84527819D01*
X76085048Y84527821D01*
X75960109Y84699787D01*
X75809786Y84850110D01*
X75637820Y84975049D01*
X75629600Y84979237D01*
X75629054Y84979515D01*
X75578259Y85027488D01*
X75561463Y85095308D01*
X75583999Y85161444D01*
X75629054Y85200485D01*
X75637816Y85204949D01*
X75692572Y85244731D01*
X75809786Y85329891D01*
X75809788Y85329894D01*
X75809792Y85329896D01*
X75960104Y85480208D01*
X75960106Y85480212D01*
X75960109Y85480214D01*
X76069086Y85630211D01*
X76085051Y85652184D01*
X76181557Y85841588D01*
X76247246Y86043757D01*
X76280500Y86253713D01*
X76280500Y86466287D01*
X76247246Y86676243D01*
X76181557Y86878412D01*
X76085051Y87067816D01*
X76085049Y87067819D01*
X76085048Y87067821D01*
X75960109Y87239787D01*
X75809786Y87390110D01*
X75637820Y87515049D01*
X75629600Y87519237D01*
X75629054Y87519515D01*
X75578259Y87567488D01*
X75561463Y87635308D01*
X75583999Y87701444D01*
X75629054Y87740485D01*
X75637816Y87744949D01*
X75659789Y87760914D01*
X75809786Y87869891D01*
X75809788Y87869894D01*
X75809792Y87869896D01*
X75960104Y88020208D01*
X75960106Y88020212D01*
X75960109Y88020214D01*
X76069086Y88170211D01*
X76085051Y88192184D01*
X76181557Y88381588D01*
X76247246Y88583757D01*
X76280500Y88793713D01*
X76280500Y89006287D01*
X76247246Y89216243D01*
X76181557Y89418412D01*
X76085051Y89607816D01*
X76085049Y89607819D01*
X76085048Y89607821D01*
X75960109Y89779787D01*
X75809786Y89930110D01*
X75637820Y90055049D01*
X75637115Y90055409D01*
X75629054Y90059515D01*
X75578259Y90107488D01*
X75561463Y90175308D01*
X75583999Y90241444D01*
X75629054Y90280485D01*
X75637816Y90284949D01*
X75659789Y90300914D01*
X75809786Y90409891D01*
X75809788Y90409894D01*
X75809792Y90409896D01*
X75960104Y90560208D01*
X75960106Y90560212D01*
X75960109Y90560214D01*
X76069086Y90710211D01*
X76085051Y90732184D01*
X76181557Y90921588D01*
X76247246Y91123757D01*
X76280500Y91333713D01*
X76280500Y91546287D01*
X76247246Y91756243D01*
X76181557Y91958412D01*
X76085051Y92147816D01*
X76085049Y92147819D01*
X76085048Y92147821D01*
X75960109Y92319787D01*
X75809786Y92470110D01*
X75637820Y92595049D01*
X75637115Y92595409D01*
X75629054Y92599515D01*
X75578259Y92647488D01*
X75561463Y92715308D01*
X75583999Y92781444D01*
X75629054Y92820485D01*
X75637816Y92824949D01*
X75724138Y92887665D01*
X75809786Y92949891D01*
X75809788Y92949894D01*
X75809792Y92949896D01*
X75960104Y93100208D01*
X75960106Y93100212D01*
X75960109Y93100214D01*
X76069086Y93250211D01*
X76085051Y93272184D01*
X76181557Y93461588D01*
X76247246Y93663757D01*
X76280500Y93873713D01*
X76280500Y94086287D01*
X76247246Y94296243D01*
X76181557Y94498412D01*
X76085051Y94687816D01*
X76085049Y94687819D01*
X76085048Y94687821D01*
X75960109Y94859787D01*
X75809786Y95010110D01*
X75637820Y95135049D01*
X75448414Y95231556D01*
X75448413Y95231557D01*
X75448412Y95231557D01*
X75246243Y95297246D01*
X75246241Y95297247D01*
X75246240Y95297247D01*
X75084957Y95322792D01*
X75036287Y95330500D01*
X74823713Y95330500D01*
X74775042Y95322792D01*
X74613760Y95297247D01*
X74411585Y95231556D01*
X74222179Y95135049D01*
X74050215Y95010111D01*
X73936673Y94896569D01*
X73875350Y94863085D01*
X73805658Y94868069D01*
X73749725Y94909941D01*
X73732810Y94940918D01*
X73683797Y95072329D01*
X73683793Y95072336D01*
X73597547Y95187545D01*
X73597544Y95187548D01*
X73482335Y95273794D01*
X73482328Y95273798D01*
X73347482Y95324092D01*
X73347483Y95324092D01*
X73287883Y95330499D01*
X73287881Y95330500D01*
X73287873Y95330500D01*
X73287864Y95330500D01*
X71492129Y95330500D01*
X71492123Y95330499D01*
X71432516Y95324092D01*
X71297671Y95273798D01*
X71297664Y95273794D01*
X71182455Y95187548D01*
X71182452Y95187545D01*
X71096206Y95072336D01*
X71096202Y95072329D01*
X71045908Y94937483D01*
X71039501Y94877884D01*
X71039500Y94877865D01*
X71039500Y93082130D01*
X71039501Y93082124D01*
X71045908Y93022517D01*
X71096202Y92887672D01*
X71096206Y92887665D01*
X71182452Y92772456D01*
X71182455Y92772453D01*
X71297664Y92686207D01*
X71297671Y92686203D01*
X71429082Y92637190D01*
X71485016Y92595319D01*
X71509433Y92529855D01*
X71494582Y92461582D01*
X71473431Y92433327D01*
X71359889Y92319785D01*
X71234951Y92147821D01*
X71138444Y91958415D01*
X71072753Y91756240D01*
X71069256Y91734160D01*
X71039500Y91546287D01*
X71039500Y91333713D01*
X71072754Y91123757D01*
X71079928Y91101677D01*
X71138444Y90921586D01*
X71234951Y90732180D01*
X71359890Y90560214D01*
X71510213Y90409891D01*
X71682182Y90284950D01*
X71690946Y90280484D01*
X71741742Y90232509D01*
X71758536Y90164688D01*
X71735998Y90098553D01*
X71690946Y90059516D01*
X71682182Y90055051D01*
X71510213Y89930110D01*
X71359890Y89779787D01*
X71234951Y89607821D01*
X71138444Y89418415D01*
X71072753Y89216240D01*
X71069256Y89194160D01*
X71039500Y89006287D01*
X71039500Y88793713D01*
X71072754Y88583757D01*
X71079928Y88561677D01*
X71138444Y88381586D01*
X71234951Y88192180D01*
X71359890Y88020214D01*
X71510213Y87869891D01*
X71682182Y87744950D01*
X71690946Y87740484D01*
X71741742Y87692509D01*
X71758536Y87624688D01*
X71735998Y87558553D01*
X71690946Y87519516D01*
X71682182Y87515051D01*
X71510213Y87390110D01*
X71359890Y87239787D01*
X71234951Y87067821D01*
X71138444Y86878415D01*
X71072753Y86676240D01*
X71039500Y86466287D01*
X71039500Y86253714D01*
X71072735Y86043873D01*
X71072754Y86043757D01*
X71079928Y86021677D01*
X71138444Y85841586D01*
X71234951Y85652180D01*
X71359890Y85480214D01*
X71510213Y85329891D01*
X71682179Y85204952D01*
X71682181Y85204951D01*
X71682184Y85204949D01*
X71691493Y85200206D01*
X71742290Y85152234D01*
X71759087Y85084413D01*
X71736552Y85018278D01*
X71691505Y84979240D01*
X71682446Y84974624D01*
X71682440Y84974620D01*
X71628282Y84935273D01*
X71628282Y84935272D01*
X72260591Y84302963D01*
X72197007Y84285925D01*
X72082993Y84220099D01*
X71989901Y84127007D01*
X71924075Y84012993D01*
X71907037Y83949409D01*
X71274728Y84581718D01*
X71274727Y84581718D01*
X71235380Y84527561D01*
X71138904Y84338218D01*
X71073242Y84136131D01*
X71073242Y84136128D01*
X71040000Y83926247D01*
X71040000Y83713754D01*
X71073242Y83503873D01*
X71073242Y83503870D01*
X71138904Y83301783D01*
X71235375Y83112450D01*
X71274728Y83058284D01*
X71907037Y83690592D01*
X71924075Y83627007D01*
X71989901Y83512993D01*
X72082993Y83419901D01*
X72197007Y83354075D01*
X72260590Y83337038D01*
X71628282Y82704731D01*
X71628282Y82704730D01*
X71682452Y82665374D01*
X71682451Y82665374D01*
X71691495Y82660766D01*
X71742292Y82612792D01*
X71759087Y82544971D01*
X71736550Y82478836D01*
X71691499Y82439798D01*
X71682182Y82435051D01*
X71510213Y82310110D01*
X71359890Y82159787D01*
X71234951Y81987821D01*
X71138444Y81798415D01*
X71072753Y81596240D01*
X71069256Y81574160D01*
X71039500Y81386287D01*
X71039500Y81173713D01*
X71072754Y80963757D01*
X71079928Y80941677D01*
X71138444Y80761586D01*
X71234951Y80572180D01*
X71359890Y80400214D01*
X71510213Y80249891D01*
X71682182Y80124950D01*
X71690946Y80120484D01*
X71741742Y80072509D01*
X71758536Y80004688D01*
X71735998Y79938553D01*
X71690946Y79899516D01*
X71682182Y79895051D01*
X71510213Y79770110D01*
X71359890Y79619787D01*
X71234951Y79447821D01*
X71138444Y79258415D01*
X71072753Y79056240D01*
X71039500Y78846287D01*
X71039500Y78633714D01*
X71072735Y78423873D01*
X71072754Y78423757D01*
X71092051Y78364366D01*
X71138444Y78221586D01*
X71234951Y78032180D01*
X71359890Y77860214D01*
X71510213Y77709891D01*
X71682182Y77584950D01*
X71690946Y77580484D01*
X71741742Y77532509D01*
X71758536Y77464688D01*
X71735998Y77398553D01*
X71690946Y77359516D01*
X71682182Y77355051D01*
X71510213Y77230110D01*
X71359890Y77079787D01*
X71234951Y76907821D01*
X71138444Y76718415D01*
X71072753Y76516240D01*
X71039500Y76306287D01*
X71039500Y76093714D01*
X71072735Y75883873D01*
X71072754Y75883757D01*
X71092051Y75824366D01*
X71138444Y75681586D01*
X71234951Y75492180D01*
X71359890Y75320214D01*
X71510213Y75169891D01*
X71682182Y75044950D01*
X71690946Y75040484D01*
X71741742Y74992509D01*
X71758536Y74924688D01*
X71735998Y74858553D01*
X71690946Y74819516D01*
X71682182Y74815051D01*
X71510213Y74690110D01*
X71359892Y74539789D01*
X71303097Y74461615D01*
X71247767Y74418949D01*
X71202779Y74410500D01*
X64114610Y74410500D01*
X64047571Y74430185D01*
X64040641Y74435229D01*
X63873920Y74546629D01*
X63873907Y74546636D01*
X63691839Y74622050D01*
X63691829Y74622053D01*
X63498543Y74660500D01*
X63498541Y74660500D01*
X63301459Y74660500D01*
X63301457Y74660500D01*
X63108170Y74622053D01*
X63108160Y74622050D01*
X62926092Y74546636D01*
X62926079Y74546629D01*
X62762218Y74437140D01*
X62762214Y74437137D01*
X62622863Y74297786D01*
X62622860Y74297782D01*
X62513371Y74133921D01*
X62513364Y74133908D01*
X62437950Y73951840D01*
X62437947Y73951830D01*
X62399500Y73758544D01*
X62399500Y73758541D01*
X62399500Y73561459D01*
X62399500Y73561457D01*
X62399499Y73561457D01*
X62437947Y73368171D01*
X62437950Y73368161D01*
X62513364Y73186093D01*
X62513371Y73186080D01*
X62622860Y73022219D01*
X62622863Y73022215D01*
X62762214Y72882864D01*
X62762218Y72882861D01*
X62926079Y72773372D01*
X62926092Y72773365D01*
X63108160Y72697951D01*
X63108165Y72697949D01*
X63108169Y72697949D01*
X63108170Y72697948D01*
X63301456Y72659500D01*
X63301459Y72659500D01*
X63498543Y72659500D01*
X63628582Y72685368D01*
X63691835Y72697949D01*
X63873914Y72773368D01*
X64037782Y72882861D01*
X64037781Y72882861D01*
X64042847Y72886245D01*
X64043867Y72884718D01*
X64100255Y72908666D01*
X64114610Y72909500D01*
X71202779Y72909500D01*
X71269818Y72889815D01*
X71303097Y72858385D01*
X71359892Y72780212D01*
X71510213Y72629891D01*
X71682182Y72504950D01*
X71690946Y72500484D01*
X71741742Y72452509D01*
X71758536Y72384688D01*
X71735998Y72318553D01*
X71690946Y72279516D01*
X71682182Y72275051D01*
X71510213Y72150110D01*
X71359892Y71999789D01*
X71303097Y71921615D01*
X71247767Y71878949D01*
X71202779Y71870500D01*
X60320605Y71870500D01*
X60253566Y71890185D01*
X60207811Y71942989D01*
X60206060Y71947010D01*
X60186632Y71993914D01*
X60182704Y71999792D01*
X60077139Y72157783D01*
X59937785Y72297137D01*
X59937781Y72297140D01*
X59773920Y72406629D01*
X59773907Y72406636D01*
X59591839Y72482050D01*
X59591829Y72482053D01*
X59398543Y72520500D01*
X59398541Y72520500D01*
X59201459Y72520500D01*
X59201457Y72520500D01*
X59008170Y72482053D01*
X59008160Y72482050D01*
X58826092Y72406636D01*
X58826079Y72406629D01*
X58662218Y72297140D01*
X58662214Y72297137D01*
X58522863Y72157786D01*
X58522860Y72157782D01*
X58413371Y71993921D01*
X58413364Y71993908D01*
X58337950Y71811840D01*
X58337947Y71811830D01*
X58299500Y71618544D01*
X58299500Y71618541D01*
X58299500Y71421459D01*
X58299500Y71421457D01*
X58299499Y71421457D01*
X15289081Y71421457D01*
X15286757Y71436128D01*
X15286757Y71436131D01*
X15237960Y71586315D01*
X15221094Y71638219D01*
X15124624Y71827551D01*
X15085270Y71881718D01*
X15085269Y71881718D01*
X14452962Y71249410D01*
X14435925Y71312993D01*
X14370099Y71427007D01*
X14277007Y71520099D01*
X14162993Y71585925D01*
X14099409Y71602963D01*
X14731716Y72235272D01*
X14677547Y72274627D01*
X14677547Y72274628D01*
X14668500Y72279237D01*
X14617706Y72327212D01*
X14600912Y72395034D01*
X14623451Y72461168D01*
X14668508Y72500207D01*
X14677816Y72504949D01*
X14757007Y72562485D01*
X14849786Y72629891D01*
X14849788Y72629894D01*
X14849792Y72629896D01*
X15000104Y72780208D01*
X15000106Y72780212D01*
X15000109Y72780214D01*
X15125048Y72952180D01*
X15125047Y72952180D01*
X15125051Y72952184D01*
X15221557Y73141588D01*
X15287246Y73343757D01*
X15320500Y73553713D01*
X15320500Y73766287D01*
X15287246Y73976243D01*
X15221557Y74178412D01*
X15125051Y74367816D01*
X15125049Y74367819D01*
X15125048Y74367821D01*
X15000109Y74539787D01*
X14849786Y74690110D01*
X14677820Y74815049D01*
X14677115Y74815409D01*
X14669054Y74819515D01*
X14618259Y74867488D01*
X14601463Y74935308D01*
X14623999Y75001444D01*
X14669054Y75040485D01*
X14677816Y75044949D01*
X14732572Y75084731D01*
X14849786Y75169891D01*
X14849788Y75169894D01*
X14849792Y75169896D01*
X15000104Y75320208D01*
X15000106Y75320212D01*
X15000109Y75320214D01*
X15125048Y75492180D01*
X15125047Y75492180D01*
X15125051Y75492184D01*
X15221557Y75681588D01*
X15287246Y75883757D01*
X15320500Y76093713D01*
X15320500Y76306287D01*
X15287246Y76516243D01*
X15221557Y76718412D01*
X15125051Y76907816D01*
X15125049Y76907819D01*
X15125048Y76907821D01*
X15000109Y77079787D01*
X14849786Y77230110D01*
X14677820Y77355049D01*
X14669600Y77359237D01*
X14669054Y77359515D01*
X14618259Y77407488D01*
X14601463Y77475308D01*
X14623999Y77541444D01*
X14669054Y77580485D01*
X14677816Y77584949D01*
X14776187Y77656419D01*
X14849786Y77709891D01*
X14849788Y77709894D01*
X14849792Y77709896D01*
X15000104Y77860208D01*
X15000106Y77860212D01*
X15000109Y77860214D01*
X15109202Y78010370D01*
X15125051Y78032184D01*
X15221557Y78221588D01*
X15287246Y78423757D01*
X15320500Y78633713D01*
X15320500Y78846287D01*
X15287246Y79056243D01*
X15221557Y79258412D01*
X15125051Y79447816D01*
X15125049Y79447819D01*
X15125048Y79447821D01*
X15000109Y79619787D01*
X14849786Y79770110D01*
X14677820Y79895049D01*
X14669600Y79899237D01*
X14669054Y79899515D01*
X14618259Y79947488D01*
X14601463Y80015308D01*
X14623999Y80081444D01*
X14669054Y80120485D01*
X14677816Y80124949D01*
X14699789Y80140914D01*
X14849786Y80249891D01*
X14849788Y80249894D01*
X14849792Y80249896D01*
X15000104Y80400208D01*
X15000106Y80400212D01*
X15000109Y80400214D01*
X15109086Y80550211D01*
X15125051Y80572184D01*
X15221557Y80761588D01*
X15287246Y80963757D01*
X15320500Y81173713D01*
X15320500Y81386287D01*
X15287246Y81596243D01*
X15221557Y81798412D01*
X15125051Y81987816D01*
X15125049Y81987819D01*
X15125048Y81987821D01*
X15000109Y82159787D01*
X14849786Y82310110D01*
X14677820Y82435049D01*
X14677115Y82435409D01*
X14669054Y82439515D01*
X14618259Y82487488D01*
X14601463Y82555308D01*
X14623999Y82621444D01*
X14669054Y82660485D01*
X14677816Y82664949D01*
X14732572Y82704731D01*
X14849786Y82789891D01*
X14849788Y82789894D01*
X14849792Y82789896D01*
X15000104Y82940208D01*
X15000106Y82940212D01*
X15000109Y82940214D01*
X15109086Y83090211D01*
X15125051Y83112184D01*
X15221557Y83301588D01*
X15287246Y83503757D01*
X15320500Y83713713D01*
X15320500Y83926287D01*
X15287246Y84136243D01*
X15221557Y84338412D01*
X15125051Y84527816D01*
X15125049Y84527819D01*
X15125048Y84527821D01*
X15000109Y84699787D01*
X14849786Y84850110D01*
X14677817Y84975051D01*
X14668504Y84979796D01*
X14617707Y85027770D01*
X14600912Y85095591D01*
X14623449Y85161726D01*
X14668507Y85200768D01*
X14677555Y85205378D01*
X14731716Y85244730D01*
X14731717Y85244730D01*
X14099408Y85877038D01*
X14162993Y85894075D01*
X14277007Y85959901D01*
X14370099Y86052993D01*
X14435925Y86167007D01*
X14452962Y86230592D01*
X15085270Y85598283D01*
X15085270Y85598284D01*
X15124622Y85652446D01*
X15221095Y85841783D01*
X15286757Y86043870D01*
X15286757Y86043873D01*
X15320000Y86253754D01*
X15320000Y86466247D01*
X15286757Y86676128D01*
X15286757Y86676131D01*
X15221095Y86878218D01*
X15124624Y87067551D01*
X15085270Y87121718D01*
X15085269Y87121718D01*
X14452962Y86489410D01*
X14435925Y86552993D01*
X14370099Y86667007D01*
X14277007Y86760099D01*
X14162993Y86825925D01*
X14099409Y86842963D01*
X14731716Y87475272D01*
X14677547Y87514627D01*
X14677547Y87514628D01*
X14668500Y87519237D01*
X14617706Y87567212D01*
X14600912Y87635034D01*
X14623451Y87701168D01*
X14668508Y87740207D01*
X14677816Y87744949D01*
X14757007Y87802485D01*
X14849786Y87869891D01*
X14849788Y87869894D01*
X14849792Y87869896D01*
X15000104Y88020208D01*
X15000106Y88020212D01*
X15000109Y88020214D01*
X15109086Y88170211D01*
X15125051Y88192184D01*
X15221557Y88381588D01*
X15287246Y88583757D01*
X15320500Y88793713D01*
X15320500Y89006287D01*
X15287246Y89216243D01*
X15221557Y89418412D01*
X15125051Y89607816D01*
X15125049Y89607819D01*
X15125048Y89607821D01*
X15000109Y89779787D01*
X14849786Y89930110D01*
X14677820Y90055049D01*
X14677115Y90055409D01*
X14669054Y90059515D01*
X14618259Y90107488D01*
X14601463Y90175308D01*
X14623999Y90241444D01*
X14669054Y90280485D01*
X14677816Y90284949D01*
X14699789Y90300914D01*
X14849786Y90409891D01*
X14849788Y90409894D01*
X14849792Y90409896D01*
X15000104Y90560208D01*
X15000106Y90560212D01*
X15000109Y90560214D01*
X15109086Y90710211D01*
X15125051Y90732184D01*
X15221557Y90921588D01*
X15287246Y91123757D01*
X15320500Y91333713D01*
X15320500Y91546287D01*
X15287246Y91756243D01*
X15221557Y91958412D01*
X15125051Y92147816D01*
X15125049Y92147819D01*
X15125048Y92147821D01*
X15000109Y92319787D01*
X14849786Y92470110D01*
X14677820Y92595049D01*
X14677115Y92595409D01*
X14669054Y92599515D01*
X14618259Y92647488D01*
X14601463Y92715308D01*
X14623999Y92781444D01*
X14669054Y92820485D01*
X14677816Y92824949D01*
X14764138Y92887665D01*
X14849786Y92949891D01*
X14849788Y92949894D01*
X14849792Y92949896D01*
X15000104Y93100208D01*
X15000106Y93100212D01*
X15000109Y93100214D01*
X15109086Y93250211D01*
X15125051Y93272184D01*
X15221557Y93461588D01*
X15287246Y93663757D01*
X15320500Y93873713D01*
X15320500Y94086287D01*
X15287246Y94296243D01*
X15221557Y94498412D01*
X15125051Y94687816D01*
X15125049Y94687819D01*
X15125048Y94687821D01*
X15000109Y94859787D01*
X14849786Y95010110D01*
X14677820Y95135049D01*
X14488414Y95231556D01*
X14488413Y95231557D01*
X14488412Y95231557D01*
X14286243Y95297246D01*
X14286241Y95297247D01*
X14286240Y95297247D01*
X14124957Y95322792D01*
X14076287Y95330500D01*
X13863713Y95330500D01*
X13815042Y95322792D01*
X13653760Y95297247D01*
X13451585Y95231556D01*
X13262179Y95135049D01*
X13090215Y95010111D01*
X12976673Y94896569D01*
X12915350Y94863085D01*
X12845658Y94868069D01*
X12789725Y94909941D01*
X12772810Y94940918D01*
X12723797Y95072329D01*
X12723793Y95072336D01*
X12637547Y95187545D01*
X12637544Y95187548D01*
X12522335Y95273794D01*
X12522328Y95273798D01*
X12387482Y95324092D01*
X12387483Y95324092D01*
X12327883Y95330499D01*
X12327881Y95330500D01*
X12327873Y95330500D01*
X12327864Y95330500D01*
X10532129Y95330500D01*
X10532123Y95330499D01*
X10472516Y95324092D01*
X10337671Y95273798D01*
X10337664Y95273794D01*
X10222455Y95187548D01*
X10222452Y95187545D01*
X10136206Y95072336D01*
X10136202Y95072329D01*
X10085908Y94937483D01*
X10079501Y94877884D01*
X10079500Y94877865D01*
X500500Y94877865D01*
X500500Y104901457D01*
X55599499Y104901457D01*
X55637947Y104708171D01*
X55637950Y104708161D01*
X55713364Y104526093D01*
X55713371Y104526080D01*
X55822860Y104362219D01*
X55822863Y104362215D01*
X55962214Y104222864D01*
X55962218Y104222861D01*
X56126079Y104113372D01*
X56126092Y104113365D01*
X56308160Y104037951D01*
X56308165Y104037949D01*
X56308169Y104037949D01*
X56308170Y104037948D01*
X56501456Y103999500D01*
X56501459Y103999500D01*
X56698543Y103999500D01*
X56870544Y104033714D01*
X56891835Y104037949D01*
X57073914Y104113368D01*
X57098529Y104129815D01*
X57242847Y104226245D01*
X57243867Y104224718D01*
X57300255Y104248666D01*
X57314610Y104249500D01*
X57986160Y104249500D01*
X58038520Y104236386D01*
X58038878Y104237247D01*
X58044504Y104234917D01*
X58044505Y104234916D01*
X58181087Y104178342D01*
X58181091Y104178342D01*
X58181092Y104178341D01*
X58326079Y104149500D01*
X58326082Y104149500D01*
X69485390Y104149500D01*
X69552429Y104129815D01*
X69559358Y104124772D01*
X69726079Y104013372D01*
X69726092Y104013365D01*
X69908160Y103937951D01*
X69908165Y103937949D01*
X69908169Y103937949D01*
X69908170Y103937948D01*
X70101456Y103899500D01*
X70101459Y103899500D01*
X70298543Y103899500D01*
X70428582Y103925368D01*
X70491835Y103937949D01*
X70640433Y103999500D01*
X70673907Y104013365D01*
X70673907Y104013366D01*
X70673914Y104013368D01*
X70837782Y104122861D01*
X70977139Y104262218D01*
X71086632Y104426086D01*
X71162051Y104608165D01*
X71181942Y104708161D01*
X71200500Y104801457D01*
X71200500Y104998544D01*
X71162052Y105191830D01*
X71162051Y105191831D01*
X71162051Y105191835D01*
X71162049Y105191840D01*
X71086635Y105373908D01*
X71086628Y105373921D01*
X70977139Y105537782D01*
X70977136Y105537786D01*
X70837785Y105677137D01*
X70837781Y105677140D01*
X70673920Y105786629D01*
X70673907Y105786636D01*
X70491839Y105862050D01*
X70491829Y105862053D01*
X70298543Y105900500D01*
X70298541Y105900500D01*
X70101459Y105900500D01*
X70101457Y105900500D01*
X69908170Y105862053D01*
X69908160Y105862050D01*
X69726092Y105786636D01*
X69726079Y105786629D01*
X69557153Y105673755D01*
X69556132Y105675283D01*
X69499745Y105651334D01*
X69485390Y105650500D01*
X58713840Y105650500D01*
X58661479Y105663615D01*
X58661122Y105662753D01*
X58655495Y105665084D01*
X58518913Y105721658D01*
X58518907Y105721660D01*
X58373920Y105750500D01*
X58373918Y105750500D01*
X57314610Y105750500D01*
X57247571Y105770185D01*
X57240641Y105775229D01*
X57073920Y105886629D01*
X57073907Y105886636D01*
X56891839Y105962050D01*
X56891829Y105962053D01*
X56698543Y106000500D01*
X56698541Y106000500D01*
X56501459Y106000500D01*
X56501457Y106000500D01*
X56308170Y105962053D01*
X56308160Y105962050D01*
X56126092Y105886636D01*
X56126079Y105886629D01*
X55962218Y105777140D01*
X55962214Y105777137D01*
X55822863Y105637786D01*
X55822860Y105637782D01*
X55713371Y105473921D01*
X55713364Y105473908D01*
X55637950Y105291840D01*
X55637947Y105291830D01*
X55599500Y105098544D01*
X55599500Y105098541D01*
X55599500Y104901459D01*
X55599500Y104901457D01*
X55599499Y104901457D01*
X500500Y104901457D01*
X500500Y111601457D01*
X59699499Y111601457D01*
X59737947Y111408171D01*
X59737950Y111408161D01*
X59813364Y111226093D01*
X59813371Y111226080D01*
X59922860Y111062219D01*
X59922863Y111062215D01*
X60062214Y110922864D01*
X60062218Y110922861D01*
X60226079Y110813372D01*
X60226092Y110813365D01*
X60408160Y110737951D01*
X60408165Y110737949D01*
X60408169Y110737949D01*
X60408170Y110737948D01*
X60601456Y110699500D01*
X60601459Y110699500D01*
X60798543Y110699500D01*
X60951350Y110729896D01*
X60991835Y110737949D01*
X61173914Y110813368D01*
X61230664Y110851287D01*
X61342847Y110926245D01*
X61343867Y110924718D01*
X61400255Y110948666D01*
X61414610Y110949500D01*
X73441486Y110949500D01*
X73508525Y110929815D01*
X73510377Y110928602D01*
X73626086Y110851288D01*
X73626087Y110851288D01*
X73626088Y110851287D01*
X73717641Y110813365D01*
X73808165Y110775869D01*
X73808169Y110775869D01*
X73808170Y110775868D01*
X74001456Y110737420D01*
X74001459Y110737420D01*
X74198543Y110737420D01*
X74328582Y110763288D01*
X74391835Y110775869D01*
X74573914Y110851288D01*
X74737782Y110960781D01*
X74877139Y111100138D01*
X74986632Y111264006D01*
X75062051Y111446085D01*
X75092957Y111601459D01*
X75100500Y111639377D01*
X75100500Y111836464D01*
X75062052Y112029750D01*
X75062051Y112029751D01*
X75062051Y112029755D01*
X75051941Y112054163D01*
X74986635Y112211828D01*
X74986628Y112211841D01*
X74877139Y112375702D01*
X74877136Y112375706D01*
X74737785Y112515057D01*
X74737781Y112515060D01*
X74573920Y112624549D01*
X74573907Y112624556D01*
X74391839Y112699970D01*
X74391829Y112699973D01*
X74198543Y112738420D01*
X74198541Y112738420D01*
X74001459Y112738420D01*
X74001457Y112738420D01*
X73808170Y112699973D01*
X73808160Y112699970D01*
X73626092Y112624556D01*
X73626079Y112624549D01*
X73462218Y112515060D01*
X73462214Y112515057D01*
X73433977Y112486819D01*
X73372654Y112453334D01*
X73346296Y112450500D01*
X61414610Y112450500D01*
X61347571Y112470185D01*
X61340641Y112475229D01*
X61173920Y112586629D01*
X61173907Y112586636D01*
X60991839Y112662050D01*
X60991829Y112662053D01*
X60798543Y112700500D01*
X60798541Y112700500D01*
X60601459Y112700500D01*
X60601457Y112700500D01*
X60408170Y112662053D01*
X60408160Y112662050D01*
X60226092Y112586636D01*
X60226079Y112586629D01*
X60062218Y112477140D01*
X60062214Y112477137D01*
X59922863Y112337786D01*
X59922860Y112337782D01*
X59813371Y112173921D01*
X59813364Y112173908D01*
X59737950Y111991840D01*
X59737947Y111991830D01*
X59699500Y111798544D01*
X59699500Y111798541D01*
X59699500Y111601459D01*
X59699500Y111601457D01*
X59699499Y111601457D01*
X500500Y111601457D01*
X500500Y139375500D01*
X520185Y139442539D01*
X572989Y139488294D01*
X624500Y139499500D01*
X112976000Y139499500D01*
X113043039Y139479815D01*
G37*
%TD.AperFunction*%
%TA.AperFunction,Conductor*%
G36*
X108021444Y78063921D02*
G01*
X108060486Y78018864D01*
X108064951Y78010100D01*
X108189890Y77838134D01*
X108340213Y77687811D01*
X108512179Y77562872D01*
X108512181Y77562871D01*
X108512184Y77562869D01*
X108521493Y77558126D01*
X108572290Y77510154D01*
X108589087Y77442333D01*
X108566552Y77376198D01*
X108521505Y77337160D01*
X108512446Y77332544D01*
X108512440Y77332540D01*
X108458282Y77293193D01*
X108458282Y77293192D01*
X109090591Y76660883D01*
X109027007Y76643845D01*
X108912993Y76578019D01*
X108819901Y76484927D01*
X108754075Y76370913D01*
X108737037Y76307330D01*
X108104728Y76939638D01*
X108104727Y76939638D01*
X108065380Y76885480D01*
X108060483Y76875869D01*
X108012506Y76825075D01*
X107944684Y76808282D01*
X107878550Y76830822D01*
X107839516Y76875872D01*
X107834626Y76885468D01*
X107795270Y76939638D01*
X107795269Y76939638D01*
X107162962Y76307330D01*
X107145925Y76370913D01*
X107080099Y76484927D01*
X106987007Y76578019D01*
X106872993Y76643845D01*
X106809409Y76660883D01*
X107441716Y77293192D01*
X107387547Y77332547D01*
X107387547Y77332548D01*
X107378500Y77337157D01*
X107327706Y77385132D01*
X107310912Y77452954D01*
X107333451Y77519088D01*
X107378508Y77558127D01*
X107387816Y77562869D01*
X107486187Y77634339D01*
X107559786Y77687811D01*
X107559788Y77687814D01*
X107559792Y77687816D01*
X107710104Y77838128D01*
X107710106Y77838132D01*
X107710109Y77838134D01*
X107835048Y78010100D01*
X107835047Y78010100D01*
X107835051Y78010104D01*
X107839514Y78018866D01*
X107887488Y78069661D01*
X107955308Y78086457D01*
X108021444Y78063921D01*
G37*
%TD.AperFunction*%
%TA.AperFunction,Conductor*%
G36*
X89804809Y136929815D02*
G01*
X89825451Y136913181D01*
X90283181Y136455452D01*
X90316666Y136394129D01*
X90319500Y136367771D01*
X90319500Y135787221D01*
X90299815Y135720182D01*
X90268385Y135686903D01*
X90190211Y135630107D01*
X90190205Y135630102D01*
X90039890Y135479787D01*
X89914949Y135307818D01*
X89910484Y135299054D01*
X89862509Y135248258D01*
X89794688Y135231464D01*
X89728553Y135254002D01*
X89689516Y135299054D01*
X89685050Y135307818D01*
X89560109Y135479787D01*
X89409786Y135630110D01*
X89237820Y135755049D01*
X89048414Y135851556D01*
X89048413Y135851557D01*
X89048412Y135851557D01*
X88846243Y135917246D01*
X88846241Y135917247D01*
X88846240Y135917247D01*
X88684957Y135942792D01*
X88636287Y135950500D01*
X88423713Y135950500D01*
X88375042Y135942792D01*
X88213760Y135917247D01*
X88011585Y135851556D01*
X87822179Y135755049D01*
X87650213Y135630110D01*
X87499890Y135479787D01*
X87374949Y135307818D01*
X87370202Y135298501D01*
X87322227Y135247707D01*
X87254405Y135230913D01*
X87188271Y135253452D01*
X87149234Y135298505D01*
X87144626Y135307548D01*
X87105270Y135361718D01*
X87105269Y135361718D01*
X86472962Y134729410D01*
X86455925Y134792993D01*
X86390099Y134907007D01*
X86297007Y135000099D01*
X86182993Y135065925D01*
X86119409Y135082963D01*
X86751716Y135715272D01*
X86697550Y135754625D01*
X86508217Y135851096D01*
X86306129Y135916758D01*
X86096246Y135950000D01*
X85883754Y135950000D01*
X85673872Y135916758D01*
X85673869Y135916758D01*
X85471782Y135851096D01*
X85282439Y135754620D01*
X85228282Y135715273D01*
X85228282Y135715272D01*
X85860591Y135082963D01*
X85797007Y135065925D01*
X85682993Y135000099D01*
X85589901Y134907007D01*
X85524075Y134792993D01*
X85507037Y134729410D01*
X84836818Y135399629D01*
X84803333Y135460952D01*
X84803330Y135460965D01*
X84800499Y135473986D01*
X84800499Y135497872D01*
X84794091Y135557483D01*
X84750664Y135673918D01*
X84743798Y135692327D01*
X84743793Y135692336D01*
X84657547Y135807545D01*
X84657544Y135807548D01*
X84542335Y135893794D01*
X84542328Y135893798D01*
X84407482Y135944092D01*
X84407483Y135944092D01*
X84347883Y135950499D01*
X84347881Y135950500D01*
X84347873Y135950500D01*
X84347864Y135950500D01*
X82552129Y135950500D01*
X82552123Y135950499D01*
X82492516Y135944092D01*
X82357671Y135893798D01*
X82357664Y135893794D01*
X82242455Y135807548D01*
X82242452Y135807545D01*
X82156206Y135692336D01*
X82156202Y135692329D01*
X82105908Y135557483D01*
X82099501Y135497884D01*
X82099500Y135497865D01*
X82099500Y133702130D01*
X82099501Y133702124D01*
X82105908Y133642517D01*
X82156202Y133507672D01*
X82156206Y133507665D01*
X82242452Y133392456D01*
X82242455Y133392453D01*
X82357664Y133306207D01*
X82357671Y133306203D01*
X82492517Y133255909D01*
X82492516Y133255909D01*
X82499444Y133255165D01*
X82552127Y133249500D01*
X84347872Y133249501D01*
X84407483Y133255909D01*
X84542331Y133306204D01*
X84657546Y133392454D01*
X84743796Y133507669D01*
X84794091Y133642517D01*
X84800500Y133702127D01*
X84800499Y133726021D01*
X84803330Y133739037D01*
X84813940Y133758475D01*
X84820179Y133779725D01*
X84836803Y133800357D01*
X84836808Y133800364D01*
X84836811Y133800366D01*
X84836818Y133800374D01*
X85507037Y134470592D01*
X85524075Y134407007D01*
X85589901Y134292993D01*
X85682993Y134199901D01*
X85797007Y134134075D01*
X85860590Y134117038D01*
X85228282Y133484731D01*
X85228282Y133484730D01*
X85282449Y133445376D01*
X85471782Y133348905D01*
X85673870Y133283243D01*
X85883754Y133250000D01*
X86096246Y133250000D01*
X86306127Y133283243D01*
X86306130Y133283243D01*
X86508217Y133348905D01*
X86697554Y133445378D01*
X86751716Y133484730D01*
X86751717Y133484730D01*
X86119408Y134117038D01*
X86182993Y134134075D01*
X86297007Y134199901D01*
X86390099Y134292993D01*
X86455925Y134407007D01*
X86472962Y134470592D01*
X87105270Y133838283D01*
X87105270Y133838284D01*
X87144622Y133892445D01*
X87149232Y133901493D01*
X87197205Y133952291D01*
X87265025Y133969088D01*
X87331161Y133946553D01*
X87370204Y133901496D01*
X87374949Y133892183D01*
X87499890Y133720214D01*
X87499896Y133720208D01*
X87650208Y133569896D01*
X87728384Y133513098D01*
X87771051Y133457769D01*
X87779500Y133412780D01*
X87779500Y129896082D01*
X87779500Y129896080D01*
X87779499Y129896080D01*
X87808340Y129751093D01*
X87808343Y129751083D01*
X87864914Y129614509D01*
X87864916Y129614505D01*
X87887245Y129581087D01*
X87887244Y129581087D01*
X87947046Y129491586D01*
X87947052Y129491579D01*
X102613181Y114825452D01*
X102646666Y114764129D01*
X102649500Y114737771D01*
X102649500Y102526082D01*
X102649500Y102526080D01*
X102649499Y102526080D01*
X102678340Y102381093D01*
X102678343Y102381083D01*
X102734913Y102244510D01*
X102734914Y102244508D01*
X102734915Y102244506D01*
X102734916Y102244505D01*
X102739405Y102237787D01*
X102739407Y102237781D01*
X102739408Y102237781D01*
X102817046Y102121586D01*
X102817052Y102121579D01*
X103943660Y100994972D01*
X103943664Y100994969D01*
X104066578Y100912840D01*
X104066591Y100912833D01*
X104169749Y100870104D01*
X104203167Y100856262D01*
X104203171Y100856262D01*
X104203172Y100856261D01*
X104348159Y100827420D01*
X104348162Y100827420D01*
X104495997Y100827420D01*
X105492779Y100827420D01*
X105559818Y100807735D01*
X105593097Y100776305D01*
X105649892Y100698132D01*
X105800213Y100547811D01*
X105972182Y100422870D01*
X105980946Y100418404D01*
X106031742Y100370429D01*
X106048536Y100302608D01*
X106025998Y100236473D01*
X105980946Y100197436D01*
X105972182Y100192971D01*
X105800213Y100068030D01*
X105649890Y99917707D01*
X105524951Y99745741D01*
X105428444Y99556335D01*
X105362753Y99354160D01*
X105332997Y99166287D01*
X105329500Y99144207D01*
X105329500Y98931633D01*
X105362754Y98721677D01*
X105421269Y98541586D01*
X105428444Y98519506D01*
X105524951Y98330100D01*
X105649890Y98158134D01*
X105800213Y98007811D01*
X105972182Y97882870D01*
X105980946Y97878404D01*
X106031742Y97830429D01*
X106048536Y97762608D01*
X106025998Y97696473D01*
X105980946Y97657436D01*
X105972182Y97652971D01*
X105800213Y97528030D01*
X105649890Y97377707D01*
X105524951Y97205741D01*
X105428444Y97016335D01*
X105362753Y96814160D01*
X105332997Y96626287D01*
X105329500Y96604207D01*
X105329500Y96391633D01*
X105362754Y96181677D01*
X105421269Y96001586D01*
X105428444Y95979506D01*
X105524951Y95790100D01*
X105649890Y95618134D01*
X105800213Y95467811D01*
X105972182Y95342870D01*
X105980946Y95338404D01*
X106031742Y95290429D01*
X106048536Y95222608D01*
X106025998Y95156473D01*
X105980946Y95117436D01*
X105972182Y95112971D01*
X105800213Y94988030D01*
X105649892Y94837709D01*
X105593097Y94759535D01*
X105537767Y94716869D01*
X105492779Y94708420D01*
X104204309Y94708420D01*
X104137270Y94728105D01*
X104116628Y94744739D01*
X101186819Y97674549D01*
X101153334Y97735872D01*
X101150500Y97762230D01*
X101150500Y109773919D01*
X101144763Y109802758D01*
X101144763Y109802760D01*
X101134984Y109851922D01*
X101121659Y109918912D01*
X101067408Y110049883D01*
X101065764Y110054478D01*
X100982954Y110178412D01*
X100982953Y110178413D01*
X100982951Y110178416D01*
X100878416Y110282951D01*
X81086819Y130074549D01*
X81053334Y130135872D01*
X81050500Y130162230D01*
X81050500Y135237771D01*
X81070185Y135304810D01*
X81086819Y135325452D01*
X82674548Y136913181D01*
X82735871Y136946666D01*
X82762229Y136949500D01*
X89737770Y136949500D01*
X89804809Y136929815D01*
G37*
%TD.AperFunction*%
%TA.AperFunction,Conductor*%
G36*
X153568657Y130680315D02*
G01*
X153614412Y130627511D01*
X153624356Y130558353D01*
X153617800Y130532667D01*
X153596403Y130475300D01*
X153596401Y130475293D01*
X153590000Y130415765D01*
X153590000Y129767920D01*
X154506988Y129767920D01*
X154474075Y129710913D01*
X154440000Y129583746D01*
X154440000Y129452094D01*
X154474075Y129324927D01*
X154506988Y129267920D01*
X153590000Y129267920D01*
X153590000Y128620076D01*
X153596401Y128560548D01*
X153596403Y128560541D01*
X153646645Y128425834D01*
X153646649Y128425827D01*
X153732809Y128310733D01*
X153732812Y128310730D01*
X153847906Y128224570D01*
X153847913Y128224566D01*
X153863903Y128218602D01*
X153919837Y128176731D01*
X153944254Y128111267D01*
X153929403Y128042994D01*
X153879998Y127993588D01*
X153820570Y127978420D01*
X144570231Y127978420D01*
X144503192Y127998105D01*
X144457437Y128050909D01*
X144447493Y128120067D01*
X144476518Y128183623D01*
X144526898Y128218602D01*
X144602086Y128246646D01*
X144602093Y128246650D01*
X144717187Y128332810D01*
X144717190Y128332813D01*
X144803350Y128447907D01*
X144803354Y128447914D01*
X144853596Y128582621D01*
X144853598Y128582628D01*
X144859999Y128642156D01*
X144860000Y128642173D01*
X144860000Y129290000D01*
X143943012Y129290000D01*
X143975925Y129347007D01*
X144010000Y129474174D01*
X144010000Y129605826D01*
X143975925Y129732993D01*
X143943012Y129790000D01*
X144860000Y129790000D01*
X144860000Y130437828D01*
X144859999Y130437845D01*
X144853598Y130497373D01*
X144853595Y130497384D01*
X144840436Y130532666D01*
X144835451Y130602357D01*
X144868935Y130663681D01*
X144930258Y130697166D01*
X144956617Y130700000D01*
X153501618Y130700000D01*
X153568657Y130680315D01*
G37*
%TD.AperFunction*%
%TD*%
M02*
